<?xml version="1.0" standalone="no"?>
<!DOCTYPE svg PUBLIC "-//W3C//DTD SVG 1.1//EN" "http://www.w3.org/Graphics/SVG/1.1/DTD/svg11.dtd" >
<svg xmlns="http://www.w3.org/2000/svg">
<metadata>
This is a custom SVG webfont generated by Font Squirrel.
Copyright   : Copyright URW copyright 1999 by URW Design  Development Cyrillic glyphs added by Valek Filippov copyright 20012002 Vietnamese characters were added by Han The Thanh copyright 2006 2008 for TeX Gyre extensions by B Jackowski and JM Nowacki on behalf of TeX users groups This work is released under the GUST Font License   see httptugorgfontslicensesGUSTFONTLICENSEtxt for details
</metadata>
<defs>
<font id="webfontTf49rk66" horiz-adv-x="1024" >
<font-face units-per-em="2048" ascent="1487" descent="-561" />
<missing-glyph horiz-adv-x="512" />
<glyph unicode=" "  horiz-adv-x="512" />
<glyph unicode="&#x09;" horiz-adv-x="512" />
<glyph unicode="&#xa0;" horiz-adv-x="512" />
<glyph unicode="!" horiz-adv-x="569" d="M166 108.5q0 47.5 36 83t81 35.5q47 0 83.5 -35.5t36.5 -83t-36.5 -83t-85.5 -35.5q-45 0 -80 35.5t-35 83zM174 1343l154 78h69v-51q0 -78 -14 -194l-59 -668v-51l-58 -47l-20 10l-4 82z" />
<glyph unicode="&#x22;" horiz-adv-x="759" d="M106 1362v10q0 29 28 54.5t60.5 25.5t59.5 -24.5t27 -53.5v-12l-66 -401h-41zM477 1362v10q0 29 27.5 54.5t60.5 25.5t59.5 -24.5t26.5 -53.5v-12l-65 -401h-41z" />
<glyph unicode="#" d="M8 459v114h238l43 285h-226v115h242l64 428h118l-63 -428h272l62 428h119l-62 -428h199v-115h-215l-41 -285h205v-114h-224l-63 -459h-119l64 459h-275l-67 -459h-119l67 459h-219zM365 573h274l41 285h-272z" />
<glyph unicode="$" d="M61 49q16 113 25 303h66v-131q0 -55 28 -84q82 -80 277 -100v571q-215 25 -293 84q-102 76 -103 246q0 233 181 350q78 51 215 76l-8 133h92q-6 -55 -9 -127q215 -16 340 -88q-27 -98 -26 -258h-66v86q0 57 -9 82t-38 45q-76 49 -201 59v-532q233 -25 322 -88 q111 -80 111 -252q0 -240 -199 -369q-88 -59 -234 -88l9 -205h-92q2 31 8 201q-189 2 -396 86zM215 1012q0 -113 54.5 -166t187.5 -70v514q-94 -10 -148 -53q-94 -75 -94 -225zM532 37q123 23 197 107.5t74 209.5q0 113 -60.5 167t-210.5 77v-561z" />
<glyph unicode="%" horiz-adv-x="1720" d="M80 1069q0 150 95 246t241 96q133 0 222 -90t89 -225q0 -147 -94 -244.5t-238 -97.5q-137 0 -226 89t-89 226zM227 1077q0 -133 44 -204.5t126 -71.5t132.5 78.5t50.5 212.5q0 125 -46.5 198.5t-123.5 73.5q-84 0 -133.5 -77t-49.5 -210zM430 -41l750 1493h82l-750 -1493 h-82zM995 315q0 150 95.5 246t240.5 96q133 0 222 -90t89 -225q0 -147 -94 -244.5t-237 -97.5q-137 0 -226.5 89t-89.5 226zM1143 323.5q0 -133.5 44 -205t126 -71.5t132 79t50 212q0 125 -46 198.5t-124 73.5q-84 0 -133 -76.5t-49 -210z" />
<glyph unicode="&#x26;" horiz-adv-x="1593" d="M88 352q0 154 109 281q74 82 209 160q-61 156 -62 272q0 133 49 176l139 123q53 47 136 47q96 0 148 -48t52 -136q0 -139 -131 -279q-55 -55 -164 -135q162 -262 418 -524q98 131 99 231q0 63 -16.5 110.5t-39.5 53.5q-33 8 -178 21l68 92l198 -4l398 14 q-25 -80 -25 -148q-113 16 -287 25q10 -39 11 -80q0 -96 -38 -178t-128 -184q131 -76 203.5 -102.5t148.5 -26.5q41 0 125 39l12 -52l-178 -129q-18 -12 -70 -12q-74 0 -177 44t-193 114q-203 -158 -414 -158q-182 0 -302 110.5t-120 282.5zM266 428q0 -143 101.5 -248.5 t238.5 -105.5q115 0 254 94q-176 197 -266 313.5t-158 239.5q-94 -74 -132 -139.5t-38 -153.5zM487 1141q0 -100 54 -258q84 59 137 136t53 146q0 59 -33.5 98.5t-85.5 39.5q-125 0 -125 -162z" />
<glyph unicode="'" horiz-adv-x="425" d="M125 1362v10q0 29 27.5 54.5t60.5 25.5t59.5 -24.5t26.5 -53.5v-12l-66 -401h-40z" />
<glyph unicode="(" horiz-adv-x="681" d="M123 545q0 233 80 438q57 150 136 255t239 249l38 -53q-113 -131 -166 -222.5t-92 -218.5q-59 -193 -59 -448q0 -260 63 -477q41 -139 92.5 -233.5t161.5 -231.5l-38 -43q-127 119 -189.5 195.5t-116.5 178.5q-149 281 -149 611z" />
<glyph unicode=")" horiz-adv-x="681" d="M66 -397q111 137 162 231t91 234q63 217 64 477q0 250 -61 448q-39 127 -91.5 218.5t-164.5 222.5l38 53q160 -145 239 -249.5t136 -254.5q80 -207 80 -440q0 -379 -190 -682q-82 -129 -265 -301z" />
<glyph unicode="*" horiz-adv-x="796" d="M66 924l10 18l268 111l-268 131l-6 20l90 107h20l195 -201l53 293l18 8l127 -39l7 -31l-142 -256l285 50l12 -9v-127l-18 -16l-283 41l139 -250v-20l-139 -54l-20 9l-37 290l-217 -180h-21z" />
<glyph unicode="+" horiz-adv-x="1241" d="M82 455v114h481v482h115v-482h481v-114h-481v-482h-115v482h-481z" />
<glyph unicode="," horiz-adv-x="512" d="M33 -295q90 147 132 258t52 227q109 31 201 62l28 -29q-76 -211 -301 -502l-84 -38z" />
<glyph unicode="-" horiz-adv-x="681" d="M35 451l55 137h539l10 -10l-61 -138h-533z" />
<glyph unicode="." horiz-adv-x="512" d="M137 108.5q0 47.5 36 83t81 35.5q47 0 84 -35.5t37 -83t-37 -83t-86 -35.5q-45 0 -80 35.5t-35 83z" />
<glyph unicode="/" horiz-adv-x="1241" d="M178 -244l762 1731h123l-762 -1731h-123z" />
<glyph unicode="0" d="M59 664q0 748 480 747q211 0 312 -163t101 -498q0 -791 -465 -791q-201 0 -313 158q-115 160 -115 547zM231 737q0 -375 67 -540.5t216 -165.5q141 0 203.5 144t62.5 472q0 369 -64.5 530.5t-213.5 161.5q-145 0 -208 -139t-63 -463z" />
<glyph unicode="1" d="M123 1225q272 96 465 196l28 -10v-1214q0 -80 25 -105.5t109 -30.5l106 -6v-61q-160 6 -321 6q-170 0 -338 -6v61l114 6q84 4 108.5 30t24.5 106v993q0 68 -16 67l-6 -2l-264 -118h-21z" />
<glyph unicode="2" d="M33 -6v53l348 371q172 184 244.5 310t72.5 241q0 131 -77.5 207.5t-210.5 76.5q-102 0 -161 -41t-83 -129l-27 -94h-59l35 279q76 76 156.5 109.5t191.5 33.5q195 0 307.5 -102.5t112.5 -278.5q0 -115 -55.5 -217t-204.5 -260l-373 -395l708 20q-4 -45 -4 -92 q0 -49 4 -92q-233 6 -469 6q-229 0 -456 -6z" />
<glyph unicode="3" d="M31 313l55 21q51 -143 115 -203q94 -88 239 -88q143 0 229.5 94t86.5 252q0 139 -71 217t-198 78q-72 0 -172 -45l-14 12l25 109q0 -6 96 -6q109 0 187.5 84t78.5 198q0 96 -70.5 167t-171.5 71q-80 0 -160.5 -43t-97.5 -96l-36 -115h-64l59 254q74 74 150 105.5 t180 31.5q170 0 274.5 -83t104.5 -220q0 -90 -51 -169t-174 -173q135 -25 200 -72q115 -80 115 -235q0 -143 -104 -271q-84 -102 -213 -165.5t-252 -63.5q-117 0 -275 53q-16 143 -71 301z" />
<glyph unicode="4" d="M4 418l580 948l151 55l25 -10q-14 -117 -15 -625v-284h56l166 6v-146q-76 8 -222 9v-154q0 -92 24 -121.5t99 -34.5l99 -6v-61q-156 6 -314 6q-164 0 -329 -6v61l127 6q76 2 99 33t23 123v154h-546zM133 502h440v721z" />
<glyph unicode="5" d="M27 281l49 28l94 -168q20 -39 89 -64.5t153 -25.5q168 0 261 95.5t93 265.5q0 166 -86 263t-234 97q-74 0 -127 -25.5t-124 -99.5l-41 12q12 180 12 461l-4 281l10 10l135 -6q135 -4 221 -4l357 10l10 -10q-4 -37 -4 -82q0 -43 4 -80l-10 -10l-625 10l-18 -428 q172 102 299 102q176 0 287.5 -110.5t111.5 -284.5q0 -233 -190 -401q-180 -158 -396 -158q-135 0 -227 49q-34 113 -100 273z" />
<glyph unicode="6" d="M66 506q0 434 325 708q78 68 157 108t228 89l76 -35v-16q-276 -84 -413.5 -244t-170.5 -438q111 90 178.5 125t153.5 35q162 0 260 -106.5t98 -282.5q0 -209 -133 -349.5t-331.5 -140.5t-313 146.5t-114.5 400.5zM252 451q0 -207 68.5 -315.5t199.5 -108.5 q119 0 190.5 95t71.5 255q0 152 -71.5 245t-188.5 93q-74 0 -139.5 -33t-99.5 -86q-31 -47 -31 -145z" />
<glyph unicode="7" d="M90 977q6 0 6 209l-6 215l21 10q248 -10 448 -10q182 0 459 10v-61l-375 -674q-125 -225 -185.5 -356.5t-135.5 -325.5q0 6 -95 6l-94 -6l-18 26l499 803q102 166 224 412h-547q-72 0 -92.5 -24.5t-32.5 -118.5l-14 -115h-62z" />
<glyph unicode="8" d="M61 325.5q0 157.5 119 276.5q57 55 164 105q-135 88 -185 158.5t-50 174.5q0 162 119.5 266.5t301.5 104.5q162 0 262.5 -81t100.5 -214q0 -92 -56.5 -165.5t-195.5 -170.5q174 -80 241.5 -157.5t67.5 -200.5q0 -190 -143 -326.5t-344 -136.5q-174 0 -288 104.5t-114 262 zM207 342q0 -143 77.5 -228t209.5 -85q125 0 209.5 89t84.5 218q0 82 -55 153.5t-151 114.5l-164 74q-115 -70 -163 -146.5t-48 -189.5zM262 1114q0 -152 195 -248l112 -55q100 63 142.5 129t42.5 154q0 113 -68 180t-180 67q-109 0 -176.5 -62.5t-67.5 -164.5z" />
<glyph unicode="9" d="M41 932q0 205 131 342t328 137q203 0 319.5 -148.5t116.5 -408.5q0 -420 -303 -680q-82 -70 -173 -115t-263 -100l-70 35v16q279 68 438.5 248t171.5 438l-143 -118q-63 -53 -186 -54q-160 0 -263.5 116t-103.5 292zM217 1008q0 -160 76 -259.5t199 -99.5q119 0 192.5 87 t73.5 229q0 150 -62 258q-66 121 -204 120q-127 0 -201 -89.5t-74 -245.5z" />
<glyph unicode=":" horiz-adv-x="512" d="M135 108.5q0 47.5 36 83t81 35.5q47 0 84 -35.5t37 -83t-37 -83t-86 -35.5q-45 0 -80 35.5t-35 83zM135 815q0 47 36 83t81 36q47 0 84 -37t37 -84t-37 -82t-86 -35q-45 0 -80 36t-35 83z" />
<glyph unicode=";" horiz-adv-x="512" d="M33 -291q90 147 132 258t52 228q109 31 201 61l28 -29q-76 -211 -301 -501l-84 -39zM190 815q0 47 36 83t81 36q47 0 84 -37t37 -84t-37 -82t-86 -35q-45 0 -80 36t-35 83z" />
<glyph unicode="&#x3c;" horiz-adv-x="1241" d="M141 459v106l936 418v-127l-772 -344l772 -344v-127z" />
<glyph unicode="=" horiz-adv-x="1241" d="M82 279v114h1077v-114h-1077zM82 633v115h1077v-115h-1077z" />
<glyph unicode="&#x3e;" horiz-adv-x="1241" d="M141 41v127l772 344l-772 344v127l936 -418v-106z" />
<glyph unicode="?" horiz-adv-x="909" d="M88 1118l78 232q145 72 270 71q158 0 265.5 -91t107.5 -224q0 -88 -47 -162t-178 -194q-125 -113 -159 -157t-34 -95q0 -45 45 -99l-43 -28q-90 57 -90 149q0 53 32 106.5t126 155.5q90 100 123.5 159.5t33.5 121.5q0 98 -70.5 160.5t-180.5 62.5q-143 0 -179 -86 l-41 -98zM289 108.5q0 47.5 35.5 83t81.5 35.5q47 0 83.5 -35.5t36.5 -83t-36.5 -83t-86.5 -35.5q-45 0 -79.5 35.5t-34.5 83z" />
<glyph unicode="@" horiz-adv-x="1529" d="M49 678q0 313 218 528t538 215q285 0 481.5 -169t196.5 -414q0 -211 -149.5 -387.5t-327.5 -176.5q-139 0 -156 172q-76 -96 -128 -128.5t-124 -32.5q-115 0 -193.5 84t-78.5 204q0 182 135 325.5t309 143.5q145 0 180 -163l37 143h180l-157 -571q-14 -45 -3 -81t46 -36 q115 0 218 159.5t103 335.5q0 211 -159.5 350.5t-401.5 139.5q-281 0 -466 -179t-185 -449.5t187.5 -450t471.5 -179.5q135 0 250 52q86 39 144.5 89t132.5 148h125q-80 -131 -162 -203q-213 -188 -504 -188q-319 0 -538.5 208t-219.5 511zM508 520q0 -82 33.5 -131 t89.5 -49q102 0 180 139q43 76 71.5 179.5t28.5 181.5q0 63 -29.5 105t-76.5 42q-98 0 -180 -119q-49 -72 -83 -172t-34 -176z" />
<glyph unicode="A" horiz-adv-x="1593" d="M31 -6v61l75 6q68 6 111 101l453 1028l100 244h66l495 -1164q55 -129 82 -168t66 -41l69 -6v-61q-129 6 -260 6q-143 0 -284 -6v61l96 6q84 6 84 41q0 25 -43 131l-94 236h-590l-58 -137q-72 -170 -71 -217q0 -45 98 -54l76 -6v-61q-123 6 -248 6q-112 0 -223 -6z M492 551h518l-258 610z" />
<glyph unicode="B" horiz-adv-x="1251" d="M53 1356v61q164 -6 324 -6q61 0 183 3t183 3q367 0 367 -278q0 -160 -149 -262q-76 -51 -205 -78q121 -10 184.5 -27.5t120.5 -60.5q119 -84 119 -244q0 -109 -51.5 -207t-141.5 -162q-143 -104 -377 -104q-41 0 -127 3t-127 3q-113 0 -223 -6v47l53 20q45 16 45 134v970 q0 121 -16 149.5t-88 35.5zM426 96q68 -16 158 -16q182 0 283.5 91t101.5 255t-99.5 241.5t-306.5 77.5q-57 0 -137 -4v-645zM426 821q63 -4 125 -4q174 0 265 70.5t91 204.5q0 127 -75.5 185t-239.5 58q-94 0 -166 -16v-498z" />
<glyph unicode="C" horiz-adv-x="1452" d="M45 700q0 420 356 629q211 123 486 123q219 0 473 -84q-37 -170 -39 -311h-64v147q0 59 -128 110.5t-279 51.5q-264 0 -425 -172t-161 -455q0 -303 183.5 -486t482.5 -183q233 0 424 123l18 -21l-57 -102q-213 -111 -465 -111q-360 0 -582.5 204.5t-222.5 536.5z" />
<glyph unicode="D" horiz-adv-x="1585" d="M45 1356v61q213 -6 422 -6q59 0 178 3t178 3q324 0 519.5 -172t195.5 -457q0 -164 -63.5 -320.5t-174.5 -264.5q-211 -209 -602 -209q-49 0 -148 3t-149 3q-143 0 -284 -6v47l63 33q51 25 51 121v970q0 121 -17 151t-87 34zM426 100q72 -16 211 -16q174 0 279.5 29.5 t197.5 105.5q205 168 205 516q0 305 -145 451q-150 150 -521 149q-141 0 -227 -16v-1219z" />
<glyph unicode="E" horiz-adv-x="1251" d="M45 1356v61q182 -6 365 -6q238 0 475 6l254 -6q-33 -131 -33 -311h-72v133q0 35 -9 47t-46 23q-102 29 -297 28q-168 0 -240 -16v-547q121 -8 328 -8q72 0 101.5 14t41.5 64l11 106h61q-6 -121 -6 -237q0 -113 6 -228h-61l-11 121q-10 47 -39.5 61.5t-103.5 14.5l-328 -6 v-574q80 -16 203 -16q303 0 377 24q47 16 68 162l10 70h71q-33 -170 -32 -336l-342 -6q-236 6 -475 6q-125 0 -252 -6v61l73 6q72 6 88.5 35t16.5 150v919q0 121 -16.5 151t-88.5 34z" />
<glyph unicode="F" horiz-adv-x="1138" d="M45 -6v61l98 6q72 4 88.5 34t16.5 151v919q0 121 -16.5 151t-88.5 34l-98 6v61q182 -6 361 -6q221 0 442 6l250 -6q-33 -131 -33 -311h-72v133q0 37 -9 49t-46 21q-111 29 -276 28q-150 0 -220 -16v-547q121 -8 324 -8q76 0 109.5 14t37.5 64l11 106h61q-6 -121 -6 -237 q0 -113 6 -228h-61l-11 121q-10 47 -39.5 61.5t-103.5 14.5l-328 -6v-424q0 -121 16.5 -150.5t88.5 -34.5l98 -6v-61q-150 6 -301 6q-147 0 -299 -6z" />
<glyph unicode="G" horiz-adv-x="1562" d="M45 698q0 340 239.5 547t637.5 207q123 0 223 -17.5t272 -66.5q-41 -158 -41 -311h-63v108q0 57 -40 96t-130 68q-117 37 -275 37q-287 0 -445.5 -164t-158.5 -461q0 -319 179.5 -507.5t484.5 -188.5q102 0 183 19.5t97 48.5q12 23 13 88v207q0 37 -15.5 52t-54.5 19 l-170 15v61q125 -6 250 -6t252 6l8 -51l-59 -21q-16 -6 -19.5 -17t-3.5 -58v-345q-375 -104 -565 -104q-176 0 -334 59.5t-266 163.5q-199 199 -199 516z" />
<glyph unicode="H" horiz-adv-x="1703" d="M45 -6v61l98 6q72 4 88.5 34t16.5 151v919q0 121 -16.5 151t-88.5 34l-98 6v61q150 -6 299 -6q152 0 301 6v-61l-98 -6q-72 -4 -88.5 -34t-16.5 -151v-364q82 -4 170 -4h480q84 0 170 4v364q0 121 -16.5 151t-88.5 34l-98 6v61q152 -6 299 -6q150 0 301 6v-61l-98 -6 q-72 -4 -88.5 -34t-16.5 -151v-919q0 -121 16.5 -150.5t88.5 -34.5l98 -6v-61q-152 6 -301 6q-150 0 -299 -6v61l98 6q72 4 88.5 34t16.5 151v456q-55 4 -170 5h-480q-115 0 -170 -5v-456q0 -121 16.5 -150.5t88.5 -34.5l98 -6v-61q-150 6 -301 6q-147 0 -299 -6z" />
<glyph unicode="I" horiz-adv-x="690" d="M45 -6v61l98 6q72 4 88.5 34t16.5 151v919q0 121 -16.5 151t-88.5 34l-98 6v61q150 -6 299 -6q152 0 301 6v-61l-98 -6q-72 -4 -88.5 -34t-16.5 -151v-919q0 -121 16.5 -150.5t88.5 -34.5l98 -6v-61q-150 6 -301 6q-147 0 -299 -6z" />
<glyph unicode="J" horiz-adv-x="681" d="M-31 -238l23 13q68 -41 137 -41q61 0 86 51t25 180v1200q0 121 -16.5 151t-88.5 34l-98 6v61q150 -6 299 -6q152 0 301 6v-61l-98 -6q-72 -4 -88.5 -34t-16.5 -151v-925q0 -186 -25.5 -283.5t-101.5 -189.5q-59 -74 -142 -123q-74 -44 -124 -44q-6 0 -12 1l-49 6z" />
<glyph unicode="K" horiz-adv-x="1486" d="M45 -6v61l98 6q72 4 88.5 34t16.5 151v919q0 121 -16.5 151t-88.5 34l-98 6v61q150 -6 299 -6q152 0 301 6v-61l-98 -6q-72 -4 -88.5 -34t-16.5 -151v-438l570 555q59 59 59 80v55q92 -6 182 -6q82 0 164 6v-61l-86 -4q-76 -2 -160 -78l-544 -492l676 -639 q86 -82 127 -84l43 -4v-61q-68 6 -134 6q-82 0 -163 -6l-713 686l-21 -14v-420q0 -121 16.5 -150.5t88.5 -34.5l98 -6v-61q-150 6 -301 6q-147 0 -299 -6z" />
<glyph unicode="L" horiz-adv-x="1251" d="M45 1356v61q150 -6 299 -6q152 0 301 6v-61l-98 -6q-72 -4 -88.5 -34t-16.5 -151v-1069q72 -16 174 -16q406 0 449 37q18 14 45 133l25 102h65q-25 -240 -43 -352q-279 -6 -344 -6q-80 0 -238.5 3t-238.5 3q-102 0 -203 -6v47l64 33q51 25 51 121v970q0 121 -16.5 151 t-88.5 34z" />
<glyph unicode="M" horiz-adv-x="1937" d="M33 -6v61l90 6q70 4 87 34t17 151v919q0 121 -17 151t-87 34l-90 6v61q98 -6 194.5 -6t194.5 6l541 -1138l536 1138q98 -6 195 -6q96 0 190 6v-61l-86 -6q-70 -4 -87 -34t-17 -151v-919q0 -121 16 -150.5t88 -34.5l98 -6v-61q-154 6 -309 6q-131 0 -262 -6v61l70 6 q72 6 88 35t16 150v938l-90 -176l-365 -775q-20 -45 -51.5 -123.5t-58.5 -136.5h-41l-571 1211v-938q0 -121 17 -150.5t87 -34.5l90 -6v-61q-123 6 -246 6q-118 0 -237 -6z" />
<glyph unicode="N" horiz-adv-x="1701" d="M35 -6v61l90 6q70 4 87 34t17 151v919q0 121 -17 151t-87 34l-90 6v61q0 -6 246 -6l110 6l985 -1216v964q0 121 -17.5 151t-86.5 34l-90 6v61q119 -6 237 -6q123 0 246 6v-61l-90 -6q-70 -4 -87.5 -34t-17.5 -151v-1130q0 -10 3.5 -38t3.5 -38l-185 33l-968 1202v-948 q0 -121 17 -150.5t87 -34.5l90 -6v-61q-123 6 -246 6q-116 0 -237 -6z" />
<glyph unicode="O" horiz-adv-x="1609" d="M45 698q0 338 214 546t564 208q342 0 542 -189.5t200 -510.5q0 -338 -231.5 -565.5t-575.5 -227.5q-311 0 -512 208.5t-201 530.5zM264 774q0 -328 159 -528.5t417 -200.5q238 0 372 171t134 474q0 319 -147.5 497.5t-410.5 178.5q-252 0 -388 -153.5t-136 -438.5z" />
<glyph unicode="P" horiz-adv-x="1236" d="M45 -6v61l98 6q72 4 88.5 34t16.5 151v919q0 113 -19.5 147t-89.5 38l-92 6v61q186 -6 373 -6q57 0 173 3t175 3q195 0 307.5 -85t112.5 -232q0 -184 -142.5 -310t-353.5 -126q-59 0 -119 12l-20 74q68 -20 127 -21q133 0 218 88t85 225q0 145 -87 221t-253 76 q-94 0 -201 -24v-1069q0 -121 16.5 -150.5t88.5 -34.5l98 -6v-61q-150 6 -301 6q-147 0 -299 -6z" />
<glyph unicode="Q" horiz-adv-x="1609" d="M45 702.5q0 335.5 213 542.5t557 207t547 -187.5t203 -504.5q0 -221 -106.5 -408.5t-293.5 -294.5q-80 -45 -150.5 -65.5t-193.5 -30.5q102 -12 248 -76q236 -100 375 -100q25 0 121 12v-43l-172 -114q-131 27 -217 53l-304 94q-94 31 -159 31q-25 0 -58 -17l-120 -65 l4 65q184 141 223 156l10 4q-330 0 -528.5 203t-198.5 538.5zM264 768q0 -322 164 -528q156 -193 416 -193q242 0 372 166t130 473q0 322 -146.5 501t-411.5 179q-254 0 -389 -154.5t-135 -443.5z" />
<glyph unicode="R" horiz-adv-x="1368" d="M45 -6v61l98 6q72 4 88.5 34t16.5 151v919q0 121 -17.5 151t-87.5 34l-84 6v61q178 -6 355 -6q61 0 183 3t183 3q199 0 299.5 -78.5t100.5 -228.5q0 -180 -164 -297q-88 -61 -236 -98l465 -606q35 -45 125 -54v-61q-74 6 -147 6q-68 0 -140 -6l-84 110l-376 506 q-49 68 -95 117v33h60q178 0 282.5 83t104.5 224q0 131 -86 201.5t-246 70.5q-96 0 -201 -24v-1069q0 -121 16.5 -150.5t88.5 -34.5l98 -6v-61q-150 6 -301 6q-147 0 -299 -6z" />
<glyph unicode="S" horiz-adv-x="1075" d="M49 991q0 201 148.5 331t377.5 130q154 0 369 -86q-29 -156 -29 -289h-65l-12 117q-4 45 -24.5 71.5t-72.5 53.5q-84 47 -211 47q-135 0 -222 -83t-87 -212q0 -119 76 -176t262 -82q174 -23 254 -48.5t133 -76.5q84 -78 84 -217q0 -223 -173 -367.5t-441 -144.5 q-176 0 -355 78q16 123 17 231q0 45 -2 82h65l17 -137q8 -63 109.5 -113.5t224.5 -50.5q160 0 263 89t103 229q0 115 -78 180q-74 61 -282 92q-266 35 -363 123q-86 79 -86 229z" />
<glyph unicode="T" horiz-adv-x="1255" d="M37 1417l416 -6h323l443 6q-14 -164 -15 -330h-63l-8 162q-2 68 -82 68h-318q-8 -90 -8 -205v-866q0 -121 16.5 -150.5t87.5 -34.5l99 -6v-61q-150 6 -301 6q-147 0 -299 -6v61l98 6q72 4 88 34t16 151v866q0 113 -8 205h-317q-80 0 -82 -68l-8 -162h-64q0 166 -14 330z " />
<glyph unicode="U" horiz-adv-x="1593" d="M25 1356v61q152 -6 299 -6q152 0 301 6v-61l-99 -6q-72 -4 -88 -34t-16 -151v-704q0 -197 97 -286t310 -89q223 0 330 103.5t107 320.5v655q0 121 -17.5 151t-87.5 34l-90 6v61q119 -6 238 -6q123 0 245 6v-61l-90 -6q-70 -4 -87 -34t-17 -151v-592q0 -336 -141 -477 q-135 -137 -444.5 -137t-432.5 127q-115 117 -115 352v727q0 121 -16 151t-88 34z" />
<glyph unicode="V" horiz-adv-x="1478" d="M16 1356v61q135 -6 272.5 -6t272.5 6v-61l-115 -6q-39 -2 -54 -20.5t-7 -43.5l403 -1038l375 969q17 42 17 70q0 59 -70 63l-106 6v61q111 -6 221 -6t221 6v-61l-62 -6q-29 -4 -52 -35t-58 -113l-356 -862q-82 -201 -132 -358h-102q-41 145 -119 337l-385 947 q-18 45 -37.5 62.5t-52.5 21.5z" />
<glyph unicode="W" horiz-adv-x="2048" d="M16 1356v61q129 -6 258 -6t258 6v-61l-86 -6q-55 -4 -69 -41q-7 -17 -7 -39q0 -25 9 -56l205 -919l254 645q119 301 184 494h65q12 -49 68 -209l336 -944l270 1001q8 33 -12 48.5t-82 19.5l-82 6v61q106 -6 215 -6t215 6v-61l-65 -6q-61 -6 -78 -60l-313 -1102l-56 -206 h-102q-72 221 -146 421l-256 695l-356 -905q-47 -117 -74 -211h-102l-291 1265q-12 51 -34.5 75t-67.5 28z" />
<glyph unicode="X" horiz-adv-x="1366" d="M29 -6v61l53 6q33 4 57.5 24.5t63.5 74.5l399 538l-262 437q-106 178 -188 184l-93 6l-4 53l289 56q53 -29 117 -134l262 -442l379 553h207v-61l-84 -7q-23 -2 -50.5 -29.5t-89.5 -109.5l-315 -426l360 -573q51 -82 79 -112t57 -32l61 -6v-61q-74 6 -145 6q-76 0 -152 -6 l-377 627l-413 -627q-51 6 -105 6q-53 0 -106 -6z" />
<glyph unicode="Y" horiz-adv-x="1366" d="M18 1333v60l246 51q29 0 83 -61.5t104 -149.5l292 -535l211 334q117 184 222 389h163v-30q-197 -236 -385 -519q-90 -135 -118.5 -206.5t-28.5 -155.5v-264q0 -121 16.5 -150.5t87.5 -34.5l99 -6v-61q-150 6 -301 6q-147 0 -299 -6v61l98 6q72 4 88 34t16 151v291 q0 51 -18 81l-254 443q-66 113 -138.5 186.5t-123.5 79.5z" />
<glyph unicode="Z" horiz-adv-x="1366" d="M31 -6v57l198 240l619 794q133 168 176 242h-467q-188 0 -247.5 -18.5t-63.5 -77.5l-13 -146h-69q6 115 6 166.5t-6 165.5h338q92 0 237.5 -3t237.5 -3l319 6l9 -59l-996 -1268h559q236 0 291 22.5t66 125.5l12 116h70q-12 -135 -13 -360q-313 6 -624 6q-320 0 -639 -6z " />
<glyph unicode="[" horiz-adv-x="681" d="M162 -350q18 80 18 352v1106q0 272 -18 352l18 27q0 -4 199 -4l199 4l12 -12v-54l-8 -10h-78q-86 0 -125 -33q-27 -27 -27 -221v-1204q0 -195 27 -221q39 -33 125 -33h78l8 -10v-54l-12 -12q0 4 -199 4l-199 -4z" />
<glyph unicode="\" horiz-adv-x="1241" d="M166 1487h121l762 -1487h-121z" />
<glyph unicode="]" horiz-adv-x="681" d="M92 -311l8 10h78q86 0 125 33q27 27 27 221v1204q0 195 -27 221q-39 33 -125 33h-78l-8 10v54l12 12q0 -4 199 -4l199 4l18 -27q-18 -80 -18 -352v-1106q0 -272 18 -352l-18 -27q0 4 -199 4l-199 -4l-12 12v54z" />
<glyph unicode="^" horiz-adv-x="1241" d="M104 580l449 831h135l447 -831h-140l-374 692l-377 -692h-140z" />
<glyph unicode="_" d="M0 -154h1024v-102h-1024v102z" />
<glyph unicode="`" horiz-adv-x="681" d="M63 1317q0 29 18.5 49t45.5 20q45 0 113 -67l282 -283h-82l-295 185q-51 33 -66.5 51t-15.5 45z" />
<glyph unicode="a" d="M66 227q0 133 93 210t302 116l203 37q-4 139 -70 200.5t-209 61.5q-72 0 -99.5 -19.5t-58.5 -91.5l-26 -63l-54 14v133l109 66q115 70 248 70q178 0 250.5 -91.5t72.5 -316.5v-375q0 -76 10.5 -96.5t47.5 -22.5l80 -4v-61q-76 6 -152 6q-80 0 -160 -6l11 174l-254 -176 q-23 -16 -86 -17q-121 0 -189.5 66.5t-68.5 185.5zM242 256q0 -66 46 -115t107 -49q59 0 141 49t128 113v270q-242 -35 -320 -82q-102 -65 -102 -186z" />
<glyph unicode="b" horiz-adv-x="1132" d="M-31 1354v57q203 31 320 76l18 -17v-714l113 114q90 90 250 91q162 0 266 -115t104 -293q0 -113 -47 -224.5t-114 -160.5l-205 -148q-63 -45 -176 -45q-152 0 -265 74l-81 -74l-33 13q16 164 16 325v957q0 84 -51 84h-115zM307 190q0 -35 89 -72.5t169 -37.5 q131 0 214 108.5t83 280.5q0 164 -75.5 261t-204.5 97q-131 0 -222 -94q-53 -59 -53 -102v-441z" />
<glyph unicode="c" horiz-adv-x="909" d="M53 430q0 276 219 414q184 117 336 117q119 0 238 -72q-29 -115 -29 -252h-57l-15 125q-29 39 -93 65.5t-132 26.5q-137 0 -212 -89t-75 -253q0 -203 103.5 -324.5t273.5 -121.5q104 0 215 59l21 -31l-43 -65q-16 -23 -108.5 -46.5t-172.5 -23.5q-207 0 -338 132 t-131 339z" />
<glyph unicode="d" horiz-adv-x="1251" d="M72 442q0 131 52 234.5t140 150.5l180 95q76 39 156 39q90 0 244 -66v375q0 84 -51 84h-115v57q203 31 319 76l19 -17v-1261q0 -98 12 -122t64 -26l94 -6v-61q-92 6 -187 6q-78 0 -157 -6l10 188l-227 -190q-20 -16 -99 -17q-199 0 -299 86q-155 127 -155 381zM250 510 q0 -182 87 -300t222 -118q72 0 141.5 44t112.5 116q20 37 25.5 69.5t5.5 131.5v264q0 27 -68 71q-111 76 -231 76q-139 0 -217 -93t-78 -261z" />
<glyph unicode="e" horiz-adv-x="980" d="M53 449q0 160 55.5 262t180.5 174q129 76 248 76q172 0 276.5 -106.5t104.5 -283.5q0 -14 -5 -71q-180 -29 -370 -29h-299q6 -154 57 -244q92 -160 301 -159q66 0 116 18t150 78l27 -21l-41 -69q-16 -25 -106 -62q-121 -53 -236 -53t-214 45t-159 127q-86 117 -86 318z M248 553q133 -12 258 -12l229 6q0 166 -65 264q-55 82 -158 82q-74 0 -135.5 -39t-93.5 -106q-35 -70 -35 -195z" />
<glyph unicode="f" horiz-adv-x="681" d="M47 -6v61l94 6q51 2 63.5 26t12.5 122v579l-141 -8v45l141 64v86q0 197 86 295l119 135q76 86 182 86q35 0 94 -23v-157l-24 -13q-66 57 -142 58q-88 0 -115.5 -57.5t-27.5 -235.5v-174q147 0 268 8l-14 -109h-254v-579q0 -98 12.5 -122t63.5 -26l94 -6v-61 q-129 6 -256 6t-256 -6z" />
<glyph unicode="g" horiz-adv-x="1138" d="M66 -264q0 47 17 95t40 60l178 97q-74 20 -104.5 47.5t-30.5 70.5q0 41 31 89l161 124q-113 12 -179 85t-66 188q0 190 174 291q133 78 278 78q143 0 250 -87l291 9l8 -25l-51 -84h-189q23 -59 23 -110q0 -158 -137 -258q-139 -98 -281 -99q-8 0 -49 4q-12 -12 -24 -22 q-70 -59 -70 -94q0 -80 156 -80h327q106 0 174 -70t68 -180q0 -186 -161 -315.5t-392 -129.5q-195 0 -318.5 88.5t-123.5 227.5zM221 -260q0 -113 84 -184.5t217 -71.5q162 0 269.5 88t107.5 219q0 100 -68.5 140t-242.5 40q-184 0 -232 -20q-61 -29 -98 -85t-37 -126z M285 641q0 -119 63.5 -191.5t165.5 -72.5q94 0 152.5 62.5t58.5 162.5q0 131 -64.5 210t-168.5 79q-98 0 -152.5 -65.5t-54.5 -184.5z" />
<glyph unicode="h" horiz-adv-x="1191" d="M12 -6v61l92 6q51 2 63.5 26t12.5 122v1061q0 84 -51 84h-115v57q203 31 320 76l18 -17v-696l156 135q59 51 162 52q342 0 342 -357v-395q0 -98 12 -122t63 -26l84 -6v-61q-86 6 -170 6q-82 0 -161 -6v581q0 119 -62.5 190t-165.5 71q-94 0 -177 -61.5t-83 -131.5v-434 q0 -98 12.5 -122t63.5 -26l92 -6v-61q-127 6 -254 6t-254 -6z" />
<glyph unicode="i" horiz-adv-x="595" d="M43 -6v61l94 6q51 2 63.5 26t12.5 122v461q0 102 -14.5 125.5t-75.5 23.5h-76v58q160 18 320 84l18 -9v-743q0 -98 12.5 -122t63.5 -26l94 -6v-61q-129 6 -256 6t-256 -6zM197 1212q0 47 28.5 75t75.5 28q45 0 72.5 -29t27.5 -74t-28.5 -73.5t-73.5 -28.5t-73.5 28.5 t-28.5 73.5z" />
<glyph unicode="j" horiz-adv-x="479" d="M-82 -502q29 -6 62 -6q174 0 174 494v684q0 102 -14.5 125.5t-76.5 23.5h-75v58q160 18 319 84l19 -9v-991q0 -244 -109 -387q-57 -76 -120.5 -111.5t-153.5 -42.5zM137 1212q0 47 29 75t76 28q45 0 72.5 -29t27.5 -74t-27.5 -73.5t-74.5 -28.5t-75 28.5t-28 73.5z" />
<glyph unicode="k" horiz-adv-x="1138" d="M43 -6v61l94 6q51 2 63.5 26t12.5 122v1061q0 84 -51 84h-115v57q203 31 320 76l18 -17v-935l150 120q111 88 307 285h205v-61q-96 0 -222 -97l-264 -207q57 -68 131 -139l258 -256q102 -98 174 -98v-47l-196 -60l-543 517v-283q0 -98 12.5 -122t63.5 -26l90 -6v-61 q-125 6 -250 6q-129 0 -258 -6z" />
<glyph unicode="l" horiz-adv-x="595" d="M43 -6v61l94 6q51 2 63.5 26t12.5 122v1061q0 84 -51 84h-115v57q203 31 320 76l18 -17v-1261q0 -98 12.5 -122t63.5 -26l94 -6v-61q-129 6 -256 6t-256 -6z" />
<glyph unicode="m" horiz-adv-x="1808" d="M33 -6v61l94 6q51 2 63.5 26t12.5 122v461q0 102 -14.5 125.5t-75.5 23.5h-76v58q160 18 319 84l19 -9v-174l141 131q57 51 170 52q106 0 174 -44.5t117 -146.5l156 139q57 51 167 52q141 0 224.5 -89.5t83.5 -240.5v-422q0 -98 12 -122t63 -26l97 -6v-61q-92 6 -183 6 q-82 0 -161 -6v581q0 117 -51.5 189t-135.5 72q-92 0 -175 -61.5t-83 -131.5v-434q0 -98 12.5 -122t63.5 -26l94 -6v-61q-129 6 -256 6t-256 -6v61l94 6q51 2 63.5 26t12.5 122v366q0 117 -51 189t-135 72q-92 0 -175 -61.5t-83 -131.5v-434q0 -98 12 -122t64 -26l86 -6v-61 q-123 6 -244 6q-131 0 -260 -6z" />
<glyph unicode="n" horiz-adv-x="1191" d="M12 -6v61l92 6q51 2 63.5 26t12.5 122v461q0 102 -14 125.5t-76 23.5h-76v58q160 18 320 84l18 -9v-178l156 135q59 51 162 52q342 0 342 -357v-395q0 -98 12 -122t63 -26l84 -6v-61q-86 6 -170 6q-82 0 -161 -6v581q0 119 -62.5 190t-165.5 71q-94 0 -177 -61.5 t-83 -131.5v-434q0 -98 12.5 -122t63.5 -26l92 -6v-61q-127 6 -254 6t-254 -6z" />
<glyph unicode="o" horiz-adv-x="1118" d="M66 444q0 229 140 373t365 144q211 0 346.5 -134.5t135.5 -341.5q0 -229 -151.5 -377.5t-389.5 -148.5q-199 0 -322.5 134t-123.5 351zM256 514q0 -219 93 -353t243 -134q125 0 197.5 103t72.5 280q0 209 -93 346t-234 137q-135 0 -207 -97.5t-72 -281.5z" />
<glyph unicode="p" horiz-adv-x="1230" d="M16 -514l95 6q51 2 63 25.5t12 122.5v1030q0 102 -14 125.5t-76 23.5h-76v58q160 18 320 84l18 -9v-196l168 153q55 51 183 52q178 0 302 -118t124 -288q0 -98 -58.5 -226t-120.5 -169l-233 -152q-53 -33 -145 -33q-133 0 -220 52v-387q0 -98 12.5 -122t63.5 -26l94 -6 v-61q-129 6 -256 6t-256 -6v61zM358 201q115 -121 277 -121q139 0 230 113.5t91 285.5q0 160 -85 254t-230 94q-156 0 -246 -114q-37 -49 -37 -86v-426z" />
<glyph unicode="q" horiz-adv-x="1146" d="M72 418q0 270 198 397l172 111q57 35 162 35q131 0 281 -68l100 63l39 -22q-47 -104 -47 -283v-1011q0 -98 12 -122t64 -26l94 -6v-61q-127 6 -252 6q-143 0 -285 -6v61l119 6q51 4 63.5 27.5t12.5 120.5v495l-213 -135q-39 -25 -105 -25q-190 0 -302.5 121t-112.5 322z M250 508q0 -186 85 -301t220 -115q70 0 145 41q41 23 73 56.5t32 56.5v534q-100 84 -244 84q-147 0 -229 -94t-82 -262z" />
<glyph unicode="r" horiz-adv-x="808" d="M43 -6v61l94 6q51 2 63.5 26t12.5 122v461q0 102 -14.5 125.5t-75.5 23.5h-76v58q160 18 320 84l18 -9v-211l115 136q70 84 170 84q61 0 96 -23l-18 -246h-43q-47 94 -138 94q-76 0 -129 -66.5t-53 -158.5v-352q0 -100 13.5 -121.5t82.5 -26.5l107 -6v-61q-147 6 -293 6 q-127 0 -252 -6z" />
<glyph unicode="s" horiz-adv-x="868" d="M61 8q23 113 23 285h61v-84q0 -76 72 -125t184 -49q109 0 178.5 53t69.5 135q0 113 -131 142q-209 45 -303 88q-139 63 -139 211q0 137 102.5 217t280.5 80q115 0 266 -52q-8 -78 -10 -231h-58v47q0 72 -69.5 120t-171.5 48q-94 0 -145.5 -42t-51.5 -118q0 -70 48 -106.5 t175 -61.5q137 -27 200 -49t101 -61q57 -57 58 -152q0 -152 -129 -248t-330 -96q-131 0 -281 49z" />
<glyph unicode="t" horiz-adv-x="667" d="M45 774v43l160 72v143q0 80 -8 162q102 33 174 78l24 -23q-23 -180 -22 -291v-77l280 12l-18 -111h-262v-536q0 -76 26.5 -109t85.5 -33q51 0 121 39l27 -34l-98 -109q-20 -25 -109 -25q-119 0 -172 51.5t-53 166.5v589z" />
<glyph unicode="u" horiz-adv-x="1234" d="M37 819v58q160 18 319 84l19 -9v-604q0 -137 43 -186q51 -61 162 -62q117 0 202 86q76 76 76 150v334q0 102 -14.5 125.5t-75.5 23.5h-76v58q160 18 320 84l18 -9v-743q0 -98 12.5 -122t63.5 -26l84 -6v-61q-86 6 -170 6t-170 -6q8 129 8 188l-137 -127q-86 -80 -229 -80 q-172 0 -240 93q-49 68 -49 258v344q0 102 -14.5 125.5t-75.5 23.5h-76z" />
<glyph unicode="v" horiz-adv-x="1157" d="M12 883v57q119 -6 238 -6t239 6v-57l-100 -4q-49 -1 -49 -48q0 -27 16 -69l244 -590l127 287l86 217q41 100 41 148q0 53 -51 55l-84 4v57q96 -6 192.5 -6t192.5 6v-57l-64 -4q-31 -2 -55 -31t-59 -107l-242 -532q-74 -166 -84 -223h-102l-353 825q-8 20 -11 25.5 t-9 17.5t-11 14t-13.5 6.5t-18.5 4.5z" />
<glyph unicode="w" horiz-adv-x="1708" d="M12 883v57q123 -6 244 -6t244 6v-57l-82 -4q-55 -2 -71 -29q-7 -13 -7 -30q0 -18 8 -42l172 -565l326 748h47q23 -78 59 -166l236 -594l98 254l103 286q13 38 13 66q0 67 -79 72l-70 4v57q102 -6 200.5 -6t201.5 6v-57l-53 -4q-35 -4 -63 -39t-69 -140l-280 -714h-94 l-279 700l-106 -229l-201 -471h-96l-209 688q-37 123 -64.5 161.5t-70.5 43.5z" />
<glyph unicode="x" horiz-adv-x="1056" d="M41 0v55h35q37 0 61 31l305 360l-245 357q-37 51 -103 59l-43 4l-10 54l238 41q84 -84 122 -142l156 -237l254 358h168v-57h-29q-51 0 -69 -23l-291 -340l303 -409q33 -45 72 -50l51 -6v-61q-66 6 -127 6q-63 0 -125 -6l-272 399l-152 -200q-68 -90 -94 -142l-29 -51 h-176z" />
<glyph unicode="y" horiz-adv-x="1138" d="M25 883v57q121 -6 237.5 -6t237.5 6v-57l-78 -4q-57 -2 -68 -34q-3 -8 -2 -19q0 -30 21 -81l131 -344q53 -135 104 -225l244 598q13 33 13 54q0 15 -6 24q-15 23 -81 27l-53 4v57q98 -6 194.5 -6t194.5 6v-57l-57 -4q-39 -2 -75 -54.5t-97 -193.5l-416 -959 q-59 -133 -130 -192.5t-173 -59.5q-51 0 -111 31l49 154h27q53 -47 105 -47q121 0 223 268l47 125l-338 827q-20 53 -44 74.5t-63 26.5z" />
<glyph unicode="z" d="M33 35l532 649q70 84 133 184h-292q-113 0 -152 -10t-45 -43l-25 -139h-61q14 164 18 270q256 -6 508 -6q141 0 283 6v-61l-643 -813h276q279 0 291 51l37 162h61l-12 -97q-18 -147 -18 -194q-283 6 -566 6q-158 0 -313 -6z" />
<glyph unicode="{" horiz-adv-x="681" d="M119 559q90 31 122.5 82t32.5 162v381q0 180 84 250q63 51 234 53q-96 -33 -133 -90.5t-37 -177.5v-381q0 -135 -35 -191.5t-137 -87.5q104 -33 138 -90t34 -207v-354q0 -121 38 -180.5t132 -85.5q-178 2 -240 55q-78 70 -78 268v344q0 123 -29.5 171t-125.5 79z" />
<glyph unicode="|" horiz-adv-x="1241" d="M563 -377v1864h115v-1864h-115z" />
<glyph unicode="}" horiz-adv-x="681" d="M90 -358q94 27 132 86t38 180v354q0 150 34 207t138 90q-102 31 -137 87t-35 192v381q0 121 -37 178t-133 90q176 -2 240 -57q78 -63 78 -246v-381q0 -111 32.5 -162t122.5 -82q-96 -31 -125.5 -79t-29.5 -171v-344q0 -203 -84 -272q-64 -49 -234 -51z" />
<glyph unicode="~" horiz-adv-x="1241" d="M104 428q76 133 141.5 189.5t143.5 56.5q80 0 262 -80q154 -68 201 -68q119 0 215 172l70 -55q-127 -231 -283 -231q-68 0 -266 84q-98 41 -129 51t-68 10q-61 0 -108 -40t-109 -144z" />
<glyph unicode="&#xa1;" horiz-adv-x="569" d="M166 811q0 47 37 83t86 36q45 0 79.5 -36t34.5 -83t-35.5 -83t-80.5 -36q-47 0 -84 36t-37 83zM172 -451q0 78 14 195l60 668v51l57 47l21 -10l4 -82l67 -842l-153 -78h-70v51z" />
<glyph unicode="&#xa2;" d="M125 455q0 293 209 397l164 82q57 29 168 29l55 188h82l-55 -188q80 -2 163 -54q-23 -137 -22 -266h-58l-18 135q-33 37 -102 64l-217 -723q84 -45 174 -45t231 57l19 -22l-41 -68q-147 -70 -297 -70q-63 0 -127 11l-58 -189h-84l66 213q-113 59 -172 146 q-80 119 -80 303zM307 514q0 -102 29 -195q25 -80 90 -147l207 686q-63 10 -80 10q-117 0 -181.5 -93t-64.5 -261z" />
<glyph unicode="&#xa3;" d="M25 -27v101q29 29 77 55q23 10 31 17.5t19 29.5q70 139 69 410v61l-196 -6l16 92l180 -6v217q0 197 203 344q186 133 354 133q111 0 201 -53q-20 -102 -21 -209q0 -39 3 -69h-68q-2 88 -13.5 129t-41.5 65q-53 41 -146 41q-176 0 -250 -151q-49 -104 -49 -267v-182 l373 12l-8 -98l-371 10q-14 -252 -192 -508q141 18 272 15l321 -13q10 0 26.5 -1t21.5 -1q29 0 41 15.5t18 60.5l14 107h54v-304q-51 -41 -103 -40q-184 0 -366 38q-156 37 -332 48l-92 -93h-45z" />
<glyph unicode="&#xa4;" d="M61 289l101 100q-86 109 -86 252q0 152 86 250l-101 100l97 96l98 -98q111 84 256 84q141 0 256 -84l98 98l97 -96l-101 -100q86 -98 86 -250q0 -143 -86 -252l101 -100l-93 -92l-98 98q-109 -86 -260 -86q-154 0 -260 86l-98 -98zM197 641q0 -129 92 -220t223 -91 t223 91t92 222q0 127 -94 218t-225 91q-127 0 -219 -92t-92 -219z" />
<glyph unicode="&#xa5;" d="M10 1331v60l189 43q6 2 20 2q39 0 64.5 -33t58.5 -123q4 -14 8 -25l6 -15q2 -5 2 -7l213 -535l144 334l157 389h144v-30q-131 -182 -266 -469l-66 -140h250v-80h-285q-35 -78 -35 -133v-65h320v-80h-320v-178q0 -121 14.5 -150.5t76.5 -34.5l83 -6v-61q-133 6 -266 6 q-115 0 -231 -6v61l84 6q61 4 75.5 34t14.5 151v178h-320v80h320v33q0 35 -12 63l-43 102h-265v80h228l-154 328q-66 141 -106 182t-103 39z" />
<glyph unicode="&#xa6;" horiz-adv-x="1241" d="M563 369h115v-746h-115v746zM563 741v746h115v-746h-115z" />
<glyph unicode="&#xa7;" d="M53 498q0 160 170 284q-119 88 -119 211q0 186 141.5 322.5t334.5 136.5q139 0 272 -74q-20 -150 -27 -311h-63l-10 178q-117 100 -248 101q-123 0 -202 -69t-79 -177q0 -90 84 -148q68 -45 281 -112q205 -66 284.5 -136.5t79.5 -185.5q0 -154 -159 -291 q123 -68 122 -213q0 -176 -155.5 -319.5t-347.5 -143.5q-160 0 -322 91q18 178 25 321h65l10 -184q63 -68 126 -94.5t157 -26.5q143 0 228 66.5t85 179.5q0 102 -94 170q-57 41 -272 110q-123 39 -183.5 69t-109.5 73q-74 63 -74 172zM188 578q0 -82 86 -141.5t301 -123.5 q113 -35 173 -61q70 109 69 184q0 98 -94 158q-74 45 -262 100q-104 31 -185 62q-88 -80 -88 -178z" />
<glyph unicode="&#xa8;" horiz-adv-x="681" d="M35 1212q0 47 28.5 75t75.5 28q45 0 73 -29t28 -74t-28 -73.5t-75 -28.5t-74.5 28.5t-27.5 73.5zM442 1212q0 47 29 75t76 28q45 0 72.5 -29t27.5 -74t-28.5 -73.5t-73.5 -28.5t-74 28.5t-29 73.5z" />
<glyph unicode="&#xa9;" horiz-adv-x="1529" d="M63 664q0 293 206 498.5t497 205.5t497.5 -207t206.5 -497.5t-205.5 -496.5t-498.5 -206q-291 0 -497 206t-206 497zM145 664q0 -258 181.5 -439.5t439.5 -181.5t440.5 181.5t182.5 439.5t-182.5 440t-440.5 182t-439.5 -182t-181.5 -440zM362 659q0 227 216 345 q127 68 294 67q135 0 289 -47q-23 -94 -24 -182h-54v88q0 31 -72.5 54.5t-158.5 23.5q-150 0 -241 -90.5t-91 -235.5q0 -158 103.5 -254t275.5 -96q139 0 250 67l20 -20l-39 -64q-127 -61 -278 -61q-219 0 -354.5 112.5t-135.5 292.5z" />
<glyph unicode="&#xaa;" horiz-adv-x="681" d="M49 739v70h586v-70h-586zM49 1010q0 82 62.5 129t195.5 69l131 21q-2 84 -44 120.5t-136 36.5q-43 0 -58.5 -7t-31.5 -36l-6 -10l-6 -12l-19 -39l-35 8v80l72 41q72 41 156 41q133 0 188 -80q27 -41 27 -164v-209q0 -59 8 -74.5t41 -15.5h41v-37q-8 0 -27.5 1t-23.5 4 q-25 2 -49 2l-56 -2l-35 -3l-12 -2l6 105l-166 -107q-43 -6 -65 -6q-72 0 -115 39t-43 107zM164 1030q0 -41 29.5 -68.5t72.5 -27.5q29 0 69 16.5t60 36.5l43 41v162q-152 -18 -213 -54t-61 -106z" />
<glyph unicode="&#xab;" d="M102 496v24l361 357l47 -27l-244 -342l244 -332l-47 -31zM514 496v24l360 357l48 -27l-244 -342l244 -332l-48 -31z" />
<glyph unicode="&#xac;" horiz-adv-x="1241" d="M82 633v115h1077v-412h-115v295z" />
<glyph unicode="&#xad;" horiz-adv-x="681" d="M35 451l55 137h539l10 -10l-61 -138h-533z" />
<glyph unicode="&#xae;" horiz-adv-x="1529" d="M63 664q0 293 206 498.5t497 205.5t497.5 -207t206.5 -497.5t-205.5 -496.5t-498.5 -206q-291 0 -497 206t-206 497zM145 664q0 -258 181.5 -439.5t439.5 -181.5t440.5 181.5t182.5 439.5t-182.5 440t-440.5 182t-439.5 -182t-181.5 -440zM371 270v54l63 2q47 6 47 90 v493q0 88 -47 90l-53 5v51q70 -4 213 -4q37 0 108.5 2t106.5 2q102 0 176 -47t74 -127q0 -98 -107 -168q-53 -33 -123 -49l267 -316q16 -20 65 -24v-54q-47 6 -92 6t-88 -6l-328 400v30h43q86 0 149.5 43t63.5 113q0 61 -53 99t-127 38q-49 0 -104 -10v-567q0 -84 47 -90 l61 -2v-54q-90 6 -180 6t-182 -6z" />
<glyph unicode="&#xaf;" horiz-adv-x="681" d="M23 1159v109h639v-109h-639z" />
<glyph unicode="&#xb0;" horiz-adv-x="819" d="M102 1104q0 127 89.5 217t216.5 90q129 0 219 -91t90 -220q0 -123 -91 -213t-216 -90q-127 0 -217.5 90t-90.5 217zM184 1104q0 -94 65.5 -159.5t160.5 -65.5q92 0 158.5 65.5t66.5 155.5q0 94 -66.5 161.5t-160.5 67.5q-92 0 -158 -65.5t-66 -159.5z" />
<glyph unicode="&#xb1;" horiz-adv-x="1241" d="M82 0v115h1077v-115h-1077zM82 569v115h481v481h115v-481h481v-115h-481v-352h-115v352h-481z" />
<glyph unicode="&#xb2;" horiz-adv-x="614" d="M12 555v41l211 221q102 106 145.5 180t43.5 142q0 74 -45 116.5t-121 42.5q-111 0 -140 -94l-18 -61h-49l22 174q88 88 218 88q119 0 188.5 -62.5t69.5 -168.5q0 -70 -34 -131.5t-124 -155.5l-213 -221l416 12l-2 -14q-2 -12 -2 -47t2 -48l2 -14l-289 4z" />
<glyph unicode="&#xb3;" horiz-adv-x="614" d="M10 756l45 16q27 -72 51 -104q57 -70 160 -70q82 0 132.5 53.5t50.5 143.5q0 80 -41 124t-115 44q-45 0 -105 -27l-14 12l16 74q12 0 26.5 -1t23 -2t14.5 -1q61 0 106.5 47t45.5 113q0 53 -40 93t-98 40q-47 0 -92 -24.5t-55 -53.5l-25 -72h-51l37 160q90 84 205 84 q104 0 168.5 -51t64.5 -133q0 -100 -125 -199q180 -37 180 -186q0 -115 -108.5 -208t-239.5 -93q-59 0 -157 28l-15 4q-8 76 -45 189z" />
<glyph unicode="&#xb4;" horiz-adv-x="681" d="M160 1036l282 283q68 68 113 67q27 0 45 -20t18 -49q0 -27 -15 -45.5t-66 -50.5l-295 -185h-82z" />
<glyph unicode="&#xb5;" horiz-adv-x="1234" d="M37 819v58q160 18 319 84l19 -9v-604q0 -137 43 -186q51 -61 162 -62q117 0 202 86q76 76 76 150v334q0 102 -14.5 125.5t-75.5 23.5h-76v58q160 18 320 84l18 -9v-743q0 -98 12.5 -122t63.5 -26l84 -6v-61q-86 6 -172 6q-84 0 -168 -6q8 129 8 188l-137 -127 q-90 -80 -232 -80q-94 0 -182 41l41 -403v-6q0 -20 -51 -52t-94 -38v1153q0 102 -14.5 125.5t-75.5 23.5h-76z" />
<glyph unicode="&#xb6;" horiz-adv-x="1286" d="M80 1110q0 139 102.5 229.5t261.5 83.5l121 -4l297 -8q162 0 344 10v-61l-65 -6q-80 -8 -104.5 -42t-24.5 -136v-1231q0 -113 19.5 -147t88.5 -38l86 -6v-61l-413 6l-414 -6v61l86 6q70 4 89 38t19 147v762q-205 14 -340 116q-153 117 -153 287zM307 1077.5 q0 -114.5 68.5 -190.5t197.5 -105v559q-12 2 -30 2q-102 0 -169 -75.5t-67 -190zM723 -246h139v1587h-139v-1587z" />
<glyph unicode="&#xb7;" horiz-adv-x="512" d="M137 512q0 49 35 84t84 35t84 -35t35 -84t-35 -84t-84 -35t-84 35t-35 84z" />
<glyph unicode="&#xb8;" horiz-adv-x="681" d="M197 -428l28 63q82 -23 133 -22q111 0 111 88q0 35 -22.5 57.5t-59.5 22.5q-29 0 -84 -14l-14 12l86 241h69l-51 -174q27 8 56 9q80 0 127 -39t47 -105q0 -80 -69 -126t-185 -46q-63 0 -172 33z" />
<glyph unicode="&#xb9;" horiz-adv-x="614" d="M66 1292q164 57 286 119l25 -8v-721q0 -45 13 -58.5t61 -15.5l69 -4v-49q-131 4 -201 4l-208 -4v49l75 4q47 2 60.5 15.5t13.5 58.5v586q0 25 -4 32l-160 -71h-20z" />
<glyph unicode="&#xba;" horiz-adv-x="681" d="M20 727v70h642v-70h-642zM20 1143q0 137 92.5 223t241.5 86q135 0 221.5 -82t86.5 -209q0 -129 -98.5 -219t-241.5 -90q-135 0 -218.5 80t-83.5 211zM143 1186q0 -129 58.5 -211t152.5 -82q84 0 134.5 64.5t50.5 170.5q0 121 -61.5 202t-151.5 81q-88 0 -135.5 -58 t-47.5 -167z" />
<glyph unicode="&#xbb;" d="M102 176l244 332l-244 342l48 27l360 -357v-24l-360 -351zM514 176l244 332l-244 342l47 27l361 -357v-24l-361 -351z" />
<glyph unicode="&#xbc;" horiz-adv-x="1536" d="M61 1298l330 119l21 -6q-16 -246 -17 -418v-217q0 -104 15.5 -134t70.5 -30h68v-53q-227 6 -229.5 6t-217.5 -6v53h74q55 0 71.5 31t16.5 133v488q0 37 -10 39h-6l-164 -70h-14zM319 0l924 1411h107l-924 -1411h-107zM854 250q39 80 55 102l324 467l100 33l19 -6 q-10 -184 -11 -375v-158h35h4q31 -4 109 4v-104q-55 6 -143 6v-74q0 -100 90 -100h43v-51q0 6 -205 6l-219 -6v51h43q68 0 94.5 21.5t26.5 78.5v74h-355zM954 313h265v394z" />
<glyph unicode="&#xbd;" horiz-adv-x="1536" d="M31 1298l329 119l21 -6q-16 -246 -16 -418v-217q0 -104 15 -134t71 -30h67v-53q-227 6 -229 6t-217 -6v53h73q55 0 71.5 31t16.5 133v488q0 37 -10 39h-6l-164 -70h-14zM250 0l924 1411h106l-924 -1411h-106zM889 -6v41l221 213q113 109 159 182.5t46 144.5q0 82 -45 126 t-129 44q-109 0 -146 -96l-26 -71h-49l24 182q92 86 227 86q127 0 205 -63.5t78 -166.5q0 -135 -156 -284l-235 -223h250q104 0 192 10q-4 -33 -4 -68q0 -33 4 -57q0 6 -321 6z" />
<glyph unicode="&#xbe;" horiz-adv-x="1536" d="M31 770l63 16q33 -94 83 -135t134 -41q88 0 141.5 52.5t53.5 138.5q0 164 -174 164q-55 0 -101 -27l-20 8l20 88q33 0 37 -2h29q66 0 115 47t49 109q0 53 -44 91t-108 38q-66 0 -111.5 -36t-62.5 -97h-51l39 145q88 82 213 82q113 0 180.5 -50t67.5 -132q0 -53 -34 -99.5 t-114 -103.5q109 -16 157 -60t48 -126q0 -119 -107.5 -207t-252.5 -88q-80 0 -197 33q-4 39 -35 133zM338 0l924 1411h106l-924 -1411h-106zM870 250q39 80 56 102l323 467l101 33l18 -6q-10 -184 -10 -375v-158h35h4q31 -4 108 4v-104q-55 6 -143 6v-74q0 -100 90 -100h43 v-51q0 6 -205 6l-219 -6v51h43q68 0 94.5 21.5t26.5 78.5v74h-354zM971 313h264v394z" />
<glyph unicode="&#xbf;" horiz-adv-x="909" d="M100 -186q0 88 47.5 161.5t178.5 194.5q125 113 158.5 157t33.5 95q0 45 -45 98l43 29q90 -57 90 -150q0 -53 -31.5 -106t-125.5 -156q-90 -100 -124 -159.5t-34 -120.5q0 -98 70.5 -161t181.5 -63q143 0 178 86l41 99l59 -17l-78 -231q-145 -72 -270 -72 q-158 0 -265.5 91.5t-107.5 224.5zM383 811q0 47 37 83t86 36q45 0 80 -36t35 -83t-36 -83t-81 -36q-47 0 -84 36t-37 83z" />
<glyph unicode="&#xc0;" horiz-adv-x="1593" d="M31 -6v61l75 6q68 6 111 101l453 1028l100 244h66l495 -1164q55 -129 82 -168t66 -41l69 -6v-61q-129 6 -260 6q-143 0 -284 -6v61l96 6q84 6 84 41q0 25 -43 131l-94 236h-590l-58 -137q-72 -170 -71 -217q0 -45 98 -54l76 -6v-61q-123 6 -248 6q-112 0 -223 -6z M492 551h518l-258 610zM522 1763.5q0 22.5 19.5 39t48.5 16.5q55 -4 123 -54l305 -231h-88l-320 149q-53 27 -70.5 42.5t-17.5 38z" />
<glyph unicode="&#xc1;" horiz-adv-x="1593" d="M31 -6v61l75 6q68 6 111 101l453 1028l100 244h66l495 -1164q55 -129 82 -168t66 -41l69 -6v-61q-129 6 -260 6q-143 0 -284 -6v61l96 6q84 6 84 41q0 25 -43 131l-94 236h-590l-58 -137q-72 -170 -71 -217q0 -45 98 -54l76 -6v-61q-123 6 -248 6q-112 0 -223 -6z M492 551h518l-258 610zM588 1534l305 231q68 49 123 54q29 0 48 -16.5t19 -39t-17 -38t-71 -42.5l-319 -149h-88z" />
<glyph unicode="&#xc2;" horiz-adv-x="1593" d="M31 -6v61l75 6q68 6 111 101l453 1028l100 244h66l495 -1164q55 -129 82 -168t66 -41l69 -6v-61q-129 6 -260 6q-143 0 -284 -6v61l96 6q84 6 84 41q0 25 -43 131l-94 236h-590l-58 -137q-72 -170 -71 -217q0 -45 98 -54l76 -6v-61q-123 6 -248 6q-112 0 -223 -6z M457 1540l274 277h139l277 -277h-78l-268 172l-269 -172h-75zM492 551h518l-258 610z" />
<glyph unicode="&#xc3;" horiz-adv-x="1593" d="M31 -6v61l75 6q68 6 111 101l453 1028l100 244h66l495 -1164q55 -129 82 -168t66 -41l69 -6v-61q-129 6 -260 6q-143 0 -284 -6v61l96 6q84 6 84 41q0 25 -43 131l-94 236h-590l-58 -137q-72 -170 -71 -217q0 -45 98 -54l76 -6v-61q-123 6 -248 6q-112 0 -223 -6z M467 1571q45 205 217 205q57 0 182 -62q68 -31 97 -31q80 0 120 103h60q-6 -90 -70.5 -152.5t-152.5 -62.5q-61 0 -140 39q-109 53 -145 53q-70 0 -109 -92h-59zM492 551h518l-258 610z" />
<glyph unicode="&#xc4;" horiz-adv-x="1593" d="M31 -6v61l75 6q68 6 111 101l453 1028l100 244h66l495 -1164q55 -129 82 -168t66 -41l69 -6v-61q-129 6 -260 6q-143 0 -284 -6v61l96 6q84 6 84 41q0 25 -43 131l-94 236h-590l-58 -137q-72 -170 -71 -217q0 -45 98 -54l76 -6v-61q-123 6 -248 6q-112 0 -223 -6z M492 551h518l-258 610zM498 1677q0 47 28.5 75t75.5 28q45 0 72.5 -29t27.5 -74q0 -47 -27.5 -74.5t-74.5 -27.5t-74.5 27.5t-27.5 74.5zM905 1677q0 47 29 75t76 28q45 0 72.5 -29t27.5 -74q0 -47 -28.5 -74.5t-73.5 -27.5t-74 27.5t-29 74.5z" />
<glyph unicode="&#xc5;" horiz-adv-x="1593" d="M31 -6v61l75 6q68 6 111 101l453 1028l100 244h66l495 -1164q55 -129 82 -168t66 -41l69 -6v-61q-129 6 -260 6q-143 0 -284 -6v61l96 6q84 6 84 41q0 25 -43 131l-94 236h-590l-58 -137q-72 -170 -71 -217q0 -45 98 -54l76 -6v-61q-123 6 -248 6q-112 0 -223 -6z M492 551h518l-258 610zM600 1720q0 84 60.5 143.5t148.5 59.5q82 0 141.5 -60.5t59.5 -144.5q0 -86 -60.5 -145.5t-144.5 -59.5q-86 0 -145.5 59.5t-59.5 147.5zM678 1720q0 -61 33.5 -97t93.5 -36q57 0 92 36t35 95q0 57 -35 94t-90 37q-57 0 -93 -36t-36 -93z" />
<glyph unicode="&#xc6;" horiz-adv-x="1933" d="M-20 -6v61l69 11q47 6 107 112l592 1049q39 68 38 96q0 18 -110 27l-90 6v61q264 -6 526 -6q233 0 463 6l252 -6q-33 -131 -33 -311h-72v133q0 35 -9 47t-46 23q-115 29 -297 28q-168 0 -240 -16v-547q121 -8 324 -8q76 0 109.5 14t38.5 64l10 106h61q-6 -119 -6 -237 q0 -113 6 -228h-61l-10 121q-4 47 -38 61.5t-112 14.5l-322 -6v-574q80 -16 203 -16q303 0 377 24q49 16 78 232h72q-33 -170 -33 -336l-344 -6q-252 6 -506 6q-72 0 -141 -6v47l57 33q53 31 53 172v250q-127 6 -252 6t-248 -6l-131 -234q-57 -102 -57 -141q0 -49 109 -60 l73 -6v-61q-100 6 -200 6q-131 0 -260 -6zM496 580h450v761h-24z" />
<glyph unicode="&#xc7;" horiz-adv-x="1452" d="M45 700q0 422 356 629q215 123 486 123q215 0 473 -84q-37 -170 -39 -311h-64v147q0 59 -128 110.5t-279 51.5q-266 0 -426 -171t-160 -456q0 -303 182.5 -486t483.5 -183q233 0 424 123l18 -21l-57 -102q-213 -111 -465 -111h-29l-43 -113q27 8 53 9q82 0 129.5 -39 t47.5 -105q0 -80 -68 -126t-186 -46q-70 0 -172 33l28 63q80 -23 135 -22q109 0 109 88q0 35 -22.5 57.5t-59.5 22.5q-29 0 -84 -14l-14 12l80 184q-334 37 -521.5 231.5t-187.5 505.5z" />
<glyph unicode="&#xc8;" horiz-adv-x="1251" d="M45 1356v61q182 -6 365 -6q238 0 475 6l254 -6q-33 -131 -33 -311h-72v133q0 35 -9 47t-46 23q-102 29 -297 28q-168 0 -240 -16v-547q121 -8 328 -8q72 0 101.5 14t41.5 64l11 106h61q-6 -121 -6 -237q0 -113 6 -228h-61l-11 121q-10 47 -39.5 61.5t-103.5 14.5l-328 -6 v-574q80 -16 203 -16q303 0 377 24q47 16 68 162l10 70h71q-33 -170 -32 -336l-342 -6q-236 6 -475 6q-125 0 -252 -6v61l73 6q72 6 88.5 35t16.5 150v919q0 121 -16.5 151t-88.5 34zM344 1763.5q0 22.5 19.5 39t48.5 16.5q55 -4 123 -54l305 -231h-88l-320 149 q-53 27 -70.5 42.5t-17.5 38z" />
<glyph unicode="&#xc9;" horiz-adv-x="1251" d="M45 1356v61q182 -6 365 -6q238 0 475 6l254 -6q-33 -131 -33 -311h-72v133q0 35 -9 47t-46 23q-102 29 -297 28q-168 0 -240 -16v-547q121 -8 328 -8q72 0 101.5 14t41.5 64l11 106h61q-6 -121 -6 -237q0 -113 6 -228h-61l-11 121q-10 47 -39.5 61.5t-103.5 14.5l-328 -6 v-574q80 -16 203 -16q303 0 377 24q47 16 68 162l10 70h71q-33 -170 -32 -336l-342 -6q-236 6 -475 6q-125 0 -252 -6v61l73 6q72 6 88.5 35t16.5 150v919q0 121 -16.5 151t-88.5 34zM412 1534l305 231q68 49 123 54q29 0 48 -16.5t19 -39t-17.5 -38t-70.5 -42.5l-319 -149 h-88z" />
<glyph unicode="&#xca;" horiz-adv-x="1251" d="M45 1356v61q182 -6 365 -6q238 0 475 6l254 -6q-33 -131 -33 -311h-72v133q0 35 -9 47t-46 23q-102 29 -297 28q-168 0 -240 -16v-547q121 -8 328 -8q72 0 101.5 14t41.5 64l11 106h61q-6 -121 -6 -237q0 -113 6 -228h-61l-11 121q-10 47 -39.5 61.5t-103.5 14.5l-328 -6 v-574q80 -16 203 -16q303 0 377 24q47 16 68 162l10 70h71q-33 -170 -32 -336l-342 -6q-236 6 -475 6q-125 0 -252 -6v61l73 6q72 6 88.5 35t16.5 150v919q0 121 -16.5 151t-88.5 34zM281 1540l274 277h139l277 -277h-78l-268 172l-269 -172h-75z" />
<glyph unicode="&#xcb;" horiz-adv-x="1251" d="M45 1356v61q182 -6 365 -6q238 0 475 6l254 -6q-33 -131 -33 -311h-72v133q0 35 -9 47t-46 23q-102 29 -297 28q-168 0 -240 -16v-547q121 -8 328 -8q72 0 101.5 14t41.5 64l11 106h61q-6 -121 -6 -237q0 -113 6 -228h-61l-11 121q-10 47 -39.5 61.5t-103.5 14.5l-328 -6 v-574q80 -16 203 -16q303 0 377 24q47 16 68 162l10 70h71q-33 -170 -32 -336l-342 -6q-236 6 -475 6q-125 0 -252 -6v61l73 6q72 6 88.5 35t16.5 150v919q0 121 -16.5 151t-88.5 34zM319 1677q0 47 29 75t76 28q45 0 72.5 -29t27.5 -74q0 -47 -28.5 -74.5t-73.5 -27.5 t-74 27.5t-29 74.5zM727 1677q0 47 28.5 75t75.5 28q45 0 73 -29t28 -74q0 -47 -27.5 -74.5t-75 -27.5t-75 27.5t-27.5 74.5z" />
<glyph unicode="&#xcc;" horiz-adv-x="690" d="M45 -6v61l98 6q72 4 88.5 34t16.5 151v919q0 121 -16.5 151t-88.5 34l-98 6v61q150 -6 299 -6q152 0 301 6v-61l-98 -6q-72 -4 -88.5 -34t-16.5 -151v-919q0 -121 16.5 -150.5t88.5 -34.5l98 -6v-61q-150 6 -301 6q-147 0 -299 -6zM66 1763.5q0 22.5 19 39t48 16.5 q55 -4 123 -54l305 -231h-88l-319 149q-53 27 -70.5 42.5t-17.5 38z" />
<glyph unicode="&#xcd;" horiz-adv-x="690" d="M45 -6v61l98 6q72 4 88.5 34t16.5 151v919q0 121 -16.5 151t-88.5 34l-98 6v61q150 -6 299 -6q152 0 301 6v-61l-98 -6q-72 -4 -88.5 -34t-16.5 -151v-919q0 -121 16.5 -150.5t88.5 -34.5l98 -6v-61q-150 6 -301 6q-147 0 -299 -6zM131 1534l305 231q68 49 123 54 q29 0 48.5 -16.5t19.5 -39t-17.5 -38t-70.5 -42.5l-320 -149h-88z" />
<glyph unicode="&#xce;" horiz-adv-x="690" d="M0 1540l274 277h140l276 -277h-78l-268 172l-268 -172h-76zM45 -6v61l98 6q72 4 88.5 34t16.5 151v919q0 121 -16.5 151t-88.5 34l-98 6v61q150 -6 299 -6q152 0 301 6v-61l-98 -6q-72 -4 -88.5 -34t-16.5 -151v-919q0 -121 16.5 -150.5t88.5 -34.5l98 -6v-61 q-150 6 -301 6q-147 0 -299 -6z" />
<glyph unicode="&#xcf;" horiz-adv-x="690" d="M41 1677q0 47 28.5 75t75.5 28q45 0 73 -29t28 -74q0 -47 -29 -74.5t-74 -27.5t-73.5 27.5t-28.5 74.5zM45 -6v61l98 6q72 4 88.5 34t16.5 151v919q0 121 -16.5 151t-88.5 34l-98 6v61q150 -6 299 -6q152 0 301 6v-61l-98 -6q-72 -4 -88.5 -34t-16.5 -151v-919 q0 -121 16.5 -150.5t88.5 -34.5l98 -6v-61q-150 6 -301 6q-147 0 -299 -6zM449 1677q0 47 28.5 75t75.5 28q45 0 72.5 -29t27.5 -74q0 -47 -27.5 -74.5t-74.5 -27.5t-74.5 27.5t-27.5 74.5z" />
<glyph unicode="&#xd0;" horiz-adv-x="1585" d="M29 709v73h202v383q0 121 -17 151t-87 34l-82 6v61q213 -6 422 -6q59 0 178 3t178 3q324 0 519.5 -172t195.5 -457q0 -164 -63.5 -320.5t-174.5 -264.5q-211 -209 -602 -209q-49 0 -148 3t-149 3q-143 0 -284 -6v47l63 33q51 25 51 121v514h-202zM426 100q72 -16 211 -16 q174 0 279.5 29.5t197.5 105.5q205 168 205 516q0 305 -145 451q-150 150 -521 149q-141 0 -227 -16v-537h377v-73h-377v-609z" />
<glyph unicode="&#xd1;" horiz-adv-x="1701" d="M35 -6v61l90 6q70 4 87 34t17 151v919q0 121 -17 151t-87 34l-90 6v61q0 -6 246 -6l110 6l985 -1216v964q0 121 -17.5 151t-86.5 34l-90 6v61q119 -6 237 -6q123 0 246 6v-61l-90 -6q-70 -4 -87.5 -34t-17.5 -151v-1130q0 -10 3.5 -38t3.5 -38l-185 33l-968 1202v-948 q0 -121 17 -150.5t87 -34.5l90 -6v-61q-123 6 -246 6q-116 0 -237 -6zM514 1571q45 205 217 205q57 0 182 -62q68 -31 97 -31q80 0 120 103h60q-6 -90 -70.5 -152.5t-152.5 -62.5q-61 0 -140 39q-109 53 -145 53q-70 0 -109 -92h-59z" />
<glyph unicode="&#xd2;" horiz-adv-x="1609" d="M45 698q0 338 214 546t564 208q342 0 542 -189.5t200 -510.5q0 -338 -231.5 -565.5t-575.5 -227.5q-311 0 -512 208.5t-201 530.5zM264 774q0 -328 159 -528.5t417 -200.5q238 0 372 171t134 474q0 319 -147.5 497.5t-410.5 178.5q-252 0 -388 -153.5t-136 -438.5z M543 1763.5q0 22.5 19.5 39t47.5 16.5q55 -4 123 -54l305 -231h-88l-319 149q-53 27 -70.5 42.5t-17.5 38z" />
<glyph unicode="&#xd3;" horiz-adv-x="1609" d="M45 698q0 338 214 546t564 208q342 0 542 -189.5t200 -510.5q0 -338 -231.5 -565.5t-575.5 -227.5q-311 0 -512 208.5t-201 530.5zM264 774q0 -328 159 -528.5t417 -200.5q238 0 372 171t134 474q0 319 -147.5 497.5t-410.5 178.5q-252 0 -388 -153.5t-136 -438.5z M608 1534l305 231q68 49 123 54q29 0 48.5 -16.5t19.5 -39t-17.5 -38t-70.5 -42.5l-320 -149h-88z" />
<glyph unicode="&#xd4;" horiz-adv-x="1609" d="M45 698q0 338 214 546t564 208q342 0 542 -189.5t200 -510.5q0 -338 -231.5 -565.5t-575.5 -227.5q-311 0 -512 208.5t-201 530.5zM264 774q0 -328 159 -528.5t417 -200.5q238 0 372 171t134 474q0 319 -147.5 497.5t-410.5 178.5q-252 0 -388 -153.5t-136 -438.5z M477 1540l275 277h139l276 -277h-77l-269 172l-268 -172h-76z" />
<glyph unicode="&#xd5;" horiz-adv-x="1609" d="M45 698q0 338 214 546t564 208q342 0 542 -189.5t200 -510.5q0 -338 -231.5 -565.5t-575.5 -227.5q-311 0 -512 208.5t-201 530.5zM264 774q0 -328 159 -528.5t417 -200.5q238 0 372 171t134 474q0 319 -147.5 497.5t-410.5 178.5q-252 0 -388 -153.5t-136 -438.5z M487 1571q45 205 218 205q57 0 182 -62q68 -31 96 -31q80 0 121 103h59q-6 -90 -70.5 -152.5t-152.5 -62.5q-61 0 -139 39q-109 53 -146 53q-70 0 -108 -92h-60z" />
<glyph unicode="&#xd6;" horiz-adv-x="1609" d="M45 698q0 338 214 546t564 208q342 0 542 -189.5t200 -510.5q0 -338 -231.5 -565.5t-575.5 -227.5q-311 0 -512 208.5t-201 530.5zM264 774q0 -328 159 -528.5t417 -200.5q238 0 372 171t134 474q0 319 -147.5 497.5t-410.5 178.5q-252 0 -388 -153.5t-136 -438.5z M518 1677q0 47 28.5 75t76.5 28q45 0 72.5 -29t27.5 -74q0 -47 -27.5 -74.5t-75 -27.5t-75 27.5t-27.5 74.5zM926 1677q0 47 28.5 75t75.5 28q45 0 72.5 -29t27.5 -74q0 -47 -28.5 -74.5t-73.5 -27.5t-73.5 27.5t-28.5 74.5z" />
<glyph unicode="&#xd7;" horiz-adv-x="1241" d="M199 172l340 340l-340 340l82 82l340 -340l340 340l81 -82l-340 -340l340 -340l-81 -82l-340 340l-340 -340z" />
<glyph unicode="&#xd8;" horiz-adv-x="1705" d="M61 23l193 180q-74 96 -104 178q-57 147 -58 319q0 340 213 546t563 206q205 0 369 -74q70 -31 154 -96l176 170l65 -61l-180 -170q160 -203 160 -463q0 -340 -230.5 -569.5t-572.5 -229.5q-186 0 -340 74q-59 29 -154 104l-186 -174zM311 768q0 -240 90 -426l861 825 q-61 68 -106.5 100.5t-117.5 59.5q-102 39 -213 39q-246 0 -380 -155.5t-134 -442.5zM449 268q90 -119 192 -171t242 -52q244 0 377 171t133 480q0 221 -80 391z" />
<glyph unicode="&#xd9;" horiz-adv-x="1593" d="M25 1356v61q152 -6 299 -6q152 0 301 6v-61l-99 -6q-72 -4 -88 -34t-16 -151v-704q0 -197 97 -286t310 -89q223 0 330 103.5t107 320.5v655q0 121 -17.5 151t-87.5 34l-90 6v61q119 -6 238 -6q123 0 245 6v-61l-90 -6q-70 -4 -87 -34t-17 -151v-592q0 -336 -141 -477 q-135 -137 -444.5 -137t-432.5 127q-115 117 -115 352v727q0 121 -16 151t-88 34zM563 1763.5q0 22.5 19.5 39t48.5 16.5q55 -4 123 -54l305 -231h-88l-320 149q-53 27 -70.5 42.5t-17.5 38z" />
<glyph unicode="&#xda;" horiz-adv-x="1593" d="M25 1356v61q152 -6 299 -6q152 0 301 6v-61l-99 -6q-72 -4 -88 -34t-16 -151v-704q0 -197 97 -286t310 -89q223 0 330 103.5t107 320.5v655q0 121 -17.5 151t-87.5 34l-90 6v61q119 -6 238 -6q123 0 245 6v-61l-90 -6q-70 -4 -87 -34t-17 -151v-592q0 -336 -141 -477 q-135 -137 -444.5 -137t-432.5 127q-115 117 -115 352v727q0 121 -16 151t-88 34zM629 1534l305 231q68 49 123 54q29 0 48 -16.5t19 -39t-17 -38t-71 -42.5l-319 -149h-88z" />
<glyph unicode="&#xdb;" horiz-adv-x="1593" d="M25 1356v61q152 -6 299 -6q152 0 301 6v-61l-99 -6q-72 -4 -88 -34t-16 -151v-704q0 -197 97 -286t310 -89q223 0 330 103.5t107 320.5v655q0 121 -17.5 151t-87.5 34l-90 6v61q119 -6 238 -6q123 0 245 6v-61l-90 -6q-70 -4 -87 -34t-17 -151v-592q0 -336 -141 -477 q-135 -137 -444.5 -137t-432.5 127q-115 117 -115 352v727q0 121 -16 151t-88 34zM498 1540l274 277h139l277 -277h-78l-268 172l-269 -172h-75z" />
<glyph unicode="&#xdc;" horiz-adv-x="1593" d="M25 1356v61q152 -6 299 -6q152 0 301 6v-61l-99 -6q-72 -4 -88 -34t-16 -151v-704q0 -197 97 -286t310 -89q223 0 330 103.5t107 320.5v655q0 121 -17.5 151t-87.5 34l-90 6v61q119 -6 238 -6q123 0 245 6v-61l-90 -6q-70 -4 -87 -34t-17 -151v-592q0 -336 -141 -477 q-135 -137 -444.5 -137t-432.5 127q-115 117 -115 352v727q0 121 -16 151t-88 34zM539 1677q0 47 28.5 75t75.5 28q45 0 72.5 -29t27.5 -74q0 -47 -27.5 -74.5t-74.5 -27.5t-74.5 27.5t-27.5 74.5zM946 1677q0 47 29 75t76 28q45 0 72.5 -29t27.5 -74q0 -47 -28.5 -74.5 t-73.5 -27.5t-74 27.5t-29 74.5z" />
<glyph unicode="&#xdd;" horiz-adv-x="1366" d="M18 1333v60l246 51q29 0 83 -61.5t104 -149.5l292 -535l211 334q117 184 222 389h163v-30q-197 -236 -385 -519q-90 -135 -118.5 -206.5t-28.5 -155.5v-264q0 -121 16.5 -150.5t87.5 -34.5l99 -6v-61q-150 6 -301 6q-147 0 -299 -6v61l98 6q72 4 88 34t16 151v291 q0 51 -18 81l-254 443q-66 113 -138.5 186.5t-123.5 79.5zM496 1534l305 231q68 49 123 54q29 0 48 -16.5t19 -39t-17.5 -38t-70.5 -42.5l-319 -149h-88z" />
<glyph unicode="&#xde;" horiz-adv-x="1236" d="M66 -6v61l98 6q72 4 88 34t16 151v919q0 121 -16 151t-88 34l-98 6v61q152 -6 299 -6q152 0 301 6v-61l-99 -6q-72 -4 -88 -34t-16 -151v-55q35 -4 94 -4q197 2 203 2q190 0 303 -85t113 -230q0 -180 -132.5 -306.5t-318.5 -126.5q-74 0 -119 13l-22 76q68 -18 127 -19 q109 0 184.5 87t75.5 214q0 293 -348 293q-80 0 -160 -18v-760q0 -121 16.5 -150.5t87.5 -34.5l99 -6v-61q-150 6 -301 6q-147 0 -299 -6z" />
<glyph unicode="&#xdf;" horiz-adv-x="1138" d="M47 -6v61l74 6q51 4 63.5 28t12.5 120v579h-142v29l142 72v135q0 111 94 242q78 104 190.5 167.5t225.5 63.5q137 0 223 -82t86 -213q0 -168 -90 -401q-84 47 -146 47q-49 0 -78.5 -24.5t-29.5 -63.5q0 -43 40 -81t136 -87q115 -57 165 -117.5t50 -140.5 q0 -63 -21.5 -122.5t-54.5 -84.5l-119 -90q-70 -55 -161 -55q-96 0 -191 41v-29q-117 6 -235 6q-117 0 -234 -6zM369 219q0 -90 21.5 -127t72.5 -37h57l43 174h55v-94q74 -66 146 -65.5t119 44.5t47 111q0 72 -43 123t-148 107q-115 59 -152.5 102t-37.5 113q0 74 39 114 l80 88q66 72 211 72q23 90 22 168q0 135 -71.5 214t-196.5 79q-143 0 -203.5 -103.5t-60.5 -347.5v-735z" />
<glyph unicode="&#xe0;" d="M66 227q0 133 93 210t302 116l203 37q-4 139 -70 200.5t-209 61.5q-72 0 -99.5 -19.5t-58.5 -91.5l-26 -63l-54 14v133l109 66q115 70 248 70q178 0 250.5 -91.5t72.5 -316.5v-375q0 -76 10.5 -96.5t47.5 -22.5l80 -4v-61q-76 6 -152 6q-80 0 -160 -6l11 174l-254 -176 q-23 -16 -86 -17q-121 0 -189.5 66.5t-68.5 185.5zM227 1317q0 29 18.5 49t45.5 20q45 0 112 -67l283 -283h-82l-295 185q-51 33 -66.5 51t-15.5 45zM242 256q0 -66 46 -115t107 -49q59 0 141 49t128 113v270q-242 -35 -320 -82q-102 -65 -102 -186z" />
<glyph unicode="&#xe1;" d="M66 227q0 133 93 210t302 116l203 37q-4 139 -70 200.5t-209 61.5q-72 0 -99.5 -19.5t-58.5 -91.5l-26 -63l-54 14v133l109 66q115 70 248 70q178 0 250.5 -91.5t72.5 -316.5v-375q0 -76 10.5 -96.5t47.5 -22.5l80 -4v-61q-76 6 -152 6q-80 0 -160 -6l11 174l-254 -176 q-23 -16 -86 -17q-121 0 -189.5 66.5t-68.5 185.5zM242 256q0 -66 46 -115t107 -49q59 0 141 49t128 113v270q-242 -35 -320 -82q-102 -65 -102 -186zM322 1036l282 283q68 68 113 67q27 0 45 -20t18 -49q0 -27 -15 -45.5t-67 -50.5l-295 -185h-81z" />
<glyph unicode="&#xe2;" d="M66 227q0 133 93 210t302 116l203 37q-4 139 -70 200.5t-209 61.5q-72 0 -99.5 -19.5t-58.5 -91.5l-26 -63l-54 14v133l109 66q115 70 248 70q178 0 250.5 -91.5t72.5 -316.5v-375q0 -76 10.5 -96.5t47.5 -22.5l80 -4v-61q-76 6 -152 6q-80 0 -160 -6l11 174l-254 -176 q-23 -16 -86 -17q-121 0 -189.5 66.5t-68.5 185.5zM184 1042l256 342h127l256 -342h-71l-248 211l-248 -211h-72zM242 256q0 -66 46 -115t107 -49q59 0 141 49t128 113v270q-242 -35 -320 -82q-102 -65 -102 -186z" />
<glyph unicode="&#xe3;" d="M66 227q0 133 93 210t302 116l203 37q-4 139 -70 200.5t-209 61.5q-72 0 -99.5 -19.5t-58.5 -91.5l-26 -63l-54 14v133l109 66q115 70 248 70q178 0 250.5 -91.5t72.5 -316.5v-375q0 -76 10.5 -96.5t47.5 -22.5l80 -4v-61q-76 6 -152 6q-80 0 -160 -6l11 174l-254 -176 q-23 -16 -86 -17q-121 0 -189.5 66.5t-68.5 185.5zM166 1106q45 205 217 205q57 0 182 -62q68 -31 97 -30q80 0 120 102h60q-6 -90 -70.5 -152.5t-153.5 -62.5q-61 0 -139 39q-109 53 -145 53q-70 0 -109 -92h-59zM242 256q0 -66 46 -115t107 -49q59 0 141 49t128 113v270 q-242 -35 -320 -82q-102 -65 -102 -186z" />
<glyph unicode="&#xe4;" d="M66 227q0 133 93 210t302 116l203 37q-4 139 -70 200.5t-209 61.5q-72 0 -99.5 -19.5t-58.5 -91.5l-26 -63l-54 14v133l109 66q115 70 248 70q178 0 250.5 -91.5t72.5 -316.5v-375q0 -76 10.5 -96.5t47.5 -22.5l80 -4v-61q-76 6 -152 6q-80 0 -160 -6l11 174l-254 -176 q-23 -16 -86 -17q-121 0 -189.5 66.5t-68.5 185.5zM197 1212q0 47 28.5 75t75.5 28q45 0 72.5 -29t27.5 -74t-28.5 -73.5t-73.5 -28.5t-73.5 28.5t-28.5 73.5zM242 256q0 -66 46 -115t107 -49q59 0 141 49t128 113v270q-242 -35 -320 -82q-102 -65 -102 -186zM604 1212 q0 47 29 75t76 28q45 0 72.5 -29t27.5 -74t-27.5 -73.5t-75 -28.5t-75 28.5t-27.5 73.5z" />
<glyph unicode="&#xe5;" d="M66 227q0 133 93 210t302 116l203 37q-4 139 -70 200.5t-209 61.5q-72 0 -99.5 -19.5t-58.5 -91.5l-26 -63l-54 14v133l109 66q115 70 248 70q178 0 250.5 -91.5t72.5 -316.5v-375q0 -76 10.5 -96.5t47.5 -22.5l80 -4v-61q-76 6 -152 6q-80 0 -160 -6l11 174l-254 -176 q-23 -16 -86 -17q-121 0 -189.5 66.5t-68.5 185.5zM242 256q0 -66 46 -115t107 -49q59 0 141 49t128 113v270q-242 -35 -320 -82q-102 -65 -102 -186zM299 1214q0 84 60.5 143.5t148.5 59.5q82 0 141.5 -60.5t59.5 -144.5q0 -86 -60.5 -145t-144.5 -59q-86 0 -145.5 59 t-59.5 147zM377 1214q0 -61 33.5 -97t93.5 -36q57 0 92 36t35 95q0 57 -35 94t-90 37q-59 0 -94 -35t-35 -94z" />
<glyph unicode="&#xe6;" horiz-adv-x="1552" d="M61 219q0 135 84 201q47 35 161 65.5t243 44.5l115 13q-8 156 -56 223q-59 86 -176 86q-53 0 -110.5 -17.5t-75.5 -37.5q-29 -31 -51 -119l-54 12v127l201 109q63 35 145 35q186 0 299 -146q100 82 171 114t159 32q106 0 195.5 -47.5t138.5 -131.5q49 -86 49 -213 q0 -12 -4 -69q-180 -29 -371 -29h-299q6 -158 56 -244q90 -160 305 -159q68 0 122 19t146 77l29 -21l-41 -69q-14 -23 -103 -60q-127 -55 -241 -55q-178 0 -303 109q-51 47 -90 114l-252 -196q-33 -27 -113 -27q-127 0 -203 70.5t-76 189.5zM238 250q0 -74 45 -116t127 -42 q72 0 129 33t125 115v237q-176 -20 -275 -47q-90 -27 -115 -59q-36 -53 -36 -121zM829 553q156 -14 261 -12l239 6q0 137 -47 225q-66 121 -178 121q-135 0 -213 -105q-56 -77 -62 -235z" />
<glyph unicode="&#xe7;" horiz-adv-x="909" d="M53 430q0 279 223 418q182 113 332 113q119 0 238 -72q-29 -115 -29 -252h-57l-15 125q-27 39 -91 65.5t-134 26.5q-137 0 -212 -89t-75 -253q0 -203 103.5 -324.5t273.5 -121.5q102 0 215 59l21 -31l-43 -65q-14 -23 -99.5 -45.5t-152.5 -24.5l-43 -113q27 8 53 9 q82 0 129 -39t47 -105q0 -80 -67.5 -126t-186.5 -46q-70 0 -172 33l29 63q80 -23 135 -22q109 0 109 88q0 35 -22.5 57.5t-59.5 22.5q-29 0 -84 -14l-15 12l78 182q-193 16 -310.5 144t-117.5 325z" />
<glyph unicode="&#xe8;" horiz-adv-x="980" d="M53 449q0 160 55.5 262t180.5 174q129 76 248 76q172 0 276.5 -106.5t104.5 -283.5q0 -14 -5 -71q-180 -29 -370 -29h-299q6 -154 57 -244q92 -160 301 -159q66 0 116 18t150 78l27 -21l-41 -69q-16 -25 -106 -62q-121 -53 -236 -53t-214 45t-159 127q-86 117 -86 318z M248 553q133 -12 258 -12l229 6q0 166 -65 264q-55 82 -158 82q-74 0 -135.5 -39t-93.5 -106q-35 -70 -35 -195zM260 1317q0 29 18.5 49t45.5 20q45 0 112 -67l283 -283h-82l-295 185q-51 33 -66.5 51t-15.5 45z" />
<glyph unicode="&#xe9;" horiz-adv-x="980" d="M53 449q0 160 55.5 262t180.5 174q129 76 248 76q172 0 276.5 -106.5t104.5 -283.5q0 -14 -5 -71q-180 -29 -370 -29h-299q6 -154 57 -244q92 -160 301 -159q66 0 116 18t150 78l27 -21l-41 -69q-16 -25 -106 -62q-121 -53 -236 -53t-214 45t-159 127q-86 117 -86 318z M248 553q133 -12 258 -12l229 6q0 166 -65 264q-55 82 -158 82q-74 0 -135.5 -39t-93.5 -106q-35 -70 -35 -195zM354 1036l283 283q68 68 113 67q27 0 45 -20t18 -49q0 -27 -15.5 -45.5t-66.5 -50.5l-295 -185h-82z" />
<glyph unicode="&#xea;" horiz-adv-x="980" d="M53 449q0 160 55.5 262t180.5 174q129 76 248 76q172 0 276.5 -106.5t104.5 -283.5q0 -14 -5 -71q-180 -29 -370 -29h-299q6 -154 57 -244q92 -160 301 -159q66 0 116 18t150 78l27 -21l-41 -69q-16 -25 -106 -62q-121 -53 -236 -53t-214 45t-159 127q-86 117 -86 318z M217 1042l256 342h127l256 -342h-72l-247 211l-248 -211h-72zM248 553q133 -12 258 -12l229 6q0 166 -65 264q-55 82 -158 82q-74 0 -135.5 -39t-93.5 -106q-35 -70 -35 -195z" />
<glyph unicode="&#xeb;" horiz-adv-x="980" d="M53 449q0 160 55.5 262t180.5 174q129 76 248 76q172 0 276.5 -106.5t104.5 -283.5q0 -14 -5 -71q-180 -29 -370 -29h-299q6 -154 57 -244q92 -160 301 -159q66 0 116 18t150 78l27 -21l-41 -69q-16 -25 -106 -62q-121 -53 -236 -53t-214 45t-159 127q-86 117 -86 318z M229 1212q0 47 29 75t76 28q45 0 72.5 -29t27.5 -74t-28.5 -73.5t-73.5 -28.5t-74 28.5t-29 73.5zM248 553q133 -12 258 -12l229 6q0 166 -65 264q-55 82 -158 82q-74 0 -135.5 -39t-93.5 -106q-35 -70 -35 -195zM637 1212q0 47 28.5 75t75.5 28q45 0 73 -29t28 -74 t-28 -73.5t-75 -28.5t-74.5 28.5t-27.5 73.5z" />
<glyph unicode="&#xec;" horiz-adv-x="587" d="M23 1317q0 29 18 49t45 20q45 0 113 -67l282 -283h-82l-295 185q-51 33 -66 51t-15 45zM43 -6v61l94 6q51 2 63.5 26t12.5 122v461q0 102 -14.5 125.5t-75.5 23.5h-76v58q160 18 320 84l18 -9v-743q0 -98 12.5 -122t63.5 -26l94 -6v-61q-129 6 -256 6t-256 -6z" />
<glyph unicode="&#xed;" horiz-adv-x="587" d="M43 -6v61l94 6q51 2 63.5 26t12.5 122v461q0 102 -14.5 125.5t-75.5 23.5h-76v58q160 18 320 84l18 -9v-743q0 -98 12.5 -122t63.5 -26l94 -6v-61q-129 6 -256 6t-256 -6zM117 1036l282 283q68 68 113 67q27 0 45 -20t18 -49q0 -27 -15 -45.5t-66 -50.5l-295 -185h-82z " />
<glyph unicode="&#xee;" horiz-adv-x="587" d="M-20 1042l256 342h126l256 -342h-71l-248 211l-248 -211h-71zM43 -6v61l94 6q51 2 63.5 26t12.5 122v461q0 102 -14.5 125.5t-75.5 23.5h-76v58q160 18 320 84l18 -9v-743q0 -98 12.5 -122t63.5 -26l94 -6v-61q-129 6 -256 6t-256 -6z" />
<glyph unicode="&#xef;" horiz-adv-x="587" d="M-8 1212q0 47 28.5 75t75.5 28q45 0 73 -29t28 -74t-29 -73.5t-74 -28.5t-73.5 28.5t-28.5 73.5zM43 -6v61l94 6q51 2 63.5 26t12.5 122v461q0 102 -14.5 125.5t-75.5 23.5h-76v58q160 18 320 84l18 -9v-743q0 -98 12.5 -122t63.5 -26l94 -6v-61q-129 6 -256 6t-256 -6z M399 1212q0 47 29 75t76 28q45 0 72.5 -29t27.5 -74t-27.5 -73.5t-74.5 -28.5t-75 28.5t-28 73.5z" />
<glyph unicode="&#xf0;" horiz-adv-x="1118" d="M66 444q0 227 137 372t352 145q119 0 219 -52l4 4q-82 180 -200 291l-287 -139l-37 61l278 136q-86 80 -249 163l69 66q190 -115 273 -184l293 143l36 -61l-268 -132q135 -135 211 -256q135 -223 135 -464q0 -258 -142 -418t-370 -160q-205 0 -329.5 134t-124.5 351z M256 516q0 -215 84 -352t217 -137q98 0 164 65q131 135 131 400q0 190 -80 288q-94 113 -237 113q-133 0 -206 -98.5t-73 -278.5z" />
<glyph unicode="&#xf1;" horiz-adv-x="1191" d="M12 -6v61l92 6q51 2 63.5 26t12.5 122v461q0 102 -14 125.5t-76 23.5h-76v58q160 18 320 84l18 -9v-178l156 135q59 51 162 52q342 0 342 -357v-395q0 -98 12 -122t63 -26l84 -6v-61q-86 6 -170 6q-82 0 -161 -6v581q0 119 -62.5 190t-165.5 71q-94 0 -177 -61.5 t-83 -131.5v-434q0 -98 12.5 -122t63.5 -26l92 -6v-61q-127 6 -254 6t-254 -6zM258 1106q45 205 217 205q57 0 182 -62q68 -31 97 -30q80 0 120 102h60q-6 -90 -70.5 -152.5t-152.5 -62.5q-61 0 -140 39q-109 53 -145 53q-70 0 -109 -92h-59z" />
<glyph unicode="&#xf2;" horiz-adv-x="1118" d="M66 444q0 229 140 373t365 144q211 0 346.5 -134.5t135.5 -341.5q0 -229 -151.5 -377.5t-389.5 -148.5q-199 0 -322.5 134t-123.5 351zM256 514q0 -219 93 -353t243 -134q125 0 197.5 103t72.5 280q0 209 -93 346t-234 137q-135 0 -207 -97.5t-72 -281.5zM295 1317 q0 29 18.5 49t44.5 20q45 0 113 -67l283 -283h-82l-295 185q-51 33 -66.5 51t-15.5 45z" />
<glyph unicode="&#xf3;" horiz-adv-x="1118" d="M66 444q0 229 140 373t365 144q211 0 346.5 -134.5t135.5 -341.5q0 -229 -151.5 -377.5t-389.5 -148.5q-199 0 -322.5 134t-123.5 351zM256 514q0 -219 93 -353t243 -134q125 0 197.5 103t72.5 280q0 209 -93 346t-234 137q-135 0 -207 -97.5t-72 -281.5zM389 1036 l283 283q68 68 112 67q27 0 45.5 -20t18.5 -49q0 -27 -15.5 -45.5t-66.5 -50.5l-295 -185h-82z" />
<glyph unicode="&#xf4;" horiz-adv-x="1118" d="M66 444q0 229 140 373t365 144q211 0 346.5 -134.5t135.5 -341.5q0 -229 -151.5 -377.5t-389.5 -148.5q-199 0 -322.5 134t-123.5 351zM252 1042l256 342h127l256 -342h-72l-248 211l-247 -211h-72zM256 514q0 -219 93 -353t243 -134q125 0 197.5 103t72.5 280 q0 209 -93 346t-234 137q-135 0 -207 -97.5t-72 -281.5z" />
<glyph unicode="&#xf5;" horiz-adv-x="1118" d="M66 444q0 229 140 373t365 144q211 0 346.5 -134.5t135.5 -341.5q0 -229 -151.5 -377.5t-389.5 -148.5q-199 0 -322.5 134t-123.5 351zM233 1106q45 205 218 205q57 0 182 -62q68 -31 96 -30q80 0 121 102h59q-6 -90 -70.5 -152.5t-152.5 -62.5q-61 0 -139 39 q-109 53 -146 53q-70 0 -108 -92h-60zM256 514q0 -219 93 -353t243 -134q125 0 197.5 103t72.5 280q0 209 -93 346t-234 137q-135 0 -207 -97.5t-72 -281.5z" />
<glyph unicode="&#xf6;" horiz-adv-x="1118" d="M66 444q0 229 140 373t365 144q211 0 346.5 -134.5t135.5 -341.5q0 -229 -151.5 -377.5t-389.5 -148.5q-199 0 -322.5 134t-123.5 351zM256 514q0 -219 93 -353t243 -134q125 0 197.5 103t72.5 280q0 209 -93 346t-234 137q-135 0 -207 -97.5t-72 -281.5zM264 1212 q0 47 29 75t76 28q45 0 72.5 -29t27.5 -74t-27.5 -73.5t-75 -28.5t-75 28.5t-27.5 73.5zM672 1212q0 47 28.5 75t75.5 28q45 0 73 -29t28 -74t-29 -73.5t-74 -28.5t-73.5 28.5t-28.5 73.5z" />
<glyph unicode="&#xf7;" horiz-adv-x="1241" d="M82 455v114h1077v-114h-1077zM502 158q0 49 34.5 83.5t84 34.5t84 -34.5t34.5 -83.5t-34.5 -84t-84 -35t-84 35t-34.5 84zM502 866q0 49 34.5 84t84 35t84 -35t34.5 -84t-34.5 -83.5t-84 -34.5t-84 34.5t-34.5 83.5z" />
<glyph unicode="&#xf8;" horiz-adv-x="1138" d="M33 0l137 131q-94 145 -94 311q0 227 144.5 373t369.5 146q172 0 313 -113l127 123l55 -51l-129 -125q106 -143 107 -308q0 -229 -151.5 -378.5t-383.5 -149.5q-96 0 -166.5 26.5t-144.5 90.5l-127 -123zM266 524q0 -127 41 -258l488 475q-100 152 -252 152 q-131 0 -204 -96.5t-73 -272.5zM340 195q100 -168 260 -168q123 0 197.5 103t74.5 273q0 123 -45 267z" />
<glyph unicode="&#xf9;" horiz-adv-x="1234" d="M37 819v58q160 18 319 84l19 -9v-604q0 -137 43 -186q51 -61 162 -62q117 0 202 86q76 76 76 150v334q0 102 -14.5 125.5t-75.5 23.5h-76v58q160 18 320 84l18 -9v-743q0 -98 12.5 -122t63.5 -26l84 -6v-61q-86 6 -170 6t-170 -6q8 129 8 188l-137 -127q-86 -80 -229 -80 q-172 0 -240 93q-49 68 -49 258v344q0 102 -14.5 125.5t-75.5 23.5h-76zM340 1317q0 29 18.5 49t44.5 20q45 0 113 -67l283 -283h-82l-295 185q-51 33 -66.5 51t-15.5 45z" />
<glyph unicode="&#xfa;" horiz-adv-x="1234" d="M37 819v58q160 18 319 84l19 -9v-604q0 -137 43 -186q51 -61 162 -62q117 0 202 86q76 76 76 150v334q0 102 -14.5 125.5t-75.5 23.5h-76v58q160 18 320 84l18 -9v-743q0 -98 12.5 -122t63.5 -26l84 -6v-61q-86 6 -170 6t-170 -6q8 129 8 188l-137 -127q-86 -80 -229 -80 q-172 0 -240 93q-49 68 -49 258v344q0 102 -14.5 125.5t-75.5 23.5h-76zM434 1036l283 283q68 68 112 67q27 0 45.5 -20t18.5 -49q0 -27 -15.5 -45.5t-66.5 -50.5l-295 -185h-82z" />
<glyph unicode="&#xfb;" horiz-adv-x="1234" d="M37 819v58q160 18 319 84l19 -9v-604q0 -137 43 -186q51 -61 162 -62q117 0 202 86q76 76 76 150v334q0 102 -14.5 125.5t-75.5 23.5h-76v58q160 18 320 84l18 -9v-743q0 -98 12.5 -122t63.5 -26l84 -6v-61q-86 6 -170 6t-170 -6q8 129 8 188l-137 -127q-86 -80 -229 -80 q-172 0 -240 93q-49 68 -49 258v344q0 102 -14.5 125.5t-75.5 23.5h-76zM297 1042l256 342h127l256 -342h-72l-248 211l-247 -211h-72z" />
<glyph unicode="&#xfc;" horiz-adv-x="1234" d="M37 819v58q160 18 319 84l19 -9v-604q0 -137 43 -186q51 -61 162 -62q117 0 202 86q76 76 76 150v334q0 102 -14.5 125.5t-75.5 23.5h-76v58q160 18 320 84l18 -9v-743q0 -98 12.5 -122t63.5 -26l84 -6v-61q-86 6 -170 6t-170 -6q8 129 8 188l-137 -127q-86 -80 -229 -80 q-172 0 -240 93q-49 68 -49 258v344q0 102 -14.5 125.5t-75.5 23.5h-76zM309 1212q0 47 29 75t76 28q45 0 72.5 -29t27.5 -74t-27.5 -73.5t-74.5 -28.5t-75 28.5t-28 73.5zM717 1212q0 47 28.5 75t75.5 28q45 0 73 -29t28 -74t-29 -73.5t-74 -28.5t-73.5 28.5t-28.5 73.5z " />
<glyph unicode="&#xfd;" horiz-adv-x="1138" d="M25 883v57q121 -6 237.5 -6t237.5 6v-57l-78 -4q-57 -2 -67.5 -34t18.5 -100l131 -344q53 -135 104 -225l244 598q23 55 7.5 77.5t-81.5 27.5l-53 4v57q98 -6 194.5 -6t194.5 6v-57l-57 -4q-39 -2 -75 -54.5t-97 -193.5l-416 -959q-59 -133 -130 -192.5t-173 -59.5 q-51 0 -111 31l49 154h27q53 -47 105 -47q121 0 223 268l47 125l-338 827q-20 53 -44 74.5t-63 26.5zM430 1036l283 283q68 68 112 67q27 0 45.5 -20t18.5 -49q0 -27 -15.5 -45.5t-66.5 -50.5l-295 -185h-82z" />
<glyph unicode="&#xfe;" horiz-adv-x="1230" d="M-4 -514l94 6q51 2 63.5 25.5t12.5 122.5v1630q0 84 -51 84h-115v57q203 31 319 76l19 -17v-714l113 114q90 90 249 91q172 0 293 -121t121 -293q0 -106 -48 -219t-114 -160l-204 -148q-63 -45 -168 -45q-113 0 -242 52v-387q0 -98 12 -122t64 -26l94 -6v-61 q-129 6 -256 6t-256 -6v61zM338 201q115 -121 276 -121q150 0 236 105.5t86 285.5q0 166 -85 261t-230 95q-156 0 -246 -114q-37 -49 -37 -86v-426z" />
<glyph unicode="&#xff;" horiz-adv-x="1138" d="M25 883v57q121 -6 237.5 -6t237.5 6v-57l-78 -4q-57 -2 -67.5 -34t18.5 -100l131 -344q53 -135 104 -225l244 598q23 55 7.5 77.5t-81.5 27.5l-53 4v57q98 -6 194.5 -6t194.5 6v-57l-57 -4q-39 -2 -75 -54.5t-97 -193.5l-416 -959q-59 -133 -130 -192.5t-173 -59.5 q-51 0 -111 31l49 154h27q53 -47 105 -47q121 0 223 268l47 125l-338 827q-20 53 -44 74.5t-63 26.5zM305 1212q0 47 28.5 75t76.5 28q45 0 72.5 -29t27.5 -74t-27.5 -73.5t-75 -28.5t-75 28.5t-27.5 73.5zM713 1212q0 47 28.5 75t75.5 28q45 0 73 -29t28 -74t-29 -73.5 t-74 -28.5t-73.5 28.5t-28.5 73.5z" />
<glyph unicode="&#x152;" horiz-adv-x="2043" d="M45 696q0 338 214 547t558 209q70 0 225.5 -20.5t161.5 -20.5l486 6l247 -6q-33 -131 -32 -311h-72v133q0 37 -9 49t-46 21q-111 29 -289 28q-160 0 -232 -16v-547q131 -8 310 -8q74 0 107.5 14t37.5 64l10 106h62q-6 -119 -6 -237q0 -113 6 -228h-62l-10 119 q-4 49 -38 63.5t-107 14.5h-111q-119 0 -199 -6v-574q80 -16 199 -16q295 0 363 24q47 18 69 162l10 70h72q-33 -170 -33 -336l-327 -6l-219 2q-133 2 -336 -17.5t-254 -19.5q-338 0 -547 202.5t-209 534.5zM250 758q0 -311 150.5 -510t387.5 -199q72 0 149 19.5t116 46.5 q10 70 10 170v817q0 100 -10 170q-102 90 -273 90q-250 0 -390 -159.5t-140 -444.5z" />
<glyph unicode="&#x153;" horiz-adv-x="1693" d="M66 471q0 219 135 354.5t356 135.5q109 0 187.5 -35t166.5 -121q100 90 173 123t167 33q176 0 281.5 -105.5t105.5 -284.5q0 -14 -4 -71q-180 -29 -370 -29h-299q6 -154 57 -244q90 -160 303 -159q68 0 122 19t146 77l29 -21l-41 -69q-14 -20 -102 -60q-133 -55 -236 -55 q-104 0 -183 40t-169 138q-94 -98 -175 -138t-188 -40q-203 0 -332.5 143.5t-129.5 368.5zM256 532q0 -223 88 -364t227 -141q121 0 187.5 101t66.5 288q0 221 -81.5 349t-225.5 128q-262 -1 -262 -361zM969 553q156 -14 260 -12l239 6q0 137 -47 225q-66 121 -176 121 q-63 0 -121.5 -28.5t-93.5 -76.5q-55 -77 -61 -235z" />
<glyph unicode="&#x178;" horiz-adv-x="1366" d="M18 1333v60l246 51q29 0 83 -61.5t104 -149.5l292 -535l211 334q117 184 222 389h163v-30q-197 -236 -385 -519q-90 -135 -118.5 -206.5t-28.5 -155.5v-264q0 -121 16.5 -150.5t87.5 -34.5l99 -6v-61q-150 6 -301 6q-147 0 -299 -6v61l98 6q72 4 88 34t16 151v291 q0 51 -18 81l-254 443q-66 113 -138.5 186.5t-123.5 79.5zM406 1677q0 47 28.5 75t75.5 28q45 0 72.5 -29t27.5 -74q0 -47 -28.5 -74.5t-73.5 -27.5t-73.5 27.5t-28.5 74.5zM813 1677q0 47 28.5 75t76.5 28q45 0 72.5 -29t27.5 -74q0 -47 -27.5 -74.5t-75 -27.5t-75 27.5 t-27.5 74.5z" />
<glyph unicode="&#x2c6;" horiz-adv-x="681" d="M23 1042l256 342h127l256 -342h-72l-248 211l-248 -211h-71z" />
<glyph unicode="&#x2dc;" horiz-adv-x="681" d="M4 1106q45 205 217 205q57 0 182 -62q68 -31 97 -30q80 0 121 102h59q-6 -90 -70.5 -152.5t-152.5 -62.5q-61 0 -140 39q-109 53 -145 53q-70 0 -109 -92h-59z" />
<glyph unicode="&#x2000;" horiz-adv-x="960" />
<glyph unicode="&#x2001;" horiz-adv-x="1923" />
<glyph unicode="&#x2002;" horiz-adv-x="960" />
<glyph unicode="&#x2003;" horiz-adv-x="1923" />
<glyph unicode="&#x2004;" horiz-adv-x="641" />
<glyph unicode="&#x2005;" horiz-adv-x="479" />
<glyph unicode="&#x2006;" horiz-adv-x="319" />
<glyph unicode="&#x2007;" horiz-adv-x="319" />
<glyph unicode="&#x2008;" horiz-adv-x="239" />
<glyph unicode="&#x2009;" horiz-adv-x="382" />
<glyph unicode="&#x200a;" horiz-adv-x="106" />
<glyph unicode="&#x2010;" horiz-adv-x="681" d="M35 451l55 137h539l10 -10l-61 -138h-533z" />
<glyph unicode="&#x2011;" horiz-adv-x="681" d="M35 451l55 137h539l10 -10l-61 -138h-533z" />
<glyph unicode="&#x2012;" horiz-adv-x="681" d="M35 451l55 137h539l10 -10l-61 -138h-533z" />
<glyph unicode="&#x2013;" d="M0 449v118h1024v-118h-1024z" />
<glyph unicode="&#x2014;" horiz-adv-x="2048" d="M0 449v118h2048v-118h-2048z" />
<glyph unicode="&#x2018;" horiz-adv-x="569" d="M92 940q100 252 264 463l90 49l31 -20q-141 -225 -160 -457l-198 -62z" />
<glyph unicode="&#x2019;" horiz-adv-x="569" d="M92 934q143 229 160 457l199 61l26 -27q-100 -252 -264 -462l-90 -50z" />
<glyph unicode="&#x201a;" horiz-adv-x="569" d="M45 -293q143 229 160 457l198 61l27 -26q-100 -252 -264 -463l-90 -49z" />
<glyph unicode="&#x201c;" d="M104 940q100 252 265 463l90 49l30 -20q-141 -225 -159 -457l-199 -62zM535 940q100 252 264 463l90 49l31 -20q-141 -225 -160 -457l-199 -62z" />
<glyph unicode="&#x201d;" d="M104 934q143 229 160 457l199 61l26 -27q-100 -252 -264 -462l-90 -50zM535 934q143 229 159 457l199 61l27 -27q-100 -252 -265 -462l-90 -50z" />
<glyph unicode="&#x201e;" d="M104 -293q143 229 160 457l199 61l26 -26q-100 -252 -264 -463l-90 -49zM535 -293q143 229 159 457l199 61l27 -26q-100 -252 -265 -463l-90 -49z" />
<glyph unicode="&#x2022;" horiz-adv-x="1241" d="M268 711q0 139 104.5 242.5t248.5 103.5q145 0 248.5 -104.5t103.5 -247.5q0 -145 -104.5 -249t-250.5 -104q-143 0 -246.5 106t-103.5 253z" />
<glyph unicode="&#x2026;" horiz-adv-x="2048" d="M223 108.5q0 47.5 36 83t81 35.5q47 0 84 -35.5t37 -83t-37 -83t-86 -35.5q-45 0 -80 35.5t-35 83zM905 108.5q0 47.5 36 83t81 35.5q47 0 84 -35.5t37 -83t-37 -83t-86 -35.5q-45 0 -80 35.5t-35 83zM1587 108.5q0 47.5 36 83t81 35.5q47 0 84 -35.5t37 -83t-37 -83 t-86 -35.5q-45 0 -80 35.5t-35 83z" />
<glyph unicode="&#x202f;" horiz-adv-x="382" />
<glyph unicode="&#x2039;" horiz-adv-x="677" d="M135 496v24l361 357l47 -27l-244 -342l244 -332l-47 -31z" />
<glyph unicode="&#x203a;" horiz-adv-x="677" d="M135 176l244 332l-244 342l47 27l361 -357v-24l-361 -351z" />
<glyph unicode="&#x205f;" horiz-adv-x="479" />
<glyph unicode="&#x20ac;" d="M-4 561l37 105q51 -10 117 -11v115q-125 0 -152 -2l37 104q43 -12 127 -12q33 231 165 391t363 160q221 0 336 -100l-11 -66q-9 -53 -15.5 -104t-6.5 -88h-63l-4 184q-57 102 -246 102q-123 0 -221.5 -131t-126.5 -348h350q104 0 182 12l-37 -106l-505 4q-2 -29 -3 -115 q322 0 472 11l-37 -105l-430 4q23 -244 123 -389t233 -145q176 0 242 94l6 192h65q0 -37 6.5 -88t15.5 -104l11 -66q-115 -100 -336 -100q-131 0 -232.5 52t-163 142.5t-96 193t-44.5 218.5q-101 0 -158 -4z" />
<glyph unicode="&#x2122;" horiz-adv-x="2004" d="M82 1415l248 -2h186l264 2q-8 -82 -8 -184h-53l-6 90q0 27 -37 27h-172q-2 -33 -2 -97v-442q0 -84 47 -86l59 -2v-49q-119 4 -178 4q-57 0 -176 -4v49l61 2q47 2 47 86v442q0 31 -4 97h-170q-39 0 -38 -27l-7 -90h-53q2 75 -8 184zM840 672v49l57 2q51 2 51 86v469 q0 84 -51 86l-57 4v49q39 -4 116 -4q82 0 123 4l303 -569l299 569q41 -4 121 -4q76 0 113 4v-49l-53 -4q-47 -2 -47 -86v-469q0 -84 47 -86l61 -2v-49q-123 4 -182 4q-53 0 -156 -4v49l43 2q47 6 47 86v438l-30 -53l-209 -395q-14 -25 -34 -69t-30 -62h-45l-307 577v-436 q0 -84 51 -86l55 -2v-49q-94 4 -145 4q-47 0 -141 -4z" />
<glyph unicode="&#xe000;" horiz-adv-x="960" d="M0 960h960v-960h-960v960z" />
<glyph unicode="&#xfb01;" horiz-adv-x="1239" d="M47 -6v61l94 6q51 2 63.5 26t12.5 122v579l-141 -8v45l141 64v86q0 197 86 295l119 135q76 86 182 86q35 0 94 -23v-157l-24 -13q-66 57 -142 58q-88 0 -115.5 -57.5t-27.5 -235.5v-174q147 0 268 8l-14 -109h-254v-579q0 -98 12.5 -122t63.5 -26l94 -6v-61 q-129 6 -256 6t-256 -6zM690 -6v61l94 6q51 2 63.5 26t12.5 122v457q0 102 -14.5 125.5t-75.5 23.5h-76v57q188 23 320 89l18 -15v-737q0 -98 12.5 -122t63.5 -26l94 -6v-61q-129 6 -256 6t-256 -6zM842 1292q0 47 33.5 81t80.5 34q43 0 78 -35t35 -80t-35 -78.5t-80 -33.5 t-78.5 33.5t-33.5 78.5z" />
<glyph unicode="&#xfb02;" horiz-adv-x="1245" d="M47 -6v61l94 6q51 2 63.5 26t12.5 122v579l-141 -8v45l141 64v86q0 197 86 295l119 135q76 86 180 86q31 0 82 -12q4 0 18.5 -4.5t26.5 -6.5v-57q190 39 291 76l18 -21v-1257q0 -98 12.5 -122t63.5 -26l94 -6v-61q-129 6 -256 6t-256 -6v61l95 6q51 2 63 26t12 122v1032 q0 113 -51 113h-86v-43l-45 -13q-82 57 -154 58q-86 0 -113.5 -58.5t-27.5 -234.5v-174q147 0 268 8l-14 -109h-254v-579q0 -98 12.5 -122t63.5 -26l106 -6v-61q-133 6 -266 6q-129 0 -258 -6z" />
<glyph unicode="&#xfb03;" horiz-adv-x="1837" d="M47 -6v61l94 6q51 2 63.5 26t12.5 122v579l-141 -8v45l141 64v86q0 197 86 295l119 135q76 86 180 86q41 0 96 -23v-157l-24 -13q-66 57 -142 58q-88 0 -115.5 -57.5t-27.5 -235.5v-174h420v86q0 197 86 295l119 135q76 86 180 86q39 0 96 -23v-157l-24 -13 q-66 57 -142 58q-88 0 -115.5 -57.5t-27.5 -235.5v-174l248 8l-15 -109h-233v-579q0 -98 12.5 -122t63.5 -26l106 -6v-61q-131 6 -266 6q-129 0 -258 -6v61l94 6q51 2 63.5 26t12.5 122v579h-420v-579q0 -98 12.5 -122t63.5 -26l94 -6v-61q-129 6 -256 6t-256 -6zM1282 -6 v61l94 6q51 2 63.5 26t12.5 122v457q0 102 -14.5 125.5t-75.5 23.5h-76v57q188 23 320 89l18 -15v-737q0 -98 12.5 -122t63.5 -26l94 -6v-61q-129 6 -256 6t-256 -6zM1434 1292q0 47 34.5 81t79.5 34q43 0 78 -35t35 -80t-35 -78.5t-80 -33.5t-78.5 33.5t-33.5 78.5z" />
<glyph unicode="&#xfb04;" horiz-adv-x="1843" d="M47 -6v61l94 6q51 2 63.5 26t12.5 122v579l-141 -8v45l141 64v86q0 197 86 295l119 135q76 86 180 86q41 0 96 -23v-157l-24 -13q-66 57 -142 58q-88 0 -115.5 -57.5t-27.5 -235.5v-174h422v86q0 197 86 295l119 135q76 86 180 86q31 0 82 -12q4 0 18.5 -4.5t26.5 -6.5 v-57q190 39 291 76l18 -21v-1257q0 -98 12.5 -122t63.5 -26l94 -6v-61q-129 6 -256 6t-256 -6v61l94 6q51 2 63.5 26t12.5 122v1032q0 113 -51 113h-86v-43l-45 -13q-82 57 -154 58q-86 0 -113.5 -58.5t-27.5 -234.5v-174l268 8l-14 -109h-254v-579q0 -98 12.5 -122 t63.5 -26l106 -6v-61q-133 6 -266 6q-129 0 -258 -6v61l94 6q51 2 63.5 26t12.5 122v579h-422v-579q0 -98 12.5 -122t63.5 -26l94 -6v-61q-129 6 -256 6t-256 -6z" />
</font>
</defs>
</svg>
