<?xml version="1.0" standalone="no"?>
<!DOCTYPE svg PUBLIC "-//W3C//DTD SVG 1.1//EN" "http://www.w3.org/Graphics/SVG/1.1/DTD/svg11.dtd" >
<svg xmlns="http://www.w3.org/2000/svg">
<metadata>
This is a custom SVG webfont generated by Font Squirrel.
Copyright   : Copyright URW copyright 1999 by URW Design  Development Cyrillic glyphs added by Valek Filippov copyright 20012002 Vietnamese characters were added by Han The Thanh copyright 2006 2008 for TeX Gyre extensions by B Jackowski and JM Nowacki on behalf of TeX users groups This work is released under the GUST Font License   see httptugorgfontslicensesGUSTFONTLICENSEtxt for details
</metadata>
<defs>
<font id="webfontQvf5a4q0" horiz-adv-x="1024" >
<font-face units-per-em="2048" ascent="1501" descent="-547" />
<missing-glyph horiz-adv-x="512" />
<glyph unicode=" "  horiz-adv-x="512" />
<glyph unicode="&#x09;" horiz-adv-x="512" />
<glyph unicode="&#xa0;" horiz-adv-x="512" />
<glyph unicode="!" horiz-adv-x="681" d="M156 80q0 59 35.5 101t87.5 42q39 0 65.5 -28.5t26.5 -69.5q0 -57 -37 -99t-88 -42q-41 0 -65.5 25.5t-24.5 70.5zM272 397l43 316l72 590l14 145l174 53l23 -18l-252 -1057l-61 -35z" />
<glyph unicode="&#x22;" d="M287 1040l127 383q25 78 92 78q35 0 59.5 -23.5t24.5 -56.5q0 -43 -19 -67l-223 -314h-61zM629 1040l127 383q25 78 92 78q35 0 59.5 -23.5t24.5 -56.5q0 -43 -19 -67l-223 -314h-61z" />
<glyph unicode="#" d="M8 465v115h238l43 286h-226v115h242l64 436h118l-63 -436h272l62 436h119l-62 -436h199v-115h-215l-41 -286h205v-115h-224l-63 -465h-119l64 465h-275l-67 -465h-119l67 465h-219zM365 580h274l41 286h-272z" />
<glyph unicode="$" d="M31 61q27 115 45 297h53v-184q70 -80 236 -108l90 559q-168 37 -238 103.5t-70 191.5q0 203 168 335q88 72 258 119l19 127h76l-21 -123q172 -2 275 -69l4 -21q-33 -125 -52 -235h-49v147q-66 72 -194 86l-84 -526q180 -29 254 -92q88 -72 88 -209q0 -111 -59.5 -213.5 t-165.5 -175.5q-104 -72 -244 -93l-29 -208h-84l41 206q-241 27 -317 86zM285 983q0 -84 45 -133t149 -78l82 514q-92 -2 -151 -47q-57 -41 -91 -110.5t-34 -145.5zM434 66q100 6 168 55q63 45 99 118.5t36 155.5q0 96 -47 144.5t-168 76.5z" />
<glyph unicode="%" horiz-adv-x="1820" d="M152 1069q0 143 111.5 253t256.5 110q117 0 194 -80t77 -201q0 -158 -101.5 -266.5t-249.5 -108.5q-125 0 -206.5 83t-81.5 210zM295 1022q0 -92 39 -145.5t104 -53.5q90 0 152 105q66 117 65 278q0 84 -35.5 131t-99.5 47q-96 0 -160.5 -104t-64.5 -258zM422 -14 l868 1468h90l-874 -1468h-84zM1018 293q0 143 111.5 252.5t256.5 109.5q117 0 194 -79.5t77 -200.5q0 -158 -101.5 -266.5t-248.5 -108.5q-125 0 -207 83t-82 210zM1161 246q0 -92 39 -145.5t105 -53.5q90 0 151 105q66 117 66 278q0 84 -36 131t-100 47q-96 0 -160.5 -104 t-64.5 -258z" />
<glyph unicode="&#x26;" horiz-adv-x="1593" d="M96 354q0 184 123 289q55 49 117.5 81t187.5 75q-86 41 -124 88t-38 117q0 104 93.5 212.5t234.5 167.5q74 33 164 33q102 0 199 -51l-54 -244h-47v127q-100 66 -184 66q-109 0 -183.5 -72t-74.5 -174q0 -141 141 -192q49 -18 146 -19q-41 -82 -41 -98v-4h-74 q-184 0 -300 -100.5t-116 -258.5q0 -152 115 -245t301 -93q188 0 330.5 104.5t142.5 244.5q0 82 -51 132t-133 50q-72 0 -103.5 -34t-54.5 -136l-47 4l16 203q47 47 96.5 66.5t159.5 37.5l228 37q231 37 231 166q0 39 -16.5 60.5t-61.5 45.5l43 33q57 -27 82 -64.5t25 -99.5 q0 -102 -68.5 -168.5t-189.5 -83.5l-174 -24l34 -4q49 -6 88 -59.5t39 -112.5q0 -111 -93 -220.5t-257 -191.5t-360 -82q-225 0 -358.5 105.5t-133.5 285.5z" />
<glyph unicode="'" horiz-adv-x="681" d="M287 1040l127 383q25 78 92 78q35 0 59.5 -23.5t24.5 -56.5q0 -43 -19 -67l-223 -314h-61z" />
<glyph unicode="(" horiz-adv-x="681" d="M111 526q0 303 174 578q63 98 136 182t210 215l47 -43q-141 -160 -209 -264t-119 -233q-92 -236 -92 -531q0 -303 98 -508l54 -112l-45 -27q-164 264 -211 430q-43 155 -43 313z" />
<glyph unicode=")" horiz-adv-x="681" d="M4 -174q141 160 209 264.5t119 233.5q92 238 92 530q0 301 -98 508l-54 113l45 26q164 -264 211 -430q43 -156 43 -313q0 -305 -176 -578q-106 -168 -344 -397z" />
<glyph unicode="*" horiz-adv-x="796" d="M156 1245l67 117h21l213 -215l45 289l20 10l129 -37v-16l-145 -269l287 52l14 -11l12 -118l-12 -13l-297 39l133 -246l-8 -16l-119 -57l-14 8l-45 291l-219 -199h-25l-53 117l8 14l260 115l-262 127z" />
<glyph unicode="+" horiz-adv-x="1241" d="M82 455v114h481v482h115v-482h481v-114h-481v-482h-115v482h-481z" />
<glyph unicode="," horiz-adv-x="512" d="M16 -272q117 147 179 399l16 66l186 59l19 -27q-96 -223 -314 -491l-71 -27z" />
<glyph unicode="-" horiz-adv-x="681" d="M39 457l39 118h545l-37 -118h-547z" />
<glyph unicode="." horiz-adv-x="512" d="M109 86q0 59 35.5 101t86.5 42q39 0 66 -28.5t27 -69.5q0 -57 -37 -99t-88 -42q-41 0 -65.5 25.5t-24.5 70.5z" />
<glyph unicode="/" horiz-adv-x="606" d="M-82 -244l762 1745h123l-762 -1745h-123z" />
<glyph unicode="0" d="M74 473q0 209 54 414t144 336q145 209 359 209q164 0 258 -127t94 -347q0 -188 -44 -380.5t-120 -329.5q-147 -270 -393 -271q-170 0 -261 129t-91 367zM229 365q0 -328 205 -328q92 0 161 75.5t124 237.5q45 133 76.5 330t31.5 348q0 344 -209 344q-109 0 -181 -98 t-130 -322q-78 -315 -78 -587z" />
<glyph unicode="1" d="M111 -6l10 55l174 21q47 6 66.5 32.5t31.5 106.5l176 1079q-31 -12 -55.5 -19t-55 -19.5t-100.5 -47.5l-172 -84l-14 10l23 121l49 13q203 51 286 86l205 84l31 -23l-49 -235l-152 -895q-16 -98 -16 -123q0 -53 24.5 -74t96.5 -25l145 -8l-10 -55q-172 6 -346 6 q-172 0 -348 -6z" />
<glyph unicode="2" d="M25 -6v37l100 106q221 231 389 449q207 268 207 485q0 100 -63.5 163.5t-163.5 63.5q-88 0 -153 -49t-140 -172l-45 19l123 245q125 90 270 91q158 0 252 -89.5t94 -240.5q0 -223 -182 -422l-506 -551h430q106 0 235 23l13 -17l-35 -141q-207 6 -412 6q-208 0 -413 -6z " />
<glyph unicode="3" d="M45 68l57 297l50 -11q-8 -66 -9 -88q0 -102 68 -160.5t184 -58.5q129 0 213 88q131 135 131 332q0 131 -72.5 202.5t-203.5 71.5q-70 0 -160 -32l-12 24l37 88q33 0 90 -4q131 -6 225 83t94 216q0 86 -56 138.5t-151 52.5q-68 0 -113.5 -25t-105.5 -94l-43 -49l-39 26 l119 203q137 63 238 64q139 0 226 -74t87 -193q0 -111 -67.5 -193.5t-229.5 -166.5q141 -35 207 -82q106 -82 106 -242q0 -209 -165.5 -356.5t-401.5 -147.5q-168 1 -303 91z" />
<glyph unicode="4" d="M31 393v64l690 944l141 31l17 -11l-170 -913h262l8 -10l-33 -113q-104 6 -108 6h-150l-18 -108q-18 -106 -19 -172q0 -33 74 -41l178 -21l-10 -55q-168 6 -338 6t-340 -6l10 55l176 21q51 6 73 28.5t34 85.5l41 209h-518zM154 508h415l138 764z" />
<glyph unicode="5" d="M29 84q29 100 59 285l47 -11q-6 -49 -6 -79q0 -102 69.5 -165t184.5 -63q133 0 217 88q135 139 135 367q0 139 -66.5 215t-187.5 76q-70 0 -125 -28t-120 -95l-43 18l131 717l16 10l43 -2q250 -12 299 -12l246 6l65 2l13 -18l-72 -119q-174 -10 -301 -10q-109 0 -248 10 l-104 -494q119 106 284 107q158 0 252 -93.5t94 -250.5q0 -139 -77 -283q-72 -133 -202 -209t-286 -76q-180 1 -317 107z" />
<glyph unicode="6" d="M100 410q0 422 273 753q113 139 230.5 204t258.5 65q51 0 99 -11l-33 -121h-17q-76 37 -133 37q-209 0 -350 -250q-92 -162 -156 -450q96 117 180.5 167t186.5 50q131 0 205 -83t74 -232q0 -156 -72 -283q-68 -123 -188.5 -201t-243.5 -78q-147 0 -230.5 115t-83.5 318z M256 356q0 -129 61.5 -206.5t161.5 -77.5q121 0 202 116.5t81 294.5q0 121 -58.5 189.5t-160.5 68.5q-125 0 -206 -108.5t-81 -276.5z" />
<glyph unicode="7" d="M109 10l206 326l570 919h-496q-33 0 -203 -10l-12 8l16 82q16 80 15 76q301 -6 604 -6q109 0 219 6v-74l-258 -415q-246 -395 -483 -928q0 6 -78 6q-47 0 -90 -6z" />
<glyph unicode="8" d="M74 266q0 158 127 291q84 86 243 164q-205 117 -204 283q0 160 141 294t307 134q125 0 199 -69t74 -183q0 -117 -65 -203t-241 -203q133 -74 180.5 -137.5t47.5 -169.5q0 -193 -150.5 -341.5t-347.5 -148.5q-141 0 -226 79t-85 210zM229 303q0 -113 58.5 -176.5 t165.5 -63.5q119 0 196.5 95.5t77.5 240.5q0 92 -35 146.5t-133 111.5l-59 35q-271 -141 -271 -389zM379 1069q0 -139 147 -223l70 -39q225 145 225 332q0 92 -55 149.5t-143 57.5q-104 0 -174 -79t-70 -198z" />
<glyph unicode="9" d="M66 227l43 17q47 -90 102 -129t133 -39q199 0 320 256q68 143 127 440q-90 -113 -168 -160t-174 -47q-137 0 -220.5 92.5t-83.5 243.5q0 213 147.5 372t346.5 159q156 0 237.5 -114t81.5 -333q0 -209 -60 -403.5t-171 -339.5q-94 -125 -209 -195t-227 -70q-84 0 -162 39 l-6 24l-8 30q-26 106 -49 157zM301 961q0 -135 60.5 -210t168.5 -75q119 0 196 103.5t77 260.5q0 135 -61.5 217t-161.5 82q-121 0 -200 -106t-79 -272z" />
<glyph unicode=":" horiz-adv-x="512" d="M90 86q0 59 36 101t87 42q39 0 65.5 -28.5t26.5 -69.5q0 -57 -37 -99t-88 -42q-41 0 -65.5 25.5t-24.5 70.5zM209 795q0 59 36 101t87 42q39 0 65.5 -28.5t26.5 -69.5q0 -59 -37 -100.5t-88 -41.5q-41 0 -65.5 26t-24.5 71z" />
<glyph unicode=";" horiz-adv-x="512" d="M-18 -279q117 147 178 400l16 65l186 60l19 -27q-96 -223 -313 -491l-72 -27zM233 791q0 59 36 101t87 42q39 0 66 -28.5t27 -69.5q0 -59 -37 -100.5t-88 -41.5q-41 0 -66 26t-25 71z" />
<glyph unicode="&#x3c;" horiz-adv-x="1241" d="M139 461v102l938 447v-127l-780 -371l780 -371v-127z" />
<glyph unicode="=" horiz-adv-x="1241" d="M82 279v114h1077v-114h-1077zM82 633v115h1077v-115h-1077z" />
<glyph unicode="&#x3e;" horiz-adv-x="1241" d="M139 14v127l781 371l-781 371v127l938 -447v-102z" />
<glyph unicode="?" d="M233 80q0 59 36 101t87 42q39 0 66 -28.5t27 -69.5q0 -57 -37 -99t-88 -42q-41 0 -66 25.5t-25 70.5zM236 1169l81 201q123 76 236 76q143 0 232 -76t89 -199q0 -152 -151 -297l-213 -204q-102 -96 -102 -158q0 -47 55 -104l-51 -13q-78 49 -78 129q0 100 112 228 l144 161q117 131 117 238q0 76 -57.5 125t-145.5 49q-63 0 -102.5 -23.5t-79.5 -82.5l-41 -62z" />
<glyph unicode="@" horiz-adv-x="1529" d="M55 692q0 317 215 535.5t527 218.5q285 0 479 -173t194 -427q0 -233 -149 -393q-70 -76 -162 -123t-164 -47q-63 0 -102 47t-45 133q-76 -100 -126 -134t-124 -34q-115 0 -192.5 88t-77.5 215q0 176 136 319.5t302 143.5q78 0 121 -41t61 -133l41 155h154l-162 -596 q-4 -16 -4 -32q0 -33 18.5 -54.5t44.5 -21.5q76 0 183 106q164 170 163 396q0 215 -169.5 364.5t-415.5 149.5q-279 0 -466.5 -187.5t-187.5 -461.5q0 -279 191.5 -464.5t478.5 -185.5q219 0 389 133q78 59 158 172h96q-78 -135 -157 -206q-213 -190 -496 -191 q-317 0 -534.5 211t-217.5 518zM483 532q0 -80 40 -134t98 -54q113 0 194 150q41 72 69.5 177t28.5 183q0 68 -32.5 113t-83.5 45q-84 0 -152 -72q-72 -76 -117 -190t-45 -218z" />
<glyph unicode="A" horiz-adv-x="1478" d="M-39 -6v61l41 11q53 12 90 45.5t90 117.5l764 1215h94l179 -1280q8 -70 25.5 -84t88.5 -23l53 -6v-57q-123 6 -249 6q-125 0 -250 -6v57l90 6q88 6 88 56q0 8 -4 45l-55 409h-504l-209 -358q-53 -90 -53 -113q0 -14 18 -25.5t45 -13.5l107 -6v-57q-106 6 -220 6 q-116 0 -229 -6zM553 641h442l-75 590z" />
<glyph unicode="B" horiz-adv-x="1251" d="M53 -6l10 53q66 10 90.5 24.5t28.5 41.5l178 1032q18 111 19 155q0 53 -72 56l-108 4l6 57q154 -6 309 -6q51 0 153.5 3t153.5 3q127 0 225.5 -73.5t98.5 -192.5q0 -156 -141 -281q-84 -72 -232 -122q188 -27 256 -82q84 -68 84 -201q0 -242 -252 -391q-133 -80 -291 -80 q-55 0 -164.5 3t-164.5 3q-95 0 -187 -6zM340 84q53 -4 70 -6q90 -8 168 -8q154 0 254 102t100 260q0 264 -314 264h-174zM457 770h106q190 0 298 91t108 253q0 227 -248 227q-29 0 -82 -5t-82 -5z" />
<glyph unicode="C" horiz-adv-x="1366" d="M92 582q0 471 363 716q219 147 479 148q176 0 399 -84q-41 -135 -55 -299h-55v172q-160 102 -367 102q-246 0 -389 -147q-195 -199 -195 -557q0 -274 128 -417.5t370 -143.5q121 0 218 32.5t241 120.5l20 -14l-20 -74q-139 -94 -259 -134t-268 -40q-295 0 -452.5 160 t-157.5 459z" />
<glyph unicode="D" horiz-adv-x="1593" d="M57 -6l11 53q20 6 42.5 11t42 18.5t23.5 36.5l178 1032q18 111 19 155q0 53 -72 56l-108 4l6 57q125 -6 252 -6q70 0 209 3t208 3q137 0 266.5 -26.5t196.5 -75.5q186 -131 187 -432q0 -254 -138.5 -472t-378.5 -341q-152 -76 -354 -76q-66 0 -199 3t-200 3 q-97 0 -191 -6zM344 115q209 -31 330 -31q272 0 438 170q217 221 217 596q0 252 -132 371.5t-411 119.5q-41 0 -118.5 -5t-118.5 -5l-197 -1141q-8 -48 -8 -75z" />
<glyph unicode="E" horiz-adv-x="1251" d="M61 -6l11 53q68 10 93 23.5t30 42.5l178 1032q18 98 18 158q0 51 -72 53l-110 4l6 57q164 -6 328 -6q82 0 242.5 3t240.5 3q74 0 141 -6q-35 -117 -43 -311h-49l-16 182q-4 49 -219 49q-84 -2 -267 -8q-10 -20 -18 -66l-86 -487h76l448 12l8 -14l-38 -92q-18 0 -36 3 t-69 4t-166 1h-239l-88 -518q-4 -25 -5 -72q152 -14 269 -14q229 0 307 20q33 8 49 31t31 76l33 123h55q-33 -164 -43 -256l-8 -74q-10 0 -60.5 -3t-154.5 -3q-76 0 -229.5 3t-231.5 3q-160 0 -316 -6z" />
<glyph unicode="F" horiz-adv-x="1138" d="M0 -6l8 57l74 6q63 4 78.5 31t40.5 168l153 889q18 111 19 155q0 53 -72 56l-115 4l7 57q154 -6 311 -6q80 0 240.5 3t240.5 3q70 0 137 -6q-33 -117 -43 -311h-49l-16 182q-4 49 -211 49q-207 -8 -252 -8q-10 -23 -19 -66l-94 -555h76l449 13l8 -15l-39 -92 q-18 0 -35.5 3t-69 4t-165.5 1h-240l-74 -456q-4 -16 -4 -43q0 -31 16.5 -44.5t57.5 -15.5l131 -6l-6 -57q-141 6 -283 6q-131 0 -260 -6z" />
<glyph unicode="G" horiz-adv-x="1478" d="M102 561q0 469 367 733q213 152 485 152q197 0 428 -84q-41 -135 -55 -299h-55v172q-160 102 -383 102q-254 0 -404 -151q-203 -203 -202 -578q0 -272 131 -412.5t385 -140.5q156 0 282 68l37 190q14 70 15 121q0 37 -29 48.5t-143 17.5l-70 4l10 53q131 -6 264 -6 q127 0 256 6q0 4 -4 -53l-65 -12q-47 -8 -56 -43l-47 -277q-1 -9 -1 -21q0 -24 5 -61l-8 -14q-47 -8 -115 -31q-246 -82 -403 -82q-301 0 -463 155.5t-162 442.5z" />
<glyph unicode="H" horiz-adv-x="1593" d="M-6 -6l8 57l84 6q61 4 77.5 31t41.5 168l151 889q18 115 19 155q0 53 -72 56l-96 4l6 57q143 -6 289 -6q117 0 233 6l-6 -57l-86 -6q-57 -4 -75.5 -21.5t-28.5 -77.5l-86 -467h757l62 357q18 111 18 155q0 53 -71 56l-99 4l6 57q143 -6 293 -6q109 0 219 6l-6 -57l-73 -6 q-57 -4 -76 -21.5t-29 -77.5l-188 -1065q-8 -47 -9 -71q0 -59 74 -62l119 -6l-6 -57q-135 6 -270 6q-145 0 -289 -6l8 57l102 6q63 2 76 29q14 18 43 170l82 440q0 6 -377 6l-377 -6l-86 -506q-8 -51 -8 -71q0 -33 16.5 -45.5t57.5 -16.5l100 -6l-6 -57q-127 6 -252 6 q-135 0 -270 -6z" />
<glyph unicode="I" horiz-adv-x="681" d="M14 -6l6 57l74 6q61 4 78.5 33t40.5 166l147 889q18 100 19 158q0 51 -72 53l-96 4l6 57q139 -6 279 -6q115 0 229 6l-6 -57l-72 -6q-59 -4 -76.5 -20.5t-27.5 -78.5l-183 -1095q-4 -20 -4 -43q0 -31 16.5 -43.5t57.5 -16.5l107 -6l-7 -57q-129 6 -258 6t-258 -6z" />
<glyph unicode="J" horiz-adv-x="681" d="M-72 -348q23 -8 60 -8q143 0 188 313l195 1317q2 10 2 26q0 53 -72 56l-96 4l6 57q145 -6 289 -6q117 0 233 6l-6 -57l-86 -6q-57 -4 -75.5 -21.5t-28.5 -77.5l-175 -1144q-23 -160 -69 -271q-51 -125 -127 -193.5t-160 -68.5q-39 0 -72 21z" />
<glyph unicode="K" horiz-adv-x="1366" d="M27 -6l8 57l84 6q61 4 77.5 31t41.5 168l149 889q18 100 19 155q0 53 -72 56l-96 4l6 57q145 -6 288 -6q117 0 234 6l-6 -57l-86 -6q-57 -4 -75.5 -21.5t-29.5 -77.5l-92 -532q182 141 305 268l262 266q78 78 78 101v59q68 -6 138 -6q68 0 139 6v-55h-43q-55 0 -111 -51 l-598 -559l504 -619q63 -78 131 -78h41v-61q-68 6 -139 6q-70 0 -142 -6q-164 223 -253 332.5t-316 369.5l-88 -536q-4 -16 -4 -43q0 -31 16.5 -43.5t57.5 -16.5l100 -6l-6 -57q-127 6 -252 6q-135 0 -270 -6z" />
<glyph unicode="L" horiz-adv-x="1138" d="M33 -6l10 53q68 10 93.5 23.5t29.5 42.5l176 1032q18 100 18 158q0 51 -71 53l-96 4l6 57q137 -6 276 -6q123 0 246 6l-6 -57l-86 -6q-57 -4 -75.5 -21.5t-29.5 -77.5l-188 -1089q-4 -25 -4 -72q147 -14 291 -14q250 0 295 22q29 10 55 109l35 127h63q-47 -226 -47 -323 v-15q-72 -6 -215 -6q-76 0 -229.5 3t-231.5 3q-159 0 -315 -6z" />
<glyph unicode="M" horiz-adv-x="1933" d="M-39 -6l6 53q84 8 119 36t57 107l297 1043q6 20 6 41q0 39 -31.5 57.5t-111.5 24.5l-53 4l6 57q84 -6 170 -6t172 6l307 -1184l504 865l95 166q34 61 42 77l18 36l19 40q84 -6 170 -6t172 6l-6 -57l-78 -4q-92 -6 -94 -64l-84 -1087l-2 -76q-2 -33 26.5 -50.5t84.5 -21.5 l75 -6l-6 -57q-135 6 -272 6q-135 0 -275 -6l6 57l64 6q80 8 107.5 22.5t29.5 57.5l76 1065l-107 -178l-489 -848l-117 -213h-47l-305 1184l-254 -950q-14 -51 -14 -84q0 -45 100 -56l78 -6l-6 -57q-111 6 -226 6q-116 0 -229 -6z" />
<glyph unicode="N" horiz-adv-x="1593" d="M4 -6l10 57l64 6q55 4 73.5 30t36.5 122l181 971q10 31 10 61.5t-62 79.5q-39 31 -102 35l-72 4l11 57q84 -6 165.5 -6t165.5 6l707 -1206l164 1001q10 66 10 95q0 47 -74 49l-96 4l10 57q109 -6 215 -6q111 0 226 6l-11 -57l-75 -4q-41 -2 -58.5 -16.5t-31 -60.5 t-33.5 -169l-193 -1133h-102l-692 1182l-164 -950q-6 -33 -6 -62q0 -51 19 -68.5t81 -21.5l86 -6l-10 -57q-111 6 -226 6q-112 0 -227 -6z" />
<glyph unicode="O" horiz-adv-x="1593" d="M109 557q0 385 238.5 637t602.5 252q276 0 429 -150.5t153 -425.5q0 -244 -112.5 -454.5t-305.5 -329.5q-195 -123 -452 -123q-270 0 -411.5 151.5t-141.5 442.5zM289 567q0 -256 113.5 -387t334.5 -131q242 0 393 156q104 109 163 274.5t59 358.5q0 340 -199 456 q-109 66 -266 66q-231 0 -375 -146q-106 -106 -164.5 -276t-58.5 -371z" />
<glyph unicode="P" horiz-adv-x="1251" d="M18 -6l9 57l84 6q61 4 77.5 32t40.5 167l152 889q18 115 18 155q0 53 -71 56l-113 4l6 57q168 -6 340 -6q47 0 141.5 3t141.5 3q147 0 260 -82t113 -227q0 -209 -145.5 -363.5t-344.5 -154.5q-80 0 -176 47l-4 63q102 -39 162 -38q135 0 231 117.5t96 283.5 q0 281 -309 280q-47 0 -145 -16l-10 -34q-5 -19 -5 -23l-18 -82l-168 -998q-8 -51 -8 -71q0 -59 73 -62l134 -6l-7 -57q-141 6 -284 6q-136 0 -271 -6z" />
<glyph unicode="Q" horiz-adv-x="1593" d="M109 557q0 385 238.5 637t602.5 252q276 0 429 -150.5t153 -425.5q0 -244 -112.5 -454.5t-305.5 -329.5q-195 -123 -452 -123q-270 0 -411.5 151.5t-141.5 442.5zM258 -291v18q0 103 68 170q74 73 188 72q63 0 135 -28l484 -197q80 -31 127 -31q121 0 139 162h51 q-16 -150 -74.5 -218.5t-173.5 -68.5q-61 0 -105 14.5t-136 61.5l-297 156q-111 59 -197 59q-158 0 -158 -231l-49 26zM289 567q0 -256 113.5 -387t334.5 -131q242 0 393 156q104 109 163 274.5t59 358.5q0 340 -199 456q-109 66 -266 66q-231 0 -375 -146 q-106 -106 -164.5 -276t-58.5 -371z" />
<glyph unicode="R" horiz-adv-x="1366" d="M18 -6l9 57l84 6q61 4 77.5 32t40.5 167l154 889q18 111 18 155q0 53 -71 56l-115 4l6 57q154 -6 309 -6q51 0 153.5 3t154.5 3q139 0 248.5 -72.5t109.5 -197.5q0 -193 -182 -324q-98 -72 -246 -98l377 -563q43 -63 72.5 -84t91.5 -29v-55q-59 6 -119 6q-76 0 -152 -6 q-178 303 -491 758l6 22h90q160 0 266.5 96.5t106.5 241.5q0 231 -273 231q-76 0 -155 -16l-15 -57l-18 -82l-174 -998q-8 -47 -8 -71q0 -31 16.5 -45.5t56.5 -16.5l101 -6l-6 -57q-127 6 -252 6q-136 0 -271 -6z" />
<glyph unicode="S" horiz-adv-x="1138" d="M86 41q31 147 49 311h62v-202q125 -88 278 -89q158 0 257 91.5t99 238.5q0 176 -165 215l-195 47q-129 31 -189.5 106t-60.5 206q0 180 129 309q176 172 416 172q137 0 270 -70q-39 -123 -51 -276h-61v155q-86 92 -230 93q-141 0 -233 -87t-92 -221q0 -199 196 -239 l133 -29q156 -35 225.5 -103.5t69.5 -189.5q0 -209 -176 -362.5t-414 -153.5q-161 0 -317 78z" />
<glyph unicode="T" horiz-adv-x="1251" d="M109 1081l36 336q289 -6 578 -6t577 6l-55 -336h-57l8 131q1 11 1 21q0 30 -9 55q-8 35 -240 35h-149l-193 -1133q-8 -43 -8 -71q0 -59 74 -62l121 -6l-7 -57q-135 6 -272 6q-145 0 -291 -6l8 57l105 6q61 4 78.5 32t40.5 167l176 1067h-230q-143 0 -165 -27 q-23 -25 -37 -92l-31 -123h-59z" />
<glyph unicode="U" horiz-adv-x="1593" d="M180 1360l6 57q92 -6 185 -6q90 0 182 6l-180 -977q-14 -74 -15 -123q0 -111 76 -174t209 -63q264 0 496 282l145 912q6 43 -9 61.5t-61 20.5l-98 4l6 57q137 -6 281 -6q115 0 231 6l-6 -57l-74 -6q-57 -4 -75.5 -21.5t-28.5 -77.5l-174 -1038q-12 -78 -12 -114.5 t65 -43.5l123 -8l-10 -57q-86 6 -174 6q-90 0 -183 -6l-10 10q39 162 55 260q-80 -92 -140 -139t-152 -94q-139 -70 -273 -70q-172 0 -269 89t-97 247q0 57 12 125l131 768q14 82 14 119q0 27 -14 36t-55 11z" />
<glyph unicode="V" horiz-adv-x="1478" d="M154 1360v57q125 -6 254 -6t254 6v-57l-87 -4q-49 -2 -70 -18q-17 -12 -17 -41q0 -9 1 -19l146 -1081l596 1007q33 55 33 86q0 57 -117 66l-53 4v57q125 -6 254 -6q98 0 196 6v-57l-37 -4q-43 -4 -65.5 -22.5t-61.5 -82.5l-774 -1267h-100l-180 1273q-8 55 -31 74t-90 25 z" />
<glyph unicode="W" horiz-adv-x="1933" d="M145 1360v57q113 -6 228 -6q125 0 248 6v-57l-76 -4q-98 -6 -92 -94l63 -992l459 934l106 230h37l324 -1172l301 946q18 55 18 100.5t-84 47.5l-80 4l11 57q98 -6 200 -6q100 0 199 6v-57l-41 -4q-68 -6 -88 -64l-350 -1038q-23 -66 -64 -217l-14 -53h-104 q-45 211 -80 331l-230 803l-458 -909q-61 -123 -103 -225h-102q-4 166 -17 340l-65 880q-6 88 -25.5 116t-83.5 36z" />
<glyph unicode="X" horiz-adv-x="1478" d="M41 -6v57l57 6q80 10 127 68l488 577l-299 553q-31 57 -61.5 76t-104.5 25l-53 4v57q135 -6 272 -6t272 6v-57l-75 -4q-88 -6 -89 -41q0 -20 29 -78l213 -408l330 402q47 57 47 86q0 33 -92 39l-68 4v57q117 -6 236 -6q117 0 233 6v-57l-57 -4q-41 -4 -64.5 -19.5 t-68.5 -66.5l-453 -516l350 -629q23 -37 49.5 -51.5t90.5 -18.5l51 -4v-57q-135 6 -273 6q-137 0 -276 -6v57q66 6 111 8q41 4 53 7.5t12 15.5q0 25 -29 82l-243 463l-373 -473q-20 -27 -21 -52q0 -33 113 -45l66 -6v-57q-119 6 -244 6q-127 0 -256 -6z" />
<glyph unicode="Y" horiz-adv-x="1366" d="M106 1325l162 119q141 -2 233.5 -171t207.5 -638q86 227 262 463q113 154 205 227.5t206 101.5l-12 -145q-90 -16 -163.5 -68.5t-162.5 -164.5q-113 -141 -200.5 -300t-102.5 -245l-53 -344q-4 -20 -4 -43q0 -31 16.5 -43.5t57.5 -16.5l100 -6l-6 -57q-127 6 -252 6 q-143 0 -285 -6l9 57l98 6q61 4 78.5 32t40.5 167l45 270q0 25 -45 188t-82 263q-63 172 -123 247.5t-131 75.5q-29 0 -92 -24z" />
<glyph unicode="Z" horiz-adv-x="1366" d="M41 -6v45l1028 1296h-369q-219 0 -368 -26l-13 -41q-35 -111 -43 -176h-53q23 205 23 323l241 2q242 -6 486 -6q166 0 332 6v-41l-1033 -1296h576q127 0 260 26q41 104 66 185l14 45h53q-41 -217 -47 -342q-479 6 -659 6z" />
<glyph unicode="[" horiz-adv-x="681" d="M33 -195l104 584q125 741 158 1104l16 8q0 -4 178 -4l179 4v-57l-181 -14q-20 -2 -27 -13.5t-16 -50.5l-32 -174l-84 -518l-105 -703q-12 -39 -5 -69.5t56 -34.5l162 -14l-14 -58l-193 6l-192 -6z" />
<glyph unicode="\" horiz-adv-x="1241" d="M166 1501h123l762 -1501h-123z" />
<glyph unicode="]" horiz-adv-x="681" d="M14 -147l181 14q20 2 27 13t16 50l32 174l136 865l24 172q2 10 18.5 104t16.5 141q0 37 -57 44l-162 14l10 57l193 -6l192 6l4 -10l-104 -584q-123 -731 -158 -1104l-16 -8l-177 4l-176 -4v58z" />
<glyph unicode="^" horiz-adv-x="1241" d="M104 580l449 831h135l447 -831h-125l-389 704l-392 -704h-125z" />
<glyph unicode="_" d="M0 -154h1024v-102h-1024v102z" />
<glyph unicode="`" horiz-adv-x="681" d="M373 1343q10 25 39.5 44.5t60.5 19.5t55 -37l203 -309h-69l-259 207q-44 34 -30 75z" />
<glyph unicode="a" horiz-adv-x="909" d="M8 135q0 123 43 288t111 302q39 76 94 127t152 98q76 37 153 37q74 0 174 -39l68 37l20 -18l-188 -777q-2 -6 -2 -20q0 -49 31 -49q39 0 127 74q6 4 26 22l14 -43q-238 -197 -299 -197q-49 0 -49 76q0 49 13 105l59 260q-160 -225 -283 -332q-125 -109 -194 -109 q-29 0 -49.5 46t-20.5 112zM156 203q0 -82 37 -82q51 0 138 84t171 213q92 143 151 430q-111 39 -174 39q-76 0 -119 -34t-79 -122q-53 -127 -89 -278.5t-36 -249.5z" />
<glyph unicode="b" horiz-adv-x="948" d="M76 125q0 14 2 20l207 1129q4 25 4 49q0 49 -70 49h-98l8 43q193 18 328 86l24 -22l-176 -815q94 121 156.5 179t142.5 99q90 45 168 45q49 0 72 -29q43 -53 43 -188q0 -203 -92.5 -394.5t-239.5 -295.5q-141 -102 -268 -103q-84 0 -147.5 44.5t-63.5 103.5zM229 207 q0 -133 146 -133q162 0 260 207q104 227 104 440q0 147 -80 147q-45 0 -113.5 -37.5t-119.5 -91.5q-117 -123 -170 -348q-27 -108 -27 -184z" />
<glyph unicode="c" horiz-adv-x="833" d="M51 279q0 164 53.5 310t141.5 224t186 126t168 48q121 0 197 -49q-27 -76 -49 -262h-48v123q0 37 -48 62.5t-117 25.5q-98 0 -160 -53q-74 -59 -121 -202t-47 -306q0 -244 174 -244q98 0 297 133l31 21l16 -41l-102 -84q-162 -133 -322 -134q-250 1 -250 302z" />
<glyph unicode="d" d="M35 176q0 129 28.5 263t75.5 223q72 133 197 229t231 96q72 0 168 -29l58 316q4 29 4 49q0 49 -70 49h-98l8 43q193 18 328 86l24 -22l-258 -1217q-16 -80 -16 -94q0 -47 28 -47q31 0 80 35l90 63l21 -39l-166 -123q-109 -80 -154 -80q-53 0 -53 72q0 78 33 209l47 186 q-102 -154 -166.5 -231.5t-148.5 -144.5q-113 -90 -201 -91q-90 0 -90 199zM182 201q0 -80 51 -80q29 0 84.5 32.5t108.5 84.5q205 197 264 481l25 121q-92 47 -217 47q-80 0 -121 -31q-76 -57 -135.5 -258.5t-59.5 -396.5z" />
<glyph unicode="e" horiz-adv-x="796" d="M31 229q0 106 39 260t86 230q61 98 199.5 183t238.5 85q78 0 125 -44t47 -116q0 -184 -254 -297q-96 -41 -141 -51l-168 -41q-16 -80 -17 -164q0 -94 41 -147t115 -53q115 0 281 119l49 34l16 -39q-143 -115 -237.5 -163t-182.5 -48q-111 0 -174 66.5t-63 185.5zM213 485 q131 29 223 72q80 39 129 104.5t49 133.5q0 49 -26.5 77.5t-71.5 28.5q-88 0 -156 -63q-80 -76 -129 -277z" />
<glyph unicode="f" horiz-adv-x="569" d="M-332 -549q27 49 47 164l29 8q45 -59 106 -59q113 0 173 184q72 223 182 922l18 114h-166l11 45q80 29 176 76l30 162q31 162 93 223q35 37 131 108.5t133 88.5q29 14 71 14q86 0 144 -26l-10 -31l-48 -137l-20 -9q-49 80 -147 80q-137 0 -185 -254l-43 -229h33 q123 0 172 14l14 4l9 -14q-20 -49 -35 -115h-213q-6 -39 -21 -100l-18 -80q-115 -545 -171.5 -722t-148.5 -288q-59 -72 -135 -115.5t-139 -43.5q-43 0 -72 16z" />
<glyph unicode="g" d="M-76 -326q0 129 109 220q94 80 295 145q-43 37 -43 67q0 45 55 97l84 78q-23 -2 -62 -2q-119 0 -184 66.5t-65 184.5q0 219 174 351q141 106 276 106q68 0 137 -26q63 -25 105 -93q135 0 209 19l6 -13l-19 -92q-63 -8 -102 -8h-70l2 -6q6 -31 7 -68q0 -137 -98.5 -250.5 t-247.5 -150.5l-13 -16q-43 -55 -43 -78q0 -57 96 -133l123 -101q131 -106 131 -219q0 -127 -148.5 -222t-346.5 -95q-168 0 -267.5 65t-99.5 174zM55 -297q0 -94 79 -152.5t206 -58.5t219 56.5t92 136.5q0 92 -133 196l-158 121q-135 -39 -202 -94q-103 -86 -103 -205z M258 590q0 -246 191 -246q109 0 175 98.5t66 255.5q0 219 -178 220q-113 0 -183.5 -91.5t-70.5 -236.5z" />
<glyph unicode="h" d="M20 4q84 252 181 791l86 479q4 29 4 49q0 49 -70 49h-98l8 43q193 18 328 86l24 -22l-200 -936l41 51q125 154 200 217q209 176 324 176q59 0 59 -74q0 -53 -22 -151l-131 -524q-14 -53 -15 -82q0 -41 27 -41q31 0 125 61l53 35l21 -37q-150 -113 -218.5 -152.5 t-109.5 -39.5q-61 0 -62 79q0 51 27 158l105 402q31 113 30 182q0 45 -45 45q-66 0 -193.5 -120t-195.5 -245q-82 -152 -127 -469l-141 -32z" />
<glyph unicode="i" horiz-adv-x="569" d="M70 795l57 41q213 152 274 151q51 0 52 -53q0 -20 -13 -74l-157 -622q-14 -53 -15 -82q0 -41 27 -41q33 0 125 61l53 35l21 -37q-150 -111 -219.5 -151.5t-108.5 -40.5q-61 0 -62 79q0 63 27 158l135 492q16 61 17 90q0 43 -35 43q-27 0 -98 -47l-66 -43zM348 1208 q0 53 37 95.5t82 42.5q33 0 53.5 -24t20.5 -60q0 -59 -32 -98.5t-79 -39.5q-39 0 -60.5 22.5t-21.5 61.5z" />
<glyph unicode="j" horiz-adv-x="569" d="M-143 -551l16 117q66 -39 109 -39q59 0 96 178l205 1014q14 61 14 81.5t-10.5 34t-26.5 13.5q-18 0 -53 -23.5t-43 -27.5l-66 -43l-14 41l57 41q213 152 275 151q51 0 51 -51q0 -23 -12 -76l-156 -717q-76 -342 -131 -467q-111 -242 -234 -241q-48 0 -77 14zM362 1208 q0 53 37 95.5t82 42.5q33 0 53.5 -24t20.5 -60q0 -59 -31.5 -98.5t-79.5 -39.5q-39 0 -60.5 22.5t-21.5 61.5z" />
<glyph unicode="k" horiz-adv-x="909" d="M16 2q141 565 168 723l99 549q4 29 4 49q0 49 -70 49h-98l8 43q193 18 328 86l24 -22l-219 -1008q193 270 327 393t234 123q43 0 99 -18l-35 -129q-51 12 -74 12q-145 0 -322 -176l-28 -29q100 -319 196 -493q25 -47 54 -48q23 0 59 21l88 49l16 -39l-94 -65 q-127 -90 -166 -90t-95 120.5t-163 427.5q-109 -109 -137 -260l-47 -254l-137 -34z" />
<glyph unicode="l" horiz-adv-x="569" d="M74 61q0 63 39 209l196 959q12 74 13 98q0 45 -70 45h-98l8 43q193 18 327 86l25 -22l-264 -1248q-12 -49 -12 -75q0 -41 26 -41q33 0 125 61l53 35l21 -37q-150 -111 -219.5 -151.5t-108.5 -40.5q-61 -1 -61 79z" />
<glyph unicode="m" horiz-adv-x="1593" d="M49 795l57 41q211 152 273 151q47 0 47 -63q0 -39 -12 -88l-68 -273q98 133 146.5 186.5t117.5 106.5q172 131 269 131q53 0 53 -63q0 -14 -14 -86l-62 -281q76 104 139.5 170t161.5 135q178 125 262 125q53 0 54 -57q0 -23 -15 -84l-153 -608q-14 -59 -15 -82 q0 -41 27 -41q31 0 125 61l53 35l21 -37q-150 -113 -218.5 -152.5t-109.5 -39.5q-61 0 -62 81q0 63 27 156l88 322q51 186 51 256q0 51 -26 51q-102 0 -281 -197q-141 -156 -192 -420l-43 -219l-142 -30l-10 22l33 137q129 539 129 664q0 43 -23 43q-94 0 -235 -156 q-84 -92 -132 -196.5t-85 -274.5l-45 -209l-140 -30l-6 22q63 219 115.5 467t52.5 326q0 51 -37 51q-20 0 -96 -51l-66 -43z" />
<glyph unicode="n" horiz-adv-x="1138" d="M49 795l57 41q213 152 273 151q47 0 47 -67q0 -29 -12 -84l-78 -330q141 199 242 291q90 84 187 137t160.5 53t63.5 -74q0 -57 -22 -151l-136 -565q-4 -16 -4 -41q0 -41 27 -41q31 0 125 61l53 35l21 -37q-150 -113 -218.5 -152.5t-109.5 -39.5q-61 0 -61 81q0 47 26 156 l107 434q23 90 22 146q0 49 -35 49q-70 0 -171 -85t-185 -214q-70 -106 -108.5 -223t-67.5 -310q-53 -10 -143 -34l-15 22q63 219 115.5 467t52.5 326q0 51 -37 51q-20 0 -96 -51l-66 -43z" />
<glyph unicode="o" horiz-adv-x="909" d="M35 311q0 188 66.5 338t191.5 238q141 100 276 100q127 0 200 -82t73 -227q0 -156 -61.5 -313.5t-155.5 -247.5q-150 -139 -328 -140q-127 0 -194.5 86t-67.5 248zM190 309q0 -121 49.5 -187.5t139.5 -66.5q96 0 153 68q68 82 111 228.5t43 293.5q0 264 -192 264 q-82 0 -123 -35q-76 -61 -128.5 -226t-52.5 -339z" />
<glyph unicode="p" d="M-14 -553l16 76l100 493l119 703q8 41 8 78q0 47 -34 47q-25 0 -99 -47l-65 -43l-15 41l58 41q211 152 272 151q45 0 45 -61q0 -33 -10 -90l-49 -244q90 150 198 246q172 150 301 149q55 0 88 -62.5t33 -164.5q0 -115 -45 -262.5t-108 -241.5q-66 -96 -209.5 -187.5 t-229.5 -91.5q-41 0 -106 23l-18 6l-86 -536q-84 -12 -150 -35zM256 121q76 -47 168 -47q129 0 190 90q82 117 136.5 278.5t54.5 286.5q0 139 -78 139q-127 0 -263 -166.5t-171 -363.5z" />
<glyph unicode="q" horiz-adv-x="948" d="M49 160q0 158 50.5 346t111.5 260q80 92 209 170q84 51 162 51q82 0 206 -49l68 45l29 -12q-27 -82 -56 -242l-176 -934q-25 -139 -39 -325q-80 -10 -176 -35l-18 28q43 47 55 117l156 848q-117 -207 -342 -377l-17 -12q-82 -61 -149 -62q-74 1 -74 183zM197 231 q0 -111 45 -110.5t128 65t162 162.5q111 137 144 289l43 194q-127 55 -199 56q-111 0 -149 -49q-63 -76 -118.5 -268t-55.5 -339z" />
<glyph unicode="r" horiz-adv-x="796" d="M53 795l58 41q211 152 272 151q47 0 47 -65q0 -31 -24 -140l-54 -258q45 96 193 310q109 154 200 153q14 0 41 -12q-25 -127 -32 -227h-29q-31 39 -74 38q-68 0 -170 -133q-123 -160 -174 -395l-53 -246q-90 -16 -137 -30l-21 14q61 195 115.5 454t54.5 349q0 45 -35 45 q-25 0 -98 -47l-65 -43z" />
<glyph unicode="s" horiz-adv-x="796" d="M18 33q31 131 45 270h52v-172q84 -72 192.5 -72t174 60.5t65.5 163.5q0 61 -27.5 90.5t-95.5 42.5l-129 24q-199 39 -199 207q0 102 76 180q156 160 330 160q92 0 205 -55q-27 -123 -39 -232h-47v113q-25 41 -78.5 66.5t-116.5 25.5q-88 0 -148.5 -55t-60.5 -137 q0 -63 35 -94t127 -48l88 -16q115 -20 166 -67.5t51 -131.5q0 -145 -147 -260q-152 -119 -299 -119q-109 1 -220 56z" />
<glyph unicode="t" horiz-adv-x="681" d="M84 799l4 26q51 14 180 76l51 348q104 41 160 74l23 -31q-47 -143 -92 -403q109 0 225 12l-23 -102h-219l-26 -127q-88 -420 -88 -516q0 -41 26 -41q37 0 125 61l92 64l21 -37l-64 -51q-123 -98 -186.5 -134t-116.5 -36q-61 0 -61 81q0 23 26 156l115 580h-172z" />
<glyph unicode="u" horiz-adv-x="1138" d="M66 795l57 41q211 152 272 151q45 0 45 -63q0 -33 -10 -88l-117 -555q-14 -74 -14 -107q0 -53 27 -53q63 0 170.5 99t197.5 241q92 145 140 387l20 104l139 35l15 -18l-172 -731q-12 -49 -13 -82q0 -35 27 -35q39 0 125 55l53 35l21 -37q-154 -115 -221.5 -156 t-106.5 -41q-61 0 -62 86q0 55 23 136l76 290q-129 -211 -291 -361.5t-258 -150.5q-31 0 -51.5 24t-20.5 58q0 57 8 99l129 608q4 20 5 37q0 41 -35 41q-27 0 -99 -47l-65 -43z" />
<glyph unicode="v" d="M43 721q39 168 78 242q33 15 59 14h6q197 -14 252 -14q70 0 125 24l21 -37q-150 -186 -215.5 -337.5t-65.5 -313.5q0 -100 44 -159.5t120 -59.5q135 0 257 204.5t122 432.5q0 129 -88 129q-29 0 -56 -19l-22 39l102 97q25 25 68 24q55 0 91 -56.5t36 -144.5 q0 -139 -80 -321q-100 -221 -258 -367q-135 -121 -258 -121q-98 0 -161.5 76t-63.5 195q0 154 71.5 295t241.5 325q-72 -8 -129 -8q-18 0 -56 2t-57 2q-80 0 -104 -57l-35 -86h-45z" />
<glyph unicode="w" horiz-adv-x="1478" d="M43 721q39 168 78 242q33 15 59 14h6q197 -14 252 -14q70 0 125 24l21 -37q-152 -172 -219.5 -330.5t-67.5 -340.5q0 -90 32.5 -144.5t86.5 -54.5q94 0 221 237q80 147 113 320l59 305l152 45l14 -16l-107 -377q-43 -154 -43 -320q0 -84 29 -139t74 -55q84 0 172 96 t144 245.5t56 295.5q0 129 -88 129q-29 0 -55 -19l-22 39l102 97q25 25 68 24q55 0 91 -56.5t36 -144.5q0 -139 -80 -321q-96 -211 -239.5 -349.5t-268.5 -138.5q-70 0 -111 59.5t-41 158.5q0 68 25 188q-115 -221 -203 -313.5t-186 -92.5q-82 0 -131.5 77t-49.5 204 q0 131 58.5 253t195.5 284l62 73q-68 -8 -121 -8q-18 0 -57 2t-58 2q-80 0 -104 -57l-35 -86h-45z" />
<glyph unicode="x" d="M18 2q2 6 5 20l4 25q16 88 16 133l41 6l22 -57q8 -18 58 -18q84 0 215 202l82 127l-23 127q-49 285 -147 285q-55 0 -141 -98l-35 20l118 170q31 43 117 43q90 0 136 -62.5t65 -213.5l12 -99l76 113q94 141 161.5 201.5t129.5 60.5q27 0 61 -20l-30 -174l-29 -9 q-16 47 -68 47q-47 0 -95 -39.5t-120 -140.5l-71 -100l36 -207q18 -104 52 -174q31 -61 78 -61t157 92l19 -39l-101 -90q-104 -94 -176 -95q-106 0 -147 254l-23 142l-156 -240q-102 -156 -211 -156q-41 0 -88 25z" />
<glyph unicode="y" d="M-16 -406q0 23 2 37l98 70l20 -8q-4 -37 -4 -45q0 -53 37 -90t90 -37q109 0 191 119.5t160 392.5l100 350q-115 -174 -229.5 -290t-172.5 -116q-39 0 -64.5 41t-23.5 105l2 82l35 497q1 19 1 36q0 102 -44 102q-20 0 -51 -25l-102 -61l-23 37l168 114q119 82 154 82 q49 0 49 -129q0 -72 -8 -199l-31 -397q-2 -22 -2 -39q0 -86 41 -86q33 0 98.5 58.5t118.5 136.5q121 180 164 346l71 270q63 6 152 39l23 -18l-289 -901q-90 -285 -246 -459t-317 -174q-70 0 -119 46.5t-49 112.5z" />
<glyph unicode="z" horiz-adv-x="909" d="M-2 43l723 819q-92 -47 -191 -47q-66 0 -165 21q-51 10 -93 10q-37 0 -79 -10l-62 -119h-43l66 250q70 20 125 20q43 0 163 -33q160 -43 275 -43q41 0 69 29l48 47l18 -18l-12 -66l-695 -782q102 43 195 43q59 0 176 -25q98 -23 137 -22q59 0 80 51l45 123h45 q-39 -168 -61 -293q-74 -20 -103 -21q-66 0 -241 41q-139 35 -215 35q-104 0 -187 -65z" />
<glyph unicode="{" horiz-adv-x="681" d="M31 645q94 27 137 77t59 152l60 353q27 158 105.5 216t260.5 58q-98 -25 -145 -79t-68 -167l-61 -352q-20 -125 -66.5 -178t-150.5 -80q76 -23 106.5 -56.5t30.5 -94.5q0 -51 -12 -121l-58 -332q-6 -41 -6 -76q0 -76 30 -112.5t105 -57.5q-139 2 -194 27q-82 37 -82 158 q0 49 10 114l55 320q8 43 9 92q0 57 -26.5 86.5t-98.5 52.5z" />
<glyph unicode="|" horiz-adv-x="1241" d="M563 -205v1706h115v-1706h-115z" />
<glyph unicode="}" horiz-adv-x="681" d="M29 -205q98 25 145 79t68 167l61 352q20 125 66.5 178.5t150.5 79.5q-76 20 -106.5 55t-30.5 97q0 49 12 121l58 331q6 37 6 76q0 76 -30 113t-105 57q139 -2 194 -26q82 -37 82 -160q0 -47 -10 -113l-55 -319q-8 -43 -9 -95q0 -55 28 -85.5t97 -51.5q-94 -27 -137 -77 t-59 -152l-60 -352q-27 -158 -105.5 -216.5t-260.5 -58.5z" />
<glyph unicode="~" horiz-adv-x="1241" d="M104 401q76 133 141.5 189.5t143.5 56.5q80 0 262 -80q154 -68 201 -67q119 0 215 172l70 -56q-127 -231 -283 -231q-68 0 -266 84q-98 41 -129 51t-68 10q-61 0 -108 -39.5t-109 -144.5z" />
<glyph unicode="&#xa1;" horiz-adv-x="681" d="M250 -537l252 1057l61 35l12 -6l-43 -316l-71 -589l-15 -146l-174 -53zM477 821q0 57 37 99.5t88 42.5q41 0 65.5 -26t24.5 -71q0 -59 -35.5 -101t-87.5 -42q-39 0 -65.5 28.5t-26.5 69.5z" />
<glyph unicode="&#xa2;" d="M115 287q0 168 66.5 327.5t166.5 231.5q172 121 299 137l55 145h68l-55 -145q76 0 141 -45q-37 -168 -43 -262h-47v131q0 35 -90 67l-299 -782q31 -10 53 -10q141 0 346 154l15 -41l-123 -101q-141 -113 -334 -117l-70 -174h-65l71 193q-47 14 -70.5 33.5t-45.5 62.5 q-39 78 -39 195zM266 305q0 -109 56 -174l286 754q-12 2 -28 2q-57 0 -110.5 -29t-82.5 -76q-41 -63 -81 -223t-40 -254z" />
<glyph unicode="&#xa3;" d="M4 55q117 61 168 178t86 379l6 47h-194l14 72h192q37 217 85.5 340t136.5 223q137 156 290 156q100 0 193 -57q-37 -109 -39 -250h-47v110q0 41 -54.5 73t-125.5 32q-156 0 -193 -193l-10 -51l-63 -295l-21 -88h291l-14 -72h-293q-59 -233 -107.5 -344.5t-118.5 -183.5 q106 31 174 31q41 0 123 -10l121 -17q53 -8 90 -8h62q41 0 53 2q49 6 74 74l45 123h49l-74 -324q-49 -31 -121 -31q-53 0 -311 52l-10 2l-12 2l-13 2q-137 25 -198 24q-43 0 -60.5 -5t-46.5 -28q-39 -31 -84 -57q-43 18 -43 92z" />
<glyph unicode="&#xa4;" d="M29 305l110 111q-104 135 -104 293q0 170 108 292l-114 115l63 66l117 -115q131 111 303 111q170 0 303 -111l117 115l63 -66l-114 -115q109 -127 108 -292q0 -154 -104 -293l110 -111l-63 -63l-113 108q-143 -115 -307 -114q-166 0 -307 114l-113 -108zM141 706.5 q0 -151.5 107.5 -258t263.5 -106.5t263.5 106.5t107.5 260t-107.5 258t-267.5 104.5q-154 0 -260.5 -106.5t-106.5 -258z" />
<glyph unicode="&#xa5;" d="M72 1266v49q70 59 125 117q102 4 180 -175.5t158 -603.5q145 367 266 545t248 217l-9 -143q-78 -18 -138 -84t-161 -232l-12 -20q-41 -68 -72 -143l-39 -88h197l-12 -70h-209q-20 -47 -31 -150h228l-13 -69h-225l-33 -226q-6 -49 -6 -71q0 -33 14.5 -45.5t49.5 -16.5 l84 -6l-5 -57h-47l-168 6l-147 -4l-94 -2l6 57l84 6q53 2 65 31q10 14 37 168l27 160h-236l13 69h233q4 23 4 45q0 39 -14 105h-203l12 70h172l-18 86q-59 270 -113.5 384.5t-124.5 114.5q-24 1 -73 -24z" />
<glyph unicode="&#xa6;" horiz-adv-x="1241" d="M563 -205v682h115v-682h-115zM563 819v682h115v-682h-115z" />
<glyph unicode="&#xa7;" d="M29 -344l67 289l49 -4l-12 -177q104 -121 258 -120q121 0 203 76.5t82 189.5q0 76 -41 127t-152 110l-104 58q-156 86 -217.5 155.5t-61.5 161.5q0 94 48.5 163t175.5 161q-84 92 -84 172q0 156 151 301q129 127 297 127q145 0 260 -82l-63 -264h-51l10 164 q-90 90 -221 90q-113 0 -190 -70t-77 -172q0 -109 95 -168l251 -156q123 -76 158 -118q53 -66 53 -154q0 -186 -219 -321q59 -53 82 -96.5t23 -104.5q0 -166 -160 -311q-141 -133 -313 -134q-170 1 -297 107zM229 590q0 -123 185 -228l237 -135q74 59 104.5 108.5 t30.5 108.5q0 68 -40.5 119t-139.5 111l-244 143q-133 -110 -133 -227z" />
<glyph unicode="&#xa8;" horiz-adv-x="681" d="M297 1208q0 53 37 95.5t82 42.5q33 0 53 -24t20 -60q0 -59 -31.5 -98.5t-78.5 -39.5q-39 0 -60.5 22.5t-21.5 61.5zM625 1208q0 53 36.5 95.5t81.5 42.5q33 0 53.5 -24t20.5 -60q0 -59 -31.5 -98.5t-78.5 -39.5q-39 0 -60.5 22.5t-21.5 61.5z" />
<glyph unicode="&#xa9;" horiz-adv-x="1529" d="M63 664q0 293 206 498.5t497 205.5t497.5 -207t206.5 -497.5t-205.5 -496.5t-498.5 -206q-291 0 -497 206t-206 497zM137 663.5q0 -262.5 183.5 -445.5t445.5 -183t446.5 184t184.5 445q0 262 -184.5 446t-446.5 184q-260 0 -444.5 -184t-184.5 -446.5zM381 596 q-4 262 217 399q137 84 301 84q109 0 250 -49q-23 -70 -33 -176h-47l-2 98q-92 53 -217 54q-137 0 -221 -78q-115 -104 -111 -303q4 -147 79 -225t216 -78q72 0 130 18t147 68l20 -13l-14 -49q-158 -98 -326 -98q-184 0 -285.5 90t-103.5 258z" />
<glyph unicode="&#xaa;" horiz-adv-x="681" d="M78 717l12 69h539l-13 -69h-538zM123 930q0 92 44 226t89 175q111 100 225 101q49 0 115 -23l43 23l14 -11l-121 -456l-2 -17q0 -35 25 -35q20 0 66 35q16 12 20 17l8 4l8 -25q-156 -117 -192 -117q-33 0 -33 45q0 18 8 64l33 160q-74 -100 -120 -148.5t-101 -83.5 q-59 -37 -84 -37q-18 0 -31.5 30t-13.5 73zM219 958q0 -43 23 -43q35 0 104.5 66t106.5 131q45 76 90 238q-76 23 -117 22q-59 0 -85 -22.5t-52 -94.5l-35 -96q-35 -95 -35 -201z" />
<glyph unicode="&#xab;" d="M117 514v33l397 354l39 -33l-281 -344l195 -350l-41 -31zM459 514v33l397 354l39 -33l-281 -344l195 -350l-41 -31z" />
<glyph unicode="&#xac;" horiz-adv-x="1241" d="M82 633v115h1077v-412h-115v295z" />
<glyph unicode="&#xad;" horiz-adv-x="681" d="M39 457l39 118h545l-37 -118h-547z" />
<glyph unicode="&#xae;" horiz-adv-x="1529" d="M63 664q0 293 206 498.5t497 205.5t497.5 -207t206.5 -497.5t-205.5 -496.5t-498.5 -206q-291 0 -497 206t-206 497zM137 663.5q0 -262.5 183.5 -445.5t445.5 -183t446.5 184t184.5 445q0 262 -184.5 446t-446.5 184q-260 0 -444.5 -184t-184.5 -446.5zM371 262l6 47 l53 4q18 0 30.5 19.5t15.5 34t9 49.5l86 491q10 63 9 84q0 25 -33 25l-70 2l4 47q63 -4 191 -4q33 0 94 2t92 2q98 0 165 -40t69 -118q0 -111 -111 -182q-59 -39 -141 -53l229 -305q41 -51 90 -58l2 -47q-39 6 -78 6q-51 0 -100 -6l-301 414l6 33h60q82 0 145 53t61 125 q-2 57 -46 90t-107 33q-29 0 -82 -9l-6 -26l-11 -45l-96 -549q-4 -29 -4 -39q0 -25 35 -29l61 -4l-4 -47q-80 6 -157 6q-82 0 -166 -6z" />
<glyph unicode="&#xaf;" horiz-adv-x="681" d="M240 1184l22 104h617l-23 -104h-616z" />
<glyph unicode="&#xb0;" horiz-adv-x="819" d="M184 1106q0 127 90.5 216t217 89t217 -91t90.5 -220q0 -123 -91.5 -213t-215.5 -90q-127 0 -217.5 90t-90.5 219zM266 1106q0 -94 65.5 -160.5t160.5 -66.5q92 0 158.5 66.5t66.5 156.5q0 94 -66.5 160.5t-161.5 66.5q-92 0 -157.5 -65.5t-65.5 -157.5z" />
<glyph unicode="&#xb1;" horiz-adv-x="1241" d="M82 0v115h1077v-115h-1077zM82 569v115h481v481h115v-481h481v-115h-481v-352h-115v352h-481z" />
<glyph unicode="&#xb2;" horiz-adv-x="614" d="M27 569v43q254 250 345 376t91 226q0 121 -131 121q-61 0 -99 -26.5t-83 -98.5l-37 21l80 147q78 53 176 54q102 0 163.5 -54.5t61.5 -146.5q0 -131 -119 -250l-328 -324h279q72 0 152 19l8 -23l-23 -84l-127 2q-20 0 -73.5 1t-65.5 1q-14 0 -69.5 -1t-73.5 -1z" />
<glyph unicode="&#xb3;" horiz-adv-x="614" d="M57 612l37 179l45 -7q-6 -27 -6 -53q0 -57 41 -88t117 -31q84 0 144.5 72t60.5 170q0 72 -44 112t-126 40q-41 0 -101 -21l-8 27l23 61h32l29 -2q80 -6 136.5 48.5t56.5 129.5q0 41 -37 70t-92 29q-76 0 -132 -70l-26 -35l-31 21l78 129q92 39 156 39q90 0 146 -45.5 t56 -114.5q0 -68 -45 -118t-151 -99q113 -23 160 -67t47 -126q0 -125 -108.5 -214t-262.5 -89q-111 0 -195 53z" />
<glyph unicode="&#xb4;" horiz-adv-x="681" d="M324 1061l313 309q37 37 67.5 37t54 -19.5t23.5 -44.5q0 -41 -57 -75l-332 -207h-69z" />
<glyph unicode="&#xb5;" horiz-adv-x="1138" d="M27 -446l254 1212q0 4 2 18.5t4 18.5q0 16 -10.5 28.5t-24.5 12.5q-25 0 -100 -47l-66 -43l-14 41l59 41q211 152 272 151q45 0 46 -65q0 -35 -11 -86l-123 -555q-14 -72 -14 -107q0 -53 27 -53q61 0 166.5 96t197.5 236q98 152 150 395l20 104l139 35l15 -18l-178 -731 l-2 -13q-10 -51 -11 -69q0 -35 27 -35q41 0 125 55l53 35l21 -37q-152 -113 -220.5 -152.5t-109.5 -39.5q-61 0 -62 81q0 41 29 156l74 270q-68 -115 -184 -247q-104 -117 -198.5 -191t-139.5 -74q-18 0 -37 7l-10 2l-19 -359q-4 -41 -68 -65l-61 -25z" />
<glyph unicode="&#xb6;" d="M68 1057q0 176 92 268t268 92l412 -6q145 -8 264 -1t147 7l-10 -61h-47q-80 0 -109.5 -28t-46.5 -116l-256 -1493q-10 -66 11.5 -91t91.5 -25h88l-10 -62q-43 0 -136.5 4t-273.5 2q-193 -2 -281 -4t-104 -2l10 62h62q63 0 88.5 29.5t40.5 123.5l129 756q-129 18 -226 98 q-204 171 -204 447zM293 1010q0 -360 217 -420l129 745q-86 10 -115 11q-119 0 -175 -82t-56 -254zM483 -387h140l301 1733h-140z" />
<glyph unicode="&#xb7;" horiz-adv-x="512" d="M137 512q0 49 35 84t84 35t84 -35t35 -84t-35 -84t-84 -35t-84 35t-35 84z" />
<glyph unicode="&#xb8;" horiz-adv-x="681" d="M-18 -401l34 59q92 -29 142 -29q47 0 77.5 26t30.5 66q0 35 -26.5 56.5t-69.5 21.5q-27 0 -53 -8l-15 -4l-18 16l127 207h78l-92 -141q45 4 49 4q78 0 123 -39t45 -104q0 -78 -69 -125t-183 -47q-71 0 -180 41z" />
<glyph unicode="&#xb9;" horiz-adv-x="614" d="M125 569l10 49l101 13q31 2 43 19.5t20 64.5l111 614q-47 -23 -62 -24q-16 -8 -37.5 -17.5t-25.5 -9.5l-111 -49l-10 6l14 88q121 25 219 59l142 50l20 -13l-8 -28q-12 -45 -21 -95l-106 -573q-4 -20 -4 -41q0 -31 16.5 -43t61.5 -14l86 -7l-9 -49l-106 2q-10 0 -60.5 1 t-58.5 1t-58 -1t-61 -1z" />
<glyph unicode="&#xba;" horiz-adv-x="681" d="M74 717l12 69h500l-13 -69h-499zM135 1024q0 170 101.5 289t244.5 119q84 0 131 -48.5t47 -136.5q0 -172 -104 -296t-250 -124q-82 0 -126 51.5t-44 145.5zM236 1036q0 -162 122 -162q84 0 140 95q61 113 61 262q0 154 -125 153q-88 0 -143 -97t-55 -251z" />
<glyph unicode="&#xbb;" d="M129 176l281 344l-195 350l41 31l309 -371v-32l-397 -355zM471 176l281 344l-195 350l41 31l309 -371v-32l-397 -355z" />
<glyph unicode="&#xbc;" horiz-adv-x="1536" d="M63 569l11 49l100 13q31 2 43 19.5t21 64.5l110 614q-47 -23 -61 -24q-16 -8 -38 -17.5t-26 -9.5l-110 -49l-11 6l15 88q121 25 219 59l141 50l21 -13l-9 -28q-12 -45 -20 -95l-107 -573q-4 -20 -4 -41q0 -31 16.5 -43t61.5 -14l86 -7l-8 -49l-106 2q-10 0 -60.5 1 t-58.5 1t-58.5 -1t-60.5 -1zM315 0l924 1432h115l-924 -1432h-115zM840 231v52l448 565l92 18l19 -14l-96 -545h155l6 -16l-22 -66q-43 6 -70 6h-88l-14 -57q-8 -33 -8 -72q0 -49 43 -51l110 -6l-8 -49h-45l-59 2q-18 2 -115 2q-98 0 -115 -2l-61 -2h-45l6 49l104 6 q33 2 48.5 18.5t25.5 57.5l27 104h-338zM915 307h281l98 484z" />
<glyph unicode="&#xbd;" horiz-adv-x="1536" d="M63 569l11 49l100 13q31 2 43 19.5t21 64.5l110 614q-47 -23 -61 -24q-16 -8 -38 -17.5t-26 -9.5l-110 -49l-11 6l15 88q121 25 219 59l141 50l21 -13l-9 -28q-12 -45 -20 -95l-107 -573q-4 -20 -4 -41q0 -31 16.5 -43t61.5 -14l86 -7l-8 -49l-106 2q-10 0 -60.5 1 t-58.5 1t-58.5 -1t-60.5 -1zM266 0l924 1432h115l-924 -1432h-115zM909 -4v43q254 250 345.5 376t91.5 226q0 121 -132 121q-61 0 -99 -26.5t-83 -98.5l-37 20l80 148q78 53 176 53q102 0 164 -54t62 -147q0 -131 -119 -249l-328 -324h279q72 0 151 18l8 -22l-22 -84h-53 l-74 2q-20 2 -139 2q-121 0 -144 -2l-73 -2h-54z" />
<glyph unicode="&#xbe;" horiz-adv-x="1536" d="M72 612l37 179l45 -7q-6 -27 -7 -53q0 -57 41 -88t117 -31q84 0 144.5 72t60.5 170q0 72 -44 112t-126 40q-41 0 -100 -21l-9 27l23 61h33l28 -2q80 -6 136.5 48.5t56.5 129.5q0 41 -37 70t-92 29q-76 0 -131 -70l-27 -35l-31 21l78 129q92 39 156 39q90 0 146.5 -45.5 t56.5 -114.5q0 -68 -45 -118t-152 -99q113 -23 160 -67t47 -126q0 -125 -108.5 -214t-262.5 -89q-110 0 -194 53zM315 0l924 1432h115l-924 -1432h-115zM840 231v52l448 565l92 18l19 -14l-96 -545h155l6 -16l-22 -66q-43 6 -70 6h-88l-14 -57q-8 -33 -8 -72q0 -49 43 -51 l110 -6l-8 -49h-45l-59 2q-18 2 -115 2q-98 0 -115 -2l-61 -2h-45l6 49l104 6q33 2 48.5 18.5t25.5 57.5l27 104h-338zM915 307h281l98 484z" />
<glyph unicode="&#xbf;" d="M315 -225q0 152 152 297l213 204q102 96 102 158q0 47 -55 105l51 12q78 -49 78 -129q0 -100 -113 -227l-143 -162q-117 -133 -117 -238q0 -76 57.5 -125t145.5 -49q63 0 102 23.5t80 83.5l41 61l45 -12l-82 -201q-123 -76 -235 -76q-143 0 -232.5 76t-89.5 199zM741 821 q0 57 37 99.5t88 42.5q41 0 65.5 -26t24.5 -71q0 -59 -35.5 -101t-86.5 -42q-39 0 -66 28.5t-27 69.5z" />
<glyph unicode="&#xc0;" horiz-adv-x="1478" d="M-39 -6v61l41 11q53 12 90 45.5t90 117.5l764 1215h94l179 -1280q8 -70 25.5 -84t88.5 -23l53 -6v-57q-123 6 -249 6q-125 0 -250 -6v57l90 6q88 6 88 56q0 8 -4 45l-55 409h-504l-209 -358q-53 -90 -53 -113q0 -14 18 -25.5t45 -13.5l107 -6v-57q-106 6 -220 6 q-116 0 -229 -6zM553 641h442l-75 590zM821 1761q6 20 37 35.5t66 15.5q37 0 59 -28l254 -252h-76l-299 168q-51 30 -41 61z" />
<glyph unicode="&#xc1;" horiz-adv-x="1478" d="M-39 -6v61l41 11q53 12 90 45.5t90 117.5l764 1215h94l179 -1280q8 -70 25.5 -84t88.5 -23l53 -6v-57q-123 6 -249 6q-125 0 -250 -6v57l90 6q88 6 88 56q0 8 -4 45l-55 409h-504l-209 -358q-53 -90 -53 -113q0 -14 18 -25.5t45 -13.5l107 -6v-57q-106 6 -220 6 q-116 0 -229 -6zM553 641h442l-75 590zM782 1532l342 252q35 29 70 28q33 0 59.5 -15t26.5 -36q-2 -31 -66 -61l-356 -168h-76z" />
<glyph unicode="&#xc2;" horiz-adv-x="1478" d="M-39 -6v61l41 11q53 12 90 45.5t90 117.5l764 1215h94l179 -1280q8 -70 25.5 -84t88.5 -23l53 -6v-57q-123 6 -249 6q-125 0 -250 -6v57l90 6q88 6 88 56q0 8 -4 45l-55 409h-504l-209 -358q-53 -90 -53 -113q0 -14 18 -25.5t45 -13.5l107 -6v-57q-106 6 -220 6 q-116 0 -229 -6zM553 641h442l-75 590zM649 1534l348 281h109l194 -281h-81l-179 174l-305 -174h-86z" />
<glyph unicode="&#xc3;" horiz-adv-x="1478" d="M-39 -6v61l41 11q53 12 90 45.5t90 117.5l764 1215h94l179 -1280q8 -70 25.5 -84t88.5 -23l53 -6v-57q-123 6 -249 6q-125 0 -250 -6v57l90 6q88 6 88 56q0 8 -4 45l-55 409h-504l-209 -358q-53 -90 -53 -113q0 -14 18 -25.5t45 -13.5l107 -6v-57q-106 6 -220 6 q-116 0 -229 -6zM553 641h442l-75 590zM700 1569q31 113 78 162t123 49q55 0 129 -29l123 -49q25 -10 55.5 -10t52 18.5t52.5 69.5h57q-18 -100 -70.5 -155.5t-128.5 -55.5q-47 0 -131 33q-94 37 -96 38q-45 18 -78 19q-39 0 -61.5 -19.5t-44.5 -70.5h-60z" />
<glyph unicode="&#xc4;" horiz-adv-x="1478" d="M-39 -6v61l41 11q53 12 90 45.5t90 117.5l764 1215h94l179 -1280q8 -70 25.5 -84t88.5 -23l53 -6v-57q-123 6 -249 6q-125 0 -250 -6v57l90 6q88 6 88 56q0 8 -4 45l-55 409h-504l-209 -358q-53 -90 -53 -113q0 -14 18 -25.5t45 -13.5l107 -6v-57q-106 6 -220 6 q-116 0 -229 -6zM553 641h442l-75 590zM772 1647q0 53 37 95t82 42q33 0 53.5 -23.5t20.5 -60.5q0 -59 -32 -98t-79 -39q-39 0 -60.5 22.5t-21.5 61.5zM1100 1647q0 53 37 95t82 42q33 0 53 -23.5t20 -60.5q0 -59 -31.5 -98t-78.5 -39q-39 0 -60.5 22.5t-21.5 61.5z" />
<glyph unicode="&#xc5;" horiz-adv-x="1478" d="M-39 -6v61l41 11q53 12 90 45.5t90 117.5l764 1215h94l179 -1280q8 -70 25.5 -84t88.5 -23l53 -6v-57q-123 6 -249 6q-125 0 -250 -6v57l90 6q88 6 88 56q0 8 -4 45l-55 409h-504l-209 -358q-53 -90 -53 -113q0 -14 18 -25.5t45 -13.5l107 -6v-57q-106 6 -220 6 q-116 0 -229 -6zM553 641h442l-75 590zM838 1714q0 86 60 145.5t146 59.5q84 0 143.5 -60.5t59.5 -144.5q0 -86 -60.5 -145.5t-144.5 -59.5q-86 0 -145 59.5t-59 145.5zM915 1714.5q0 -59.5 35 -95.5t92.5 -36t92 36t34.5 95.5t-34.5 95t-92 35.5t-92.5 -35.5t-35 -95z" />
<glyph unicode="&#xc6;" horiz-adv-x="1927" d="M-8 -6v61l69 11q37 6 74 61l754 1116q27 41 26 74q0 14 -23.5 26.5t-51.5 12.5h-135v61q250 -6 497 -6q84 0 252 3t252 3q76 0 141 -6q-35 -117 -43 -311h-49l-16 182q-2 23 -56.5 36t-136.5 13l-155 -4l-97 -4q-10 -20 -18 -66l-86 -487h35l448 12l8 -14l-39 -92 q-18 0 -35.5 3t-68.5 4t-166 1h-198l-89 -518q-4 -25 -4 -72q176 -14 230 -14q227 0 301 18q33 8 50 31t34 78l33 123h55l-10 -54q-27 -150 -33 -202l-8 -74q-29 0 -49.5 -2t-54.5 -3t-109 -1q-72 0 -215.5 3t-214.5 3q-152 0 -304 -6l11 53q66 10 89 27.5t32 60.5l77 436 h-454l-222 -370l-20 -41q-20 -39 -20 -49q0 -55 124 -56h50v-61q-137 6 -220 6zM594 653h414l110 688h-28q-29 0 -76 -71z" />
<glyph unicode="&#xc7;" horiz-adv-x="1366" d="M92 582q0 471 363 716q219 147 479 148q176 0 399 -84q-41 -135 -55 -299h-55v172q-160 102 -367 102q-246 0 -389 -147q-195 -199 -195 -557q0 -274 128 -417.5t370 -143.5q121 0 218 32.5t241 120.5l20 -14l-20 -74q-139 -94 -259 -134t-268 -40h-10h-6l-65 -94 q33 4 47 4q80 0 125 -38t45 -105q0 -78 -69 -125t-183 -47q-72 0 -180 41l34 59q88 -29 142 -29q47 0 77.5 26t30.5 66q0 35 -26.5 56.5t-69.5 21.5q-20 0 -68 -12l-18 16l104 164l-6 2q-250 25 -382 183t-132 430z" />
<glyph unicode="&#xc8;" horiz-adv-x="1251" d="M61 -6l11 53q68 10 93 23.5t30 42.5l178 1032q18 98 18 158q0 51 -72 53l-110 4l6 57q164 -6 328 -6q82 0 242.5 3t240.5 3q74 0 141 -6q-35 -117 -43 -311h-49l-16 182q-4 49 -219 49q-84 -2 -267 -8q-10 -20 -18 -66l-86 -487h76l448 12l8 -14l-38 -92q-18 0 -36 3 t-69 4t-166 1h-239l-88 -518q-4 -25 -5 -72q152 -14 269 -14q229 0 307 20q33 8 49 31t31 76l33 123h55q-33 -164 -43 -256l-8 -74q-10 0 -60.5 -3t-154.5 -3q-76 0 -229.5 3t-231.5 3q-160 0 -316 -6zM618 1761q6 20 38 35.5t65 15.5q37 0 59 -28l254 -252h-76l-299 168 q-51 30 -41 61z" />
<glyph unicode="&#xc9;" horiz-adv-x="1251" d="M61 -6l11 53q68 10 93 23.5t30 42.5l178 1032q18 98 18 158q0 51 -72 53l-110 4l6 57q164 -6 328 -6q82 0 242.5 3t240.5 3q74 0 141 -6q-35 -117 -43 -311h-49l-16 182q-4 49 -219 49q-84 -2 -267 -8q-10 -20 -18 -66l-86 -487h76l448 12l8 -14l-38 -92q-18 0 -36 3 t-69 4t-166 1h-239l-88 -518q-4 -25 -5 -72q152 -14 269 -14q229 0 307 20q33 8 49 31t31 76l33 123h55q-33 -164 -43 -256l-8 -74q-10 0 -60.5 -3t-154.5 -3q-76 0 -229.5 3t-231.5 3q-160 0 -316 -6zM580 1532l342 252q35 29 69 28q33 0 59.5 -15t26.5 -36q-2 -31 -65 -61 l-357 -168h-75z" />
<glyph unicode="&#xca;" horiz-adv-x="1251" d="M61 -6l11 53q68 10 93 23.5t30 42.5l178 1032q18 98 18 158q0 51 -72 53l-110 4l6 57q164 -6 328 -6q82 0 242.5 3t240.5 3q74 0 141 -6q-35 -117 -43 -311h-49l-16 182q-4 49 -219 49q-84 -2 -267 -8q-10 -20 -18 -66l-86 -487h76l448 12l8 -14l-38 -92q-18 0 -36 3 t-69 4t-166 1h-239l-88 -518q-4 -25 -5 -72q152 -14 269 -14q229 0 307 20q33 8 49 31t31 76l33 123h55q-33 -164 -43 -256l-8 -74q-10 0 -60.5 -3t-154.5 -3q-76 0 -229.5 3t-231.5 3q-160 0 -316 -6zM446 1534l349 281h108l195 -281h-82l-178 174l-306 -174h-86z" />
<glyph unicode="&#xcb;" horiz-adv-x="1251" d="M61 -6l11 53q68 10 93 23.5t30 42.5l178 1032q18 98 18 158q0 51 -72 53l-110 4l6 57q164 -6 328 -6q82 0 242.5 3t240.5 3q74 0 141 -6q-35 -117 -43 -311h-49l-16 182q-4 49 -219 49q-84 -2 -267 -8q-10 -20 -18 -66l-86 -487h76l448 12l8 -14l-38 -92q-18 0 -36 3 t-69 4t-166 1h-239l-88 -518q-4 -25 -5 -72q152 -14 269 -14q229 0 307 20q33 8 49 31t31 76l33 123h55q-33 -164 -43 -256l-8 -74q-10 0 -60.5 -3t-154.5 -3q-76 0 -229.5 3t-231.5 3q-160 0 -316 -6zM569 1647q0 53 37 95t82 42q33 0 53.5 -23.5t20.5 -60.5q0 -59 -32 -98 t-79 -39q-39 0 -60.5 22.5t-21.5 61.5zM897 1647q0 53 37 95t82 42q33 0 53.5 -23.5t20.5 -60.5q0 -59 -32 -98t-79 -39q-39 0 -60.5 22.5t-21.5 61.5z" />
<glyph unicode="&#xcc;" horiz-adv-x="681" d="M14 -6l6 57l74 6q61 4 78.5 33t40.5 166l147 889q18 100 19 158q0 51 -72 53l-96 4l6 57q139 -6 279 -6q115 0 229 6l-6 -57l-72 -6q-59 -4 -76.5 -20.5t-27.5 -78.5l-183 -1095q-4 -20 -4 -43q0 -31 16.5 -43.5t57.5 -16.5l107 -6l-7 -57q-129 6 -258 6t-258 -6z M322 1761q6 20 36.5 35.5t65.5 15.5q37 0 59 -28l254 -252h-75l-300 168q-50 30 -40 61z" />
<glyph unicode="&#xcd;" horiz-adv-x="681" d="M14 -6l6 57l74 6q61 4 78.5 33t40.5 166l147 889q18 100 19 158q0 51 -72 53l-96 4l6 57q139 -6 279 -6q115 0 229 6l-6 -57l-72 -6q-59 -4 -76.5 -20.5t-27.5 -78.5l-183 -1095q-4 -20 -4 -43q0 -31 16.5 -43.5t57.5 -16.5l107 -6l-7 -57q-129 6 -258 6t-258 -6z M283 1532l342 252q35 29 69 28q33 0 59.5 -15t26.5 -36q-2 -31 -65 -61l-357 -168h-75z" />
<glyph unicode="&#xce;" horiz-adv-x="681" d="M14 -6l6 57l74 6q61 4 78.5 33t40.5 166l147 889q18 100 19 158q0 51 -72 53l-96 4l6 57q139 -6 279 -6q115 0 229 6l-6 -57l-72 -6q-59 -4 -76.5 -20.5t-27.5 -78.5l-183 -1095q-4 -20 -4 -43q0 -31 16.5 -43.5t57.5 -16.5l107 -6l-7 -57q-129 6 -258 6t-258 -6z M150 1534l348 281h108l195 -281h-82l-178 174l-305 -174h-86z" />
<glyph unicode="&#xcf;" horiz-adv-x="681" d="M14 -6l6 57l74 6q61 4 78.5 33t40.5 166l147 889q18 100 19 158q0 51 -72 53l-96 4l6 57q139 -6 279 -6q115 0 229 6l-6 -57l-72 -6q-59 -4 -76.5 -20.5t-27.5 -78.5l-183 -1095q-4 -20 -4 -43q0 -31 16.5 -43.5t57.5 -16.5l107 -6l-7 -57q-129 6 -258 6t-258 -6z M272 1647q0 53 37 95t82 42q33 0 53.5 -23.5t20.5 -60.5q0 -59 -32 -98t-79 -39q-39 0 -60.5 22.5t-21.5 61.5zM600 1647q0 53 37 95t82 42q33 0 53.5 -23.5t20.5 -60.5q0 -59 -32 -98t-79 -39q-39 0 -60.5 22.5t-21.5 61.5z" />
<glyph unicode="&#xd0;" horiz-adv-x="1593" d="M39 709l12 65h240l63 371q18 115 19 155q0 53 -72 56l-108 4l6 57l252 -6l417 6q319 0 463 -102q186 -131 187 -432q0 -256 -138.5 -474.5t-378.5 -338.5q-145 -76 -354 -76q-8 0 -40 1t-54 1l-193 4h-65h-47l-191 -6l11 53l16 4q49 12 68.5 24.5t23.5 37.5l103 596h-240 zM344 115q193 -31 330 -31q272 0 438 170q217 223 217 596q0 254 -131 372.5t-412 118.5q-45 0 -141 -6q-25 0 -52.5 -2t-43.5 -2l-94 -557h383l-13 -65h-383l-90 -519q-8 -48 -8 -75z" />
<glyph unicode="&#xd1;" horiz-adv-x="1593" d="M4 -6l10 57l64 6q55 4 73.5 30t36.5 122l181 971q10 31 10 61.5t-62 79.5q-39 31 -102 35l-72 4l11 57q84 -6 165.5 -6t165.5 6l707 -1206l164 1001q10 66 10 95q0 47 -74 49l-96 4l10 57q109 -6 215 -6q111 0 226 6l-11 -57l-75 -4q-41 -2 -58.5 -16.5t-31 -60.5 t-33.5 -169l-193 -1133h-102l-692 1182l-164 -950q-6 -33 -6 -62q0 -51 19 -68.5t81 -21.5l86 -6l-10 -57q-111 6 -226 6q-112 0 -227 -6zM686 1569q31 113 78 162t123 49q55 0 129 -29l123 -49q25 -10 55.5 -10t52 18.5t51.5 69.5h58q-18 -100 -70.5 -155.5t-128.5 -55.5 q-47 0 -131 33q-94 37 -96 38q-45 18 -78 19q-39 0 -61.5 -19.5t-45.5 -70.5h-59z" />
<glyph unicode="&#xd2;" horiz-adv-x="1593" d="M109 557q0 385 238.5 637t602.5 252q276 0 429 -150.5t153 -425.5q0 -244 -112.5 -454.5t-305.5 -329.5q-195 -123 -452 -123q-270 0 -411.5 151.5t-141.5 442.5zM289 567q0 -256 113.5 -387t334.5 -131q242 0 393 156q104 109 163 274.5t59 358.5q0 340 -199 456 q-109 66 -266 66q-231 0 -375 -146q-106 -106 -164.5 -276t-58.5 -371zM778 1761q6 20 38 35.5t65 15.5q37 0 59 -28l254 -252h-76l-299 168q-51 30 -41 61z" />
<glyph unicode="&#xd3;" horiz-adv-x="1593" d="M109 557q0 385 238.5 637t602.5 252q276 0 429 -150.5t153 -425.5q0 -244 -112.5 -454.5t-305.5 -329.5q-195 -123 -452 -123q-270 0 -411.5 151.5t-141.5 442.5zM289 567q0 -256 113.5 -387t334.5 -131q242 0 393 156q104 109 163 274.5t59 358.5q0 340 -199 456 q-109 66 -266 66q-231 0 -375 -146q-106 -106 -164.5 -276t-58.5 -371zM739 1532l342 252q35 29 70 28q33 0 59.5 -15t26.5 -36q-2 -31 -66 -61l-356 -168h-76z" />
<glyph unicode="&#xd4;" horiz-adv-x="1593" d="M109 557q0 385 238.5 637t602.5 252q276 0 429 -150.5t153 -425.5q0 -244 -112.5 -454.5t-305.5 -329.5q-195 -123 -452 -123q-270 0 -411.5 151.5t-141.5 442.5zM289 567q0 -256 113.5 -387t334.5 -131q242 0 393 156q104 109 163 274.5t59 358.5q0 340 -199 456 q-109 66 -266 66q-231 0 -375 -146q-106 -106 -164.5 -276t-58.5 -371zM606 1534l348 281h109l194 -281h-81l-179 174l-305 -174h-86z" />
<glyph unicode="&#xd5;" horiz-adv-x="1593" d="M109 557q0 385 238.5 637t602.5 252q276 0 429 -150.5t153 -425.5q0 -244 -112.5 -454.5t-305.5 -329.5q-195 -123 -452 -123q-270 0 -411.5 151.5t-141.5 442.5zM289 567q0 -256 113.5 -387t334.5 -131q242 0 393 156q104 109 163 274.5t59 358.5q0 340 -199 456 q-109 66 -266 66q-231 0 -375 -146q-106 -106 -164.5 -276t-58.5 -371zM657 1569q31 113 78 162t123 49q55 0 129 -29l123 -49q25 -10 55.5 -10t52 18.5t52.5 69.5h57q-18 -100 -70.5 -155.5t-128.5 -55.5q-47 0 -131 33q-94 37 -96 38q-45 18 -78 19q-39 0 -61.5 -19.5 t-44.5 -70.5h-60z" />
<glyph unicode="&#xd6;" horiz-adv-x="1593" d="M109 557q0 385 238.5 637t602.5 252q276 0 429 -150.5t153 -425.5q0 -244 -112.5 -454.5t-305.5 -329.5q-195 -123 -452 -123q-270 0 -411.5 151.5t-141.5 442.5zM289 567q0 -256 113.5 -387t334.5 -131q242 0 393 156q104 109 163 274.5t59 358.5q0 340 -199 456 q-109 66 -266 66q-231 0 -375 -146q-106 -106 -164.5 -276t-58.5 -371zM729 1647q0 53 37 95t82 42q33 0 53.5 -23.5t20.5 -60.5q0 -59 -32 -98t-79 -39q-39 0 -60.5 22.5t-21.5 61.5zM1057 1647q0 53 36.5 95t82.5 42q33 0 53 -23.5t20 -60.5q0 -59 -31.5 -98t-78.5 -39 q-39 0 -60.5 22.5t-21.5 61.5z" />
<glyph unicode="&#xd7;" horiz-adv-x="1241" d="M199 172l340 340l-340 340l82 82l340 -340l340 340l81 -82l-340 -340l340 -340l-81 -82l-340 340l-340 -340z" />
<glyph unicode="&#xd8;" horiz-adv-x="1593" d="M66 -31l159 170q-63 92 -89.5 187.5t-26.5 232.5q0 383 238.5 635t600.5 252q231 0 406 -129l147 160l60 -54l-152 -161q70 -86 96.5 -169t26.5 -208q0 -395 -246 -658.5t-612 -263.5q-238 0 -400 125l-151 -168zM289 563q0 -168 55 -295l889 961q-80 72 -158 101.5 t-188 29.5q-233 0 -375 -146q-106 -109 -164.5 -278.5t-58.5 -372.5zM387 199q129 -150 352 -150q240 0 391 156q221 227 222 639q0 180 -74 317z" />
<glyph unicode="&#xd9;" horiz-adv-x="1593" d="M180 1360l6 57q92 -6 185 -6q90 0 182 6l-180 -977q-14 -74 -15 -123q0 -111 76 -174t209 -63q264 0 496 282l145 912q6 43 -9 61.5t-61 20.5l-98 4l6 57q137 -6 281 -6q115 0 231 6l-6 -57l-74 -6q-57 -4 -75.5 -21.5t-28.5 -77.5l-174 -1038q-12 -78 -12 -114.5 t65 -43.5l123 -8l-10 -57q-86 6 -174 6q-90 0 -183 -6l-10 10q39 162 55 260q-80 -92 -140 -139t-152 -94q-139 -70 -273 -70q-172 0 -269 89t-97 247q0 57 12 125l131 768q14 82 14 119q0 27 -14 36t-55 11zM760 1761q6 20 36.5 35.5t65.5 15.5q37 0 60 -28l254 -252h-76 l-299 168q-51 30 -41 61z" />
<glyph unicode="&#xda;" horiz-adv-x="1593" d="M180 1360l6 57q92 -6 185 -6q90 0 182 6l-180 -977q-14 -74 -15 -123q0 -111 76 -174t209 -63q264 0 496 282l145 912q6 43 -9 61.5t-61 20.5l-98 4l6 57q137 -6 281 -6q115 0 231 6l-6 -57l-74 -6q-57 -4 -75.5 -21.5t-28.5 -77.5l-174 -1038q-12 -78 -12 -114.5 t65 -43.5l123 -8l-10 -57q-86 6 -174 6q-90 0 -183 -6l-10 10q39 162 55 260q-80 -92 -140 -139t-152 -94q-139 -70 -273 -70q-172 0 -269 89t-97 247q0 57 12 125l131 768q14 82 14 119q0 27 -14 36t-55 11zM721 1532l342 252q35 29 70 28q33 0 59.5 -15t26.5 -36 q-2 -31 -66 -61l-356 -168h-76z" />
<glyph unicode="&#xdb;" horiz-adv-x="1593" d="M180 1360l6 57q92 -6 185 -6q90 0 182 6l-180 -977q-14 -74 -15 -123q0 -111 76 -174t209 -63q264 0 496 282l145 912q6 43 -9 61.5t-61 20.5l-98 4l6 57q137 -6 281 -6q115 0 231 6l-6 -57l-74 -6q-57 -4 -75.5 -21.5t-28.5 -77.5l-174 -1038q-12 -78 -12 -114.5 t65 -43.5l123 -8l-10 -57q-86 6 -174 6q-90 0 -183 -6l-10 10q39 162 55 260q-80 -92 -140 -139t-152 -94q-139 -70 -273 -70q-172 0 -269 89t-97 247q0 57 12 125l131 768q14 82 14 119q0 27 -14 36t-55 11zM588 1534l348 281h108l195 -281h-82l-178 174l-305 -174h-86z " />
<glyph unicode="&#xdc;" horiz-adv-x="1593" d="M180 1360l6 57q92 -6 185 -6q90 0 182 6l-180 -977q-14 -74 -15 -123q0 -111 76 -174t209 -63q264 0 496 282l145 912q6 43 -9 61.5t-61 20.5l-98 4l6 57q137 -6 281 -6q115 0 231 6l-6 -57l-74 -6q-57 -4 -75.5 -21.5t-28.5 -77.5l-174 -1038q-12 -78 -12 -114.5 t65 -43.5l123 -8l-10 -57q-86 6 -174 6q-90 0 -183 -6l-10 10q39 162 55 260q-80 -92 -140 -139t-152 -94q-139 -70 -273 -70q-172 0 -269 89t-97 247q0 57 12 125l131 768q14 82 14 119q0 27 -14 36t-55 11zM711 1647q0 53 36.5 95t81.5 42q33 0 53.5 -23.5t20.5 -60.5 q0 -59 -31.5 -98t-78.5 -39q-39 0 -60.5 22.5t-21.5 61.5zM1038 1647q0 53 37 95t82 42q33 0 53.5 -23.5t20.5 -60.5q0 -59 -32 -98t-79 -39q-39 0 -60.5 22.5t-21.5 61.5z" />
<glyph unicode="&#xdd;" horiz-adv-x="1366" d="M106 1325l162 119q141 -2 233.5 -171t207.5 -638q86 227 262 463q113 154 205 227.5t206 101.5l-12 -145q-90 -16 -163.5 -68.5t-162.5 -164.5q-113 -141 -200.5 -300t-102.5 -245l-53 -344q-4 -20 -4 -43q0 -31 16.5 -43.5t57.5 -16.5l100 -6l-6 -57q-127 6 -252 6 q-143 0 -285 -6l9 57l98 6q61 4 78.5 32t40.5 167l45 270q0 25 -45 188t-82 263q-63 172 -123 247.5t-131 75.5q-29 0 -92 -24zM616 1532l342 252q35 29 70 28q33 0 59.5 -15t26.5 -36q-2 -31 -65 -61l-357 -168h-76z" />
<glyph unicode="&#xde;" horiz-adv-x="1251" d="M18 -6l9 57l84 6q61 4 77.5 31t40.5 168l152 889q18 115 18 155q0 53 -71 56l-97 4l7 57l131 -4l157 -2l185 6h49l-6 -57l-86 -6q-57 -4 -76 -21.5t-29 -77.5l-26 -145q147 0 170 2q45 2 100 2q174 0 267 -84t93 -239q0 -199 -139 -338.5t-338 -139.5q-96 0 -184 43 l-8 66q82 -37 164 -37q154 0 239.5 93t85.5 261q0 301 -309 301q-47 0 -148 -16l-12 -49l-18 -90l-119 -695q-8 -49 -8 -71q0 -59 73 -62l134 -6l-7 -57l-108 2l-176 4l-185 -4z" />
<glyph unicode="&#xdf;" d="M-328 -557q25 70 45 170l23 4q53 -61 108 -61q47 0 92.5 38.5t69.5 102.5q39 96 78 303l139 784h-166l9 45l114 48q66 27 68 43l31 165q16 90 50 140.5t118 115.5q90 68 191 114t165 46q78 0 135 -61.5t57 -145.5t-37.5 -162.5t-138.5 -197.5q-55 -66 -73.5 -100.5 t-18.5 -71.5q0 -59 80 -199l37 -63q63 -109 63 -162q0 -121 -120.5 -246t-239.5 -125q-72 0 -160 43q33 94 43 219h41v-114q53 -57 133 -58q74 0 122 52.5t48 134.5q0 57 -28 112l-111 215q-35 70 -35 109q0 47 66 139q10 12 26.5 38t26.5 38q86 119 117.5 189.5t31.5 138.5 q0 78 -50 129t-125.5 51t-136 -46t-89.5 -126q-20 -57 -37.5 -137t-36 -179.5l-26.5 -140.5l-148 -694q-76 -354 -229 -518q-121 -127 -248 -127q-43 0 -74 8z" />
<glyph unicode="&#xe0;" horiz-adv-x="909" d="M8 135q0 123 43 288t111 302q39 76 94 127t152 98q76 37 153 37q74 0 174 -39l68 37l20 -18l-188 -777q-2 -6 -2 -20q0 -49 31 -49q39 0 127 74q6 4 26 22l14 -43q-238 -197 -299 -197q-49 0 -49 76q0 49 13 105l59 260q-160 -225 -283 -332q-125 -109 -194 -109 q-29 0 -49.5 46t-20.5 112zM156 203q0 -82 37 -82q51 0 138 84t171 213q92 143 151 430q-111 39 -174 39q-76 0 -119 -34t-79 -122q-53 -127 -89 -278.5t-36 -249.5zM420 1343q10 25 39.5 44.5t60.5 19.5t55 -37l203 -309h-69l-258 207q-45 34 -31 75z" />
<glyph unicode="&#xe1;" horiz-adv-x="909" d="M8 135q0 123 43 288t111 302q39 76 94 127t152 98q76 37 153 37q74 0 174 -39l68 37l20 -18l-188 -777q-2 -6 -2 -20q0 -49 31 -49q39 0 127 74q6 4 26 22l14 -43q-238 -197 -299 -197q-49 0 -49 76q0 49 13 105l59 260q-160 -225 -283 -332q-125 -109 -194 -109 q-29 0 -49.5 46t-20.5 112zM156 203q0 -82 37 -82q51 0 138 84t171 213q92 143 151 430q-111 39 -174 39q-76 0 -119 -34t-79 -122q-53 -127 -89 -278.5t-36 -249.5zM369 1061l313 309q37 37 67.5 37t54 -19.5t23.5 -44.5q0 -41 -57 -75l-332 -207h-69z" />
<glyph unicode="&#xe2;" horiz-adv-x="909" d="M8 135q0 123 43 288t111 302q39 76 94 127t152 98q76 37 153 37q74 0 174 -39l68 37l20 -18l-188 -777q-2 -6 -2 -20q0 -49 31 -49q39 0 127 74q6 4 26 22l14 -43q-238 -197 -299 -197q-49 0 -49 76q0 49 13 105l59 260q-160 -225 -283 -332q-125 -109 -194 -109 q-29 0 -49.5 46t-20.5 112zM156 203q0 -82 37 -82q51 0 138 84t171 213q92 143 151 430q-111 39 -174 39q-76 0 -119 -34t-79 -122q-53 -127 -89 -278.5t-36 -249.5zM250 1063l321 346h101l180 -346h-74l-168 213l-280 -213h-80z" />
<glyph unicode="&#xe3;" horiz-adv-x="909" d="M8 135q0 123 43 288t111 302q39 76 94 127t152 98q76 37 153 37q74 0 174 -39l68 37l20 -18l-188 -777q-2 -6 -2 -20q0 -49 31 -49q39 0 127 74q6 4 26 22l14 -43q-238 -197 -299 -197q-49 0 -49 76q0 49 13 105l59 260q-160 -225 -283 -332q-125 -109 -194 -109 q-29 0 -49.5 46t-20.5 112zM156 203q0 -82 37 -82q51 0 138 84t171 213q92 143 151 430q-111 39 -174 39q-76 0 -119 -34t-79 -122q-53 -127 -89 -278.5t-36 -249.5zM270 1130q31 113 78 162t123 49q55 0 129 -28l123 -49q25 -10 55.5 -10.5t52 18t52.5 69.5h57 q-18 -100 -70.5 -155.5t-128.5 -55.5q-47 0 -131 33q-94 37 -96 39q-45 18 -78 19q-39 0 -61.5 -19.5t-44.5 -71.5h-60z" />
<glyph unicode="&#xe4;" horiz-adv-x="909" d="M8 135q0 123 43 288t111 302q39 76 94 127t152 98q76 37 153 37q74 0 174 -39l68 37l20 -18l-188 -777q-2 -6 -2 -20q0 -49 31 -49q39 0 127 74q6 4 26 22l14 -43q-238 -197 -299 -197q-49 0 -49 76q0 49 13 105l59 260q-160 -225 -283 -332q-125 -109 -194 -109 q-29 0 -49.5 46t-20.5 112zM156 203q0 -82 37 -82q51 0 138 84t171 213q92 143 151 430q-111 39 -174 39q-76 0 -119 -34t-79 -122q-53 -127 -89 -278.5t-36 -249.5zM342 1208q0 53 37 95.5t82 42.5q33 0 53.5 -24t20.5 -60q0 -59 -32 -98.5t-79 -39.5q-39 0 -60.5 22.5 t-21.5 61.5zM670 1208q0 53 36.5 95.5t81.5 42.5q33 0 53.5 -24t20.5 -60q0 -59 -31.5 -98.5t-78.5 -39.5q-39 0 -60.5 22.5t-21.5 61.5z" />
<glyph unicode="&#xe5;" horiz-adv-x="909" d="M8 135q0 123 43 288t111 302q39 76 94 127t152 98q76 37 153 37q74 0 174 -39l68 37l20 -18l-188 -777q-2 -6 -2 -20q0 -49 31 -49q39 0 127 74q6 4 26 22l14 -43q-238 -197 -299 -197q-49 0 -49 76q0 49 13 105l59 260q-160 -225 -283 -332q-125 -109 -194 -109 q-29 0 -49.5 46t-20.5 112zM156 203q0 -82 37 -82q51 0 138 84t171 213q92 143 151 430q-111 39 -174 39q-76 0 -119 -34t-79 -122q-53 -127 -89 -278.5t-36 -249.5zM399 1235q0 86 60.5 145.5t146.5 59.5q84 0 143.5 -60.5t59.5 -144.5q0 -86 -60.5 -145.5t-144.5 -59.5 q-86 0 -145.5 59.5t-59.5 145.5zM477 1235q0 -59 35 -95t92.5 -36t92 36t34.5 95t-34.5 95t-92 36t-92.5 -36t-35 -95z" />
<glyph unicode="&#xe6;" horiz-adv-x="1306" d="M2 188q0 328 440 328h140q12 37 12 113q0 260 -225 260q-53 0 -109 -19q-16 -14 -22 -28l-41 -119l-37 10l-13 139l25 16l27 17q74 49 121 65.5t114 16.5q109 0 173.5 -43t111.5 -149q127 104 215 148t170 44q76 0 124 -45t48 -117q0 -76 -56.5 -149.5t-150.5 -120.5 q-139 -72 -354 -84q-27 -141 -27 -201q0 -90 46 -143t126 -53q90 0 248 106l37 25l41 26l14 -45q-152 -121 -237.5 -165t-178.5 -44q-96 0 -151 44.5t-84 144.5q-109 -104 -185.5 -146.5t-164.5 -42.5q-197 0 -197 211zM152 213q0 -66 35.5 -102.5t101.5 -36.5 q88 0 161.5 75.5t106.5 198.5q10 33 21 119h-78q-348 0 -348 -254zM723 522q90 10 104 13q135 25 216 95t81 165q0 106 -114 106q-121 0 -209 -137q-62 -97 -78 -242z" />
<glyph unicode="&#xe7;" horiz-adv-x="833" d="M51 279q0 164 53.5 310t141.5 224t186 126t168 48q121 0 197 -49q-27 -76 -49 -262h-48v123q0 37 -48 62.5t-117 25.5q-98 0 -160 -53q-74 -59 -121 -202t-47 -306q0 -244 174 -244q98 0 297 133l31 21l16 -41l-102 -84q-139 -117 -275 -131l-76 -111q33 4 47 4 q80 0 125 -38t45 -105q0 -78 -68.5 -125t-182.5 -47q-72 0 -181 41l35 59q88 -29 141 -29q47 0 78 26t31 66q0 35 -26.5 56.5t-69.5 21.5q-20 0 -68 -12l-18 16l110 177q-219 23 -219 299z" />
<glyph unicode="&#xe8;" horiz-adv-x="796" d="M31 229q0 106 39 260t86 230q61 98 199.5 183t238.5 85q78 0 125 -44t47 -116q0 -184 -254 -297q-96 -41 -141 -51l-168 -41q-16 -80 -17 -164q0 -94 41 -147t115 -53q115 0 281 119l49 34l16 -39q-143 -115 -237.5 -163t-182.5 -48q-111 0 -174 66.5t-63 185.5zM213 485 q131 29 223 72q80 39 129 104.5t49 133.5q0 49 -26.5 77.5t-71.5 28.5q-88 0 -156 -63q-80 -76 -129 -277zM371 1343q10 25 39.5 44.5t60.5 19.5t55 -37l203 -309h-70l-258 207q-44 34 -30 75z" />
<glyph unicode="&#xe9;" horiz-adv-x="796" d="M31 229q0 106 39 260t86 230q61 98 199.5 183t238.5 85q78 0 125 -44t47 -116q0 -184 -254 -297q-96 -41 -141 -51l-168 -41q-16 -80 -17 -164q0 -94 41 -147t115 -53q115 0 281 119l49 34l16 -39q-143 -115 -237.5 -163t-182.5 -48q-111 0 -174 66.5t-63 185.5zM213 485 q131 29 223 72q80 39 129 104.5t49 133.5q0 49 -26.5 77.5t-71.5 28.5q-88 0 -156 -63q-80 -76 -129 -277zM319 1061l314 309q37 37 67.5 37t54 -19.5t23.5 -44.5q0 -41 -57 -75l-332 -207h-70z" />
<glyph unicode="&#xea;" horiz-adv-x="796" d="M31 229q0 106 39 260t86 230q61 98 199.5 183t238.5 85q78 0 125 -44t47 -116q0 -184 -254 -297q-96 -41 -141 -51l-168 -41q-16 -80 -17 -164q0 -94 41 -147t115 -53q115 0 281 119l49 34l16 -39q-143 -115 -237.5 -163t-182.5 -48q-111 0 -174 66.5t-63 185.5z M201 1063l321 346h101l180 -346h-74l-168 213l-280 -213h-80zM213 485q131 29 223 72q80 39 129 104.5t49 133.5q0 49 -26.5 77.5t-71.5 28.5q-88 0 -156 -63q-80 -76 -129 -277z" />
<glyph unicode="&#xeb;" horiz-adv-x="796" d="M31 229q0 106 39 260t86 230q61 98 199.5 183t238.5 85q78 0 125 -44t47 -116q0 -184 -254 -297q-96 -41 -141 -51l-168 -41q-16 -80 -17 -164q0 -94 41 -147t115 -53q115 0 281 119l49 34l16 -39q-143 -115 -237.5 -163t-182.5 -48q-111 0 -174 66.5t-63 185.5zM213 485 q131 29 223 72q80 39 129 104.5t49 133.5q0 49 -26.5 77.5t-71.5 28.5q-88 0 -156 -63q-80 -76 -129 -277zM293 1208q0 53 37 95.5t82 42.5q33 0 53 -24t20 -60q0 -59 -31.5 -98.5t-78.5 -39.5q-39 0 -60.5 22.5t-21.5 61.5zM621 1208q0 53 36.5 95.5t81.5 42.5 q33 0 53.5 -24t20.5 -60q0 -59 -31.5 -98.5t-79.5 -39.5q-39 0 -60 22.5t-21 61.5z" />
<glyph unicode="&#xec;" horiz-adv-x="569" d="M70 795l57 41q213 152 274 151q51 0 52 -53q0 -20 -13 -74l-157 -622q-14 -53 -15 -82q0 -41 27 -41q33 0 125 61l53 35l21 -37q-150 -111 -219.5 -151.5t-108.5 -40.5q-61 0 -62 79q0 63 27 158l135 492q16 61 17 90q0 43 -35 43q-27 0 -98 -47l-66 -43zM260 1343 q10 25 40 44.5t60.5 19.5t55.5 -37l202 -309h-69l-258 207q-45 34 -31 75z" />
<glyph unicode="&#xed;" horiz-adv-x="569" d="M70 795l57 41q213 152 274 151q51 0 52 -53q0 -20 -13 -74l-157 -622q-14 -53 -15 -82q0 -41 27 -41q33 0 125 61l53 35l21 -37q-150 -111 -219.5 -151.5t-108.5 -40.5q-61 0 -62 79q0 63 27 158l135 492q16 61 17 90q0 43 -35 43q-27 0 -98 -47l-66 -43zM209 1061 l313 309q37 37 68 37t54.5 -19.5t23.5 -44.5q0 -41 -58 -75l-331 -207h-70z" />
<glyph unicode="&#xee;" horiz-adv-x="569" d="M70 795l57 41q213 152 274 151q51 0 52 -53q0 -20 -13 -74l-157 -622q-14 -53 -15 -82q0 -41 27 -41q33 0 125 61l53 35l21 -37q-150 -111 -219.5 -151.5t-108.5 -40.5q-61 0 -62 79q0 63 27 158l135 492q16 61 17 90q0 43 -35 43q-27 0 -98 -47l-66 -43zM90 1063 l322 346h100l180 -346h-74l-167 213l-281 -213h-80z" />
<glyph unicode="&#xef;" horiz-adv-x="569" d="M70 795l57 41q213 152 274 151q51 0 52 -53q0 -20 -13 -74l-157 -622q-14 -53 -15 -82q0 -41 27 -41q33 0 125 61l53 35l21 -37q-150 -111 -219.5 -151.5t-108.5 -40.5q-61 0 -62 79q0 63 27 158l135 492q16 61 17 90q0 43 -35 43q-27 0 -98 -47l-66 -43zM182 1208 q0 53 37 95.5t82 42.5q33 0 53.5 -24t20.5 -60q0 -59 -32 -98.5t-79 -39.5q-39 0 -60.5 22.5t-21.5 61.5zM510 1208q0 53 37 95.5t82 42.5q33 0 53 -24t20 -60q0 -59 -31.5 -98.5t-78.5 -39.5q-39 0 -60.5 22.5t-21.5 61.5z" />
<glyph unicode="&#xf0;" horiz-adv-x="909" d="M35 305q0 158 55 304.5t156 248.5q125 129 301 129q70 0 141 -41q-4 123 -67 246l-277 -135l-25 59l265 133q-92 123 -215 160l41 92q174 -90 268 -211l276 135l25 -59l-266 -129q121 -264 121 -516q0 -174 -61.5 -338t-168.5 -277q-123 -129 -299 -129q-270 0 -270 328z M190 326q0 -270 189 -271q127 0 207 144q45 80 73.5 211t28.5 258q0 242 -186 241q-133 0 -215 -139q-43 -76 -70 -199.5t-27 -244.5z" />
<glyph unicode="&#xf1;" horiz-adv-x="1138" d="M49 795l57 41q213 152 273 151q47 0 47 -67q0 -29 -12 -84l-78 -330q141 199 242 291q90 84 187 137t160.5 53t63.5 -74q0 -57 -22 -151l-136 -565q-4 -16 -4 -41q0 -41 27 -41q31 0 125 61l53 35l21 -37q-150 -113 -218.5 -152.5t-109.5 -39.5q-61 0 -61 81q0 47 26 156 l107 434q23 90 22 146q0 49 -35 49q-70 0 -171 -85t-185 -214q-70 -106 -108.5 -223t-67.5 -310q-53 -10 -143 -34l-15 22q63 219 115.5 467t52.5 326q0 51 -37 51q-20 0 -96 -51l-66 -43zM360 1130q31 113 78 162t123 49q55 0 129 -28l123 -49q25 -10 55.5 -10.5t52 18 t52.5 69.5h57q-18 -100 -70.5 -155.5t-128.5 -55.5q-47 0 -131 33q-94 37 -96 39q-45 18 -78 19q-39 0 -61.5 -19.5t-44.5 -71.5h-60z" />
<glyph unicode="&#xf2;" horiz-adv-x="909" d="M35 311q0 188 66.5 338t191.5 238q141 100 276 100q127 0 200 -82t73 -227q0 -156 -61.5 -313.5t-155.5 -247.5q-150 -139 -328 -140q-127 0 -194.5 86t-67.5 248zM190 309q0 -121 49.5 -187.5t139.5 -66.5q96 0 153 68q68 82 111 228.5t43 293.5q0 264 -192 264 q-82 0 -123 -35q-76 -61 -128.5 -226t-52.5 -339zM397 1343q10 25 40 44.5t60.5 19.5t55.5 -37l203 -309h-70l-258 207q-45 34 -31 75z" />
<glyph unicode="&#xf3;" horiz-adv-x="909" d="M35 311q0 188 66.5 338t191.5 238q141 100 276 100q127 0 200 -82t73 -227q0 -156 -61.5 -313.5t-155.5 -247.5q-150 -139 -328 -140q-127 0 -194.5 86t-67.5 248zM190 309q0 -121 49.5 -187.5t139.5 -66.5q96 0 153 68q68 82 111 228.5t43 293.5q0 264 -192 264 q-82 0 -123 -35q-76 -61 -128.5 -226t-52.5 -339zM346 1061l313 309q37 37 68 37t54.5 -19.5t23.5 -44.5q0 -41 -57 -75l-332 -207h-70z" />
<glyph unicode="&#xf4;" horiz-adv-x="909" d="M35 311q0 188 66.5 338t191.5 238q141 100 276 100q127 0 200 -82t73 -227q0 -156 -61.5 -313.5t-155.5 -247.5q-150 -139 -328 -140q-127 0 -194.5 86t-67.5 248zM190 309q0 -121 49.5 -187.5t139.5 -66.5q96 0 153 68q68 82 111 228.5t43 293.5q0 264 -192 264 q-82 0 -123 -35q-76 -61 -128.5 -226t-52.5 -339zM227 1063l322 346h100l180 -346h-73l-168 213l-281 -213h-80z" />
<glyph unicode="&#xf5;" horiz-adv-x="909" d="M35 311q0 188 66.5 338t191.5 238q141 100 276 100q127 0 200 -82t73 -227q0 -156 -61.5 -313.5t-155.5 -247.5q-150 -139 -328 -140q-127 0 -194.5 86t-67.5 248zM190 309q0 -121 49.5 -187.5t139.5 -66.5q96 0 153 68q68 82 111 228.5t43 293.5q0 264 -192 264 q-82 0 -123 -35q-76 -61 -128.5 -226t-52.5 -339zM248 1130q31 113 78 162t123 49q55 0 129 -28l122 -49q25 -10 55.5 -10.5t52 18t52.5 69.5h58q-18 -100 -70.5 -155.5t-128.5 -55.5q-47 0 -131 33q-94 37 -96 39q-45 18 -78 19q-39 0 -61.5 -19.5t-45.5 -71.5h-59z" />
<glyph unicode="&#xf6;" horiz-adv-x="909" d="M35 311q0 188 66.5 338t191.5 238q141 100 276 100q127 0 200 -82t73 -227q0 -156 -61.5 -313.5t-155.5 -247.5q-150 -139 -328 -140q-127 0 -194.5 86t-67.5 248zM190 309q0 -121 49.5 -187.5t139.5 -66.5q96 0 153 68q68 82 111 228.5t43 293.5q0 264 -192 264 q-82 0 -123 -35q-76 -61 -128.5 -226t-52.5 -339zM319 1208q0 53 37 95.5t82 42.5q33 0 53.5 -24t20.5 -60q0 -59 -31.5 -98.5t-79.5 -39.5q-39 0 -60.5 22.5t-21.5 61.5zM647 1208q0 53 37 95.5t82 42.5q33 0 53.5 -24t20.5 -60q0 -59 -32 -98.5t-79 -39.5 q-39 0 -60.5 22.5t-21.5 61.5z" />
<glyph unicode="&#xf7;" horiz-adv-x="1241" d="M82 455v114h1077v-114h-1077zM502 158q0 49 34.5 83.5t84 34.5t84 -34.5t34.5 -83.5t-34.5 -84t-84 -35t-84 35t-34.5 84zM502 866q0 49 34.5 84t84 35t84 -35t34.5 -84t-34.5 -83.5t-84 -34.5t-84 34.5t-34.5 83.5z" />
<glyph unicode="&#xf8;" horiz-adv-x="909" d="M-37 -8l109 123q-39 78 -39 192q0 324 207 541q133 139 327 139q127 0 203 -82l123 139l49 -40l-135 -154q35 -86 35 -174q0 -133 -49.5 -275.5t-124.5 -236.5q-70 -84 -171.5 -135.5t-197.5 -51.5q-119 0 -193 82l-94 -108zM188 326q0 -27 7 -72l471 532 q-53 123 -170 123q-129 0 -211 -139q-43 -76 -70 -199.5t-27 -244.5zM211 176q49 -121 168 -121q125 0 205 144q43 76 72.5 202.5t29.5 237.5q0 10 -4 47v23z" />
<glyph unicode="&#xf9;" horiz-adv-x="1138" d="M66 795l57 41q211 152 272 151q45 0 45 -63q0 -33 -10 -88l-117 -555q-14 -74 -14 -107q0 -53 27 -53q63 0 170.5 99t197.5 241q92 145 140 387l20 104l139 35l15 -18l-172 -731q-12 -49 -13 -82q0 -35 27 -35q39 0 125 55l53 35l21 -37q-154 -115 -221.5 -156 t-106.5 -41q-61 0 -62 86q0 55 23 136l76 290q-129 -211 -291 -361.5t-258 -150.5q-31 0 -51.5 24t-20.5 58q0 57 8 99l129 608q4 20 5 37q0 41 -35 41q-27 0 -99 -47l-65 -43zM516 1343q10 25 40 44.5t60.5 19.5t55.5 -37l202 -309h-69l-258 207q-45 34 -31 75z" />
<glyph unicode="&#xfa;" horiz-adv-x="1138" d="M66 795l57 41q211 152 272 151q45 0 45 -63q0 -33 -10 -88l-117 -555q-14 -74 -14 -107q0 -53 27 -53q63 0 170.5 99t197.5 241q92 145 140 387l20 104l139 35l15 -18l-172 -731q-12 -49 -13 -82q0 -35 27 -35q39 0 125 55l53 35l21 -37q-154 -115 -221.5 -156 t-106.5 -41q-61 0 -62 86q0 55 23 136l76 290q-129 -211 -291 -361.5t-258 -150.5q-31 0 -51.5 24t-20.5 58q0 57 8 99l129 608q4 20 5 37q0 41 -35 41q-27 0 -99 -47l-65 -43zM465 1061l313 309q37 37 68 37t54.5 -19.5t23.5 -44.5q0 -41 -58 -75l-331 -207h-70z" />
<glyph unicode="&#xfb;" horiz-adv-x="1138" d="M66 795l57 41q211 152 272 151q45 0 45 -63q0 -33 -10 -88l-117 -555q-14 -74 -14 -107q0 -53 27 -53q63 0 170.5 99t197.5 241q92 145 140 387l20 104l139 35l15 -18l-172 -731q-12 -49 -13 -82q0 -35 27 -35q39 0 125 55l53 35l21 -37q-154 -115 -221.5 -156 t-106.5 -41q-61 0 -62 86q0 55 23 136l76 290q-129 -211 -291 -361.5t-258 -150.5q-31 0 -51.5 24t-20.5 58q0 57 8 99l129 608q4 20 5 37q0 41 -35 41q-27 0 -99 -47l-65 -43zM346 1063l322 346h100l180 -346h-74l-167 213l-281 -213h-80z" />
<glyph unicode="&#xfc;" horiz-adv-x="1138" d="M66 795l57 41q211 152 272 151q45 0 45 -63q0 -33 -10 -88l-117 -555q-14 -74 -14 -107q0 -53 27 -53q63 0 170.5 99t197.5 241q92 145 140 387l20 104l139 35l15 -18l-172 -731q-12 -49 -13 -82q0 -35 27 -35q39 0 125 55l53 35l21 -37q-154 -115 -221.5 -156 t-106.5 -41q-61 0 -62 86q0 55 23 136l76 290q-129 -211 -291 -361.5t-258 -150.5q-31 0 -51.5 24t-20.5 58q0 57 8 99l129 608q4 20 5 37q0 41 -35 41q-27 0 -99 -47l-65 -43zM438 1208q0 53 37 95.5t82 42.5q33 0 53.5 -24t20.5 -60q0 -59 -32 -98.5t-79 -39.5 q-39 0 -60.5 22.5t-21.5 61.5zM766 1208q0 53 37 95.5t82 42.5q33 0 53 -24t20 -60q0 -59 -31.5 -98.5t-78.5 -39.5q-39 0 -60.5 22.5t-21.5 61.5z" />
<glyph unicode="&#xfd;" d="M-16 -406q0 23 2 37l98 70l20 -8q-4 -37 -4 -45q0 -53 37 -90t90 -37q109 0 191 119.5t160 392.5l100 350q-115 -174 -229.5 -290t-172.5 -116q-39 0 -64.5 41t-23.5 105l2 82l35 497q8 137 -43 138q-20 0 -51 -25l-102 -61l-23 37l168 114q119 82 154 82q49 0 49 -129 q0 -72 -8 -199l-31 -397q-10 -125 39 -125q33 0 98.5 58.5t118.5 136.5q121 180 164 346l71 270q63 6 152 39l23 -18l-289 -901q-90 -285 -246 -459t-317 -174q-70 0 -119 46.5t-49 112.5zM416 1061l313 309q37 37 67.5 37t54 -19.5t23.5 -44.5q0 -41 -57 -75l-332 -207h-69 z" />
<glyph unicode="&#xfe;" d="M-80 -553l17 76l100 493l229 1258q4 29 4 49q0 49 -69 49h-99l9 43q193 18 327 86l25 -22l-193 -889q51 88 89 137t98 104q168 156 309 156q55 0 88 -62.5t33 -164.5q0 -115 -45 -262.5t-109 -241.5q-66 -96 -209 -187.5t-229 -91.5q-41 0 -107 23l-18 6l-86 -536 l-150 -35zM190 121q76 -47 168 -47q129 0 191 90q82 117 136 278.5t54 286.5q0 139 -77 139q-127 0 -263.5 -166.5t-171.5 -363.5z" />
<glyph unicode="&#xff;" d="M-16 -406q0 23 2 37l98 70l20 -8q-4 -37 -4 -45q0 -53 37 -90t90 -37q109 0 191 119.5t160 392.5l100 350q-115 -174 -229.5 -290t-172.5 -116q-39 0 -64.5 41t-23.5 105l2 82l35 497q8 137 -43 138q-20 0 -51 -25l-102 -61l-23 37l168 114q119 82 154 82q49 0 49 -129 q0 -72 -8 -199l-31 -397q-10 -125 39 -125q33 0 98.5 58.5t118.5 136.5q121 180 164 346l71 270q63 6 152 39l23 -18l-289 -901q-90 -285 -246 -459t-317 -174q-70 0 -119 46.5t-49 112.5zM389 1208q0 53 37 95.5t82 42.5q33 0 53.5 -24t20.5 -60q0 -59 -32 -98.5t-79 -39.5 q-39 0 -60.5 22.5t-21.5 61.5zM717 1208q0 53 37 95.5t82 42.5q33 0 53 -24t20 -60q0 -59 -31.5 -98.5t-78.5 -39.5q-39 0 -60.5 22.5t-21.5 61.5z" />
<glyph unicode="&#x152;" horiz-adv-x="2105" d="M115 541q0 197 70.5 379t195.5 307q217 221 537 221q133 0 217 -38t165 -134l21 141q61 -6 123 -6q82 0 242.5 3t240.5 3q74 0 141 -6q-35 -117 -43 -311h-49l-16 182q-2 25 -61.5 38t-157.5 11q-84 -2 -266 -8q-10 -20 -19 -66l-86 -487h76l448 12l9 -14l-39 -92 q-18 0 -36 3t-69 4t-166 1h-239l-88 -518q-4 -25 -4 -72q150 -14 268 -14q229 0 307 20q33 8 49.5 31t30.5 76l33 123h55q-33 -164 -43 -256l-8 -74q-10 0 -60.5 -3t-154.5 -3q-76 0 -229.5 3t-231.5 3q-106 0 -213 -6l49 190q-109 -119 -217 -168q-123 -53 -262 -53 q-248 0 -384 152t-136 426zM295 584q0 -248 99.5 -391.5t271.5 -143.5q176 0 321.5 145.5t181.5 358.5l60 346q10 66 10 117q0 168 -94 257t-271 89q-217 0 -352 -141q-106 -113 -166.5 -281t-60.5 -356z" />
<glyph unicode="&#x153;" horiz-adv-x="1370" d="M35 311q0 301 176 500q72 82 167 129t183 47q172 0 258 -176q137 102 212 139t145 37q72 0 117.5 -47t45.5 -119q0 -139 -155 -239q-115 -74 -398 -152q-18 -102 -18 -170q0 -86 43 -136t119 -50q111 0 280 121l45 32l13 -47q-137 -113 -228.5 -158t-181.5 -45 q-184 0 -223 168q-90 -94 -164 -131t-168 -37q-268 0 -268 334zM190 313q0 -258 193 -258q117 0 176 101q53 90 87 234.5t34 277.5q0 242 -193 241q-76 0 -129 -47t-94 -153q-74 -189 -74 -396zM795 479q190 43 291.5 124t101.5 189.5t-92 108.5q-66 0 -126.5 -41 t-99.5 -110q-40 -78 -75 -271z" />
<glyph unicode="&#x178;" horiz-adv-x="1366" d="M106 1325l162 119q141 -2 233.5 -171t207.5 -638q86 227 262 463q113 154 205 227.5t206 101.5l-12 -145q-90 -16 -163.5 -68.5t-162.5 -164.5q-113 -141 -200.5 -300t-102.5 -245l-53 -344q-4 -20 -4 -43q0 -31 16.5 -43.5t57.5 -16.5l100 -6l-6 -57q-127 6 -252 6 q-143 0 -285 -6l9 57l98 6q61 4 78.5 32t40.5 167l45 270q0 25 -45 188t-82 263q-63 172 -123 247.5t-131 75.5q-29 0 -92 -24zM606 1647q0 53 37 95t82 42q33 0 53.5 -23.5t20.5 -60.5q0 -59 -32 -98t-79 -39q-39 0 -60.5 22.5t-21.5 61.5zM934 1647q0 53 37 95t82 42 q33 0 53 -23.5t20 -60.5q0 -59 -31.5 -98t-78.5 -39q-39 0 -60.5 22.5t-21.5 61.5z" />
<glyph unicode="&#x2c6;" horiz-adv-x="681" d="M205 1063l321 346h101l180 -346h-74l-168 213l-280 -213h-80z" />
<glyph unicode="&#x2dc;" horiz-adv-x="681" d="M225 1130q31 113 78 162t123 49q55 0 129 -28l123 -49q25 -10 55.5 -10.5t52 18t52.5 69.5h57q-18 -100 -70.5 -155.5t-128.5 -55.5q-47 0 -131 33q-94 37 -96 39q-45 18 -78 19q-39 0 -61.5 -19.5t-44.5 -71.5h-60z" />
<glyph unicode="&#x2000;" horiz-adv-x="958" />
<glyph unicode="&#x2001;" horiz-adv-x="1918" />
<glyph unicode="&#x2002;" horiz-adv-x="958" />
<glyph unicode="&#x2003;" horiz-adv-x="1918" />
<glyph unicode="&#x2004;" horiz-adv-x="638" />
<glyph unicode="&#x2005;" horiz-adv-x="479" />
<glyph unicode="&#x2006;" horiz-adv-x="319" />
<glyph unicode="&#x2007;" horiz-adv-x="319" />
<glyph unicode="&#x2008;" horiz-adv-x="239" />
<glyph unicode="&#x2009;" horiz-adv-x="382" />
<glyph unicode="&#x200a;" horiz-adv-x="106" />
<glyph unicode="&#x2010;" horiz-adv-x="681" d="M39 457l39 118h545l-37 -118h-547z" />
<glyph unicode="&#x2011;" horiz-adv-x="681" d="M39 457l39 118h545l-37 -118h-547z" />
<glyph unicode="&#x2012;" horiz-adv-x="681" d="M39 457l39 118h545l-37 -118h-547z" />
<glyph unicode="&#x2013;" d="M-20 467l20 102h1044l-20 -102h-1044z" />
<glyph unicode="&#x2014;" horiz-adv-x="2048" d="M-20 467l20 102h2068l-20 -102h-2068z" />
<glyph unicode="&#x2018;" horiz-adv-x="569" d="M160 1036q141 270 289 439l65 26l14 -18q-139 -217 -168 -432q-78 -14 -182 -52z" />
<glyph unicode="&#x2019;" horiz-adv-x="569" d="M160 1018q139 217 168 432q72 10 182 51l18 -37q-141 -270 -288 -438l-66 -27z" />
<glyph unicode="&#x201a;" horiz-adv-x="569" d="M55 -236q121 168 174 431l181 51l22 -25q-127 -256 -293 -446l-65 -25z" />
<glyph unicode="&#x201c;" d="M201 1036q141 270 288 439l66 26l14 -18q-139 -217 -168 -432q-78 -14 -182 -52zM604 1036q141 270 289 439l65 26l15 -18q-139 -217 -168 -432q-78 -14 -182 -52z" />
<glyph unicode="&#x201d;" d="M201 1018q139 217 168 432q72 10 182 51l18 -37q-141 -270 -288 -438l-66 -27zM604 1018q139 217 168 432q72 10 182 51l19 -37q-141 -270 -289 -438l-66 -27z" />
<glyph unicode="&#x201e;" d="M88 -236q121 168 174 431l180 51l23 -25q-127 -256 -293 -446l-66 -25zM492 -236q121 168 174 431l180 51l22 -25q-127 -256 -293 -446l-65 -25z" />
<glyph unicode="&#x2022;" d="M176 727q0 143 104.5 246.5t248 103.5t248 -104.5t104.5 -247.5t-104.5 -247.5t-248.5 -104.5q-145 0 -248.5 104.5t-103.5 249.5z" />
<glyph unicode="&#x2026;" horiz-adv-x="2048" d="M209 86q0 59 36 101t87 42q39 0 65.5 -28.5t26.5 -69.5q0 -57 -37 -99t-88 -42q-41 0 -65.5 25.5t-24.5 70.5zM891 86q0 59 36 101t87 42q39 0 65.5 -28.5t26.5 -69.5q0 -57 -37 -99t-88 -42q-41 0 -65.5 25.5t-24.5 70.5zM1573 86q0 59 36 101t87 42q39 0 65.5 -28.5 t26.5 -69.5q0 -57 -37 -99t-88 -42q-41 0 -65.5 25.5t-24.5 70.5z" />
<glyph unicode="&#x202f;" horiz-adv-x="382" />
<glyph unicode="&#x2039;" horiz-adv-x="681" d="M117 514v33l397 354l39 -33l-281 -344l195 -350l-41 -31z" />
<glyph unicode="&#x203a;" horiz-adv-x="681" d="M129 176l281 344l-195 350l41 31l309 -371v-32l-397 -355z" />
<glyph unicode="&#x205f;" horiz-adv-x="479" />
<glyph unicode="&#x20ac;" d="M94 561l56 105q51 -10 114 -11l21 115q-125 0 -152 -2l55 104q39 -12 125 -12q76 231 235 391t390 160q219 0 319 -100q-4 -14 -22 -65.5t-33.5 -103.5t-21.5 -89h-64l29 184q-43 102 -230 102q-123 0 -244.5 -131t-187.5 -348h351q104 0 184 12l-55 -106l-506 4 q-10 -45 -23 -115q322 0 473 11l-55 -105l-428 4q-20 -242 54.5 -388t207.5 -146q176 0 258 94l39 192h66q-6 -37 -9.5 -88t-3.5 -105v-65q-129 -100 -354 -100q-131 0 -223 52t-138.5 142.5t-61.5 193t-5 218.5q-103 0 -160 -4z" />
<glyph unicode="&#x2122;" horiz-adv-x="2099" d="M311 1227l21 190q115 -4 348 -4q231 0 348 4l-31 -190h-47l4 73q4 20 -6 37q-4 16 -135 17h-76l-100 -590q-4 -25 -4 -37q2 -25 33 -25l73 -4l-4 -45q-53 4 -164 4q-117 0 -176 -4l6 45l64 4q18 0 30.5 17.5t15.5 32t9 47.5l90 555h-123q-80 0 -92 -13q-10 -12 -18 -45 l-19 -69h-47zM1010 653l6 43q78 4 98 70l164 547q2 6 2 20q0 33 -80 37l-35 2l4 45q35 -4 105 -4q76 0 112 4l191 -608l276 434q45 70 103 174q35 -4 104.5 -4t104.5 4l-4 -45l-50 -2q-41 -4 -40 -27l-37 -571v-39q0 -27 55 -31l47 -4l-6 -45q-53 4 -164 4t-166 -4l4 45 l39 4q68 4 68 35l31 525l-39 -62l-281 -444l-68 -117h-43l-186 594l-131 -465q-6 -23 -6 -43q0 -18 55 -23l47 -4l-4 -45q-45 4 -137 4t-139 -4z" />
<glyph unicode="&#xe000;" horiz-adv-x="985" d="M0 985h985v-985h-985v985z" />
<glyph unicode="&#xfb01;" horiz-adv-x="1081" d="M-332 -549q27 49 47 164l29 8q45 -59 106 -59q113 0 173 184q72 223 182 922l18 114h-166l11 45q80 29 176 76l30 162q31 162 93 223q47 49 130 117t109 80q33 14 72 14q37 0 90 -18q-16 -49 -43 -183l-25 -6q-33 84 -102 84q-113 0 -162 -254l-43 -229l182 -10 q70 -2 230 71q68 31 86 31q31 0 31 -69q0 -37 -11 -87l-125 -610q-10 -43 -10 -69q0 -41 25 -41q39 0 98 43l70 53l18 -41q-229 -184 -309 -184q-70 0 -70 86q0 43 13 98l120 561l2 4q0 8 7.5 32.5t7.5 41.5q0 45 -39 45q-14 0 -55 -19l-107 -47h-184l-39 -180 q-119 -549 -173.5 -725t-146.5 -285q-59 -72 -135 -115.5t-139 -43.5q-43 0 -72 16zM836 1321q0 -39 21.5 -61.5t57.5 -22.5q47 0 80 40t33 97q0 35 -22.5 59.5t-53.5 24.5q-45 0 -80.5 -42t-35.5 -95z" />
<glyph unicode="&#xfb02;" horiz-adv-x="1116" d="M-332 -549q27 49 47 164l29 8q45 -59 106 -59q113 0 173 184q72 223 182 922l18 114h-166l11 45q80 29 176 76l30 162q31 160 93 223q37 37 132 108.5t132 88.5q33 14 76 14q29 0 77 -16l-14 -58q141 4 262 74l33 -16l-252 -1178q-20 -94 -20 -145q0 -47 32 -47 q31 0 82 37l99 69l18 -43l-72 -53q-125 -92 -171 -117.5t-93 -25.5q-59 0 -59 79q0 41 26 158l172 817q41 199 45 279l-2 18q-2 18 -10 27q-14 18 -67 18h-33l-12 -84h-21q-27 76 -113 76q-72 0 -112.5 -56.5t-65.5 -189.5l-43 -229h33q121 0 186 18l9 -14q-20 -49 -35 -115 h-213q-6 -39 -21 -100l-18 -80q-115 -545 -171.5 -722t-148.5 -288q-59 -72 -135 -115.5t-139 -43.5q-43 0 -72 16z" />
<glyph unicode="&#xfb03;" horiz-adv-x="1548" d="M-332 -549q27 49 47 164l29 8q45 -59 106 -59q113 0 173 184q72 223 182 922l18 114h-166l11 45q80 29 176 76l30 162q31 162 93 223q35 37 131 108.5t133 88.5q29 14 71 14q86 0 144 -26l-58 -168l-20 -9q-49 80 -147 80q-137 0 -185 -254l-43 -229h340q2 6 33 172 q31 162 92 223q47 49 130 117t110 80q33 14 71 14q37 0 91 -18q-16 -49 -43 -183l-25 -6q-33 84 -102 84q-113 0 -162 -254l-43 -229l182 -10q70 -2 229 71q68 31 86 31q31 0 31 -69q0 -37 -10 -87l-125 -610q-10 -43 -10 -69q0 -41 24 -41q39 0 99 43l69 53l19 -41 q-229 -184 -310 -184q-70 0 -69 86q0 43 12 98l121 561q2 6 9 39t7 39q0 45 -39 45q-14 0 -55 -19l-106 -47h-185l-39 -180q-119 -549 -173 -725t-146 -285q-59 -72 -135 -115.5t-140 -43.5q-43 0 -71 16q27 49 47 164l29 8q45 -59 106 -59q113 0 172 184q72 223 182 922 l19 114h-342q-6 -39 -21 -100l-18 -80q-115 -545 -171.5 -722t-148.5 -288q-59 -72 -135 -115.5t-139 -43.5q-43 0 -72 16zM1327 1321q0 -39 21.5 -61.5t58.5 -22.5q47 0 80 40t33 97q0 35 -22.5 59.5t-53.5 24.5q-45 0 -81 -42t-36 -95z" />
<glyph unicode="&#xfb04;" horiz-adv-x="1611" d="M-332 -549q27 49 47 164l29 8q45 -59 106 -59q113 0 173 184q72 223 182 922l18 114h-166l11 45q80 29 176 76l30 162q31 162 93 223q35 37 131 108.5t133 88.5q29 14 71 14q86 0 144 -26l-58 -168l-20 -9q-49 80 -147 80q-137 0 -185 -254l-43 -229h340q2 6 33 172 q31 160 92 223q37 37 132 108.5t132 88.5q33 14 76 14q29 0 78 -16l-14 -58q141 4 262 74l32 -16l-251 -1178q-20 -94 -21 -145q0 -47 33 -47q31 0 82 37l98 69l19 -43l-72 -53q-125 -92 -171 -117.5t-93 -25.5q-59 0 -60 79q0 41 27 158l172 817q41 199 45 279 q-10 37 -25.5 50t-54.5 13h-33l-12 -84h-20q-27 76 -113 76q-72 0 -113 -56.5t-65 -189.5l-43 -229h33q121 0 186 18l8 -14q-20 -49 -35 -115h-213q-6 -39 -20 -100l-19 -80q-115 -545 -171 -722t-148 -288q-59 -72 -135 -115.5t-140 -43.5q-43 0 -71 16q27 49 47 164l29 8 q45 -59 106 -59q113 0 172 184q72 223 182 922l19 114h-342q-6 -39 -21 -100l-18 -80q-115 -545 -171.5 -722t-148.5 -288q-59 -72 -135 -115.5t-139 -43.5q-43 0 -72 16z" />
</font>
</defs>
</svg>
